<svg xmlns="http://www.w3.org/2000/svg" viewBox="0 0 1024 1024" preserveAspectRatio="xMidYMid meet"><g><path d="M0 0 C337.92 0 675.84 0 1024 0 C1024 337.92 1024 675.84 1024 1024 C686.08 1024 348.16 1024 0 1024 C0 686.08 0 348.16 0 0 Z " fill="#FEFEFE" transform="translate(0,0)"/></g><g><path d="M0 0 C9.213 7.806 17.335 16.827 25.434 25.754 C26.122 26.505 26.811 27.255 27.52 28.028 C29.205 29.902 30.827 31.812 32.434 33.754 C33.223 34.692 34.012 35.629 34.825 36.594 C41.225 44.401 45.751 52.362 49.434 61.754 C49.975 63.127 49.975 63.127 50.528 64.528 C56.912 84.686 52.745 112.061 43.434 130.754 C36.381 143.599 28.109 152.299 15.434 159.754 C18.323 161.77 18.323 161.77 21.184 163.129 C38.718 171.896 49.806 185.661 56.625 203.95 C65.099 229.903 63.525 259.621 51.383 284.235 C40.471 304.721 19.673 320.565 -1.316 329.754 C-7.977 332.681 -12.613 336.162 -17.843 341.297 C-33.184 355.141 -53.727 358.727 -73.656 357.972 C-80.684 357.446 -87.029 355.263 -93.566 352.754 C-94.361 352.46 -95.156 352.165 -95.975 351.861 C-110.884 346.307 -125.567 340.039 -138.566 330.754 C-138.236 336.694 -137.906 342.634 -137.566 348.754 C-136.906 348.424 -136.246 348.094 -135.566 347.754 C-132.031 347.493 -129.404 347.389 -126.128 348.817 C-124.566 350.754 -124.566 350.754 -123.941 353.817 C-125.548 363.943 -132.747 370.72 -140.566 376.754 C-149.561 383.25 -159.071 389.028 -168.566 394.754 C-169.143 395.103 -169.72 395.452 -170.314 395.812 C-180.348 401.877 -190.451 407.824 -200.566 413.754 C-199.72 417.937 -197.884 419.893 -194.941 423.004 C-194.017 423.993 -193.094 424.983 -192.171 425.973 C-191.312 426.891 -190.452 427.809 -189.566 428.754 C-187.891 430.626 -186.242 432.517 -184.597 434.415 C-182.938 436.325 -181.27 438.227 -179.597 440.125 C-172.588 448.11 -165.93 456.246 -159.566 464.754 C-158.923 465.608 -158.279 466.461 -157.617 467.34 C-156.261 469.141 -154.913 470.947 -153.566 472.754 C-143.644 463.149 -136.257 451.746 -129.566 439.754 C-129.126 438.97 -128.686 438.186 -128.233 437.378 C-121.118 424.579 -115.325 411.602 -110.566 397.754 C-110.184 396.675 -109.803 395.597 -109.41 394.485 C-106.677 385.844 -105.627 375.087 -109.449 366.625 C-112.301 361.848 -115.738 357.489 -119.773 353.661 C-121.566 351.754 -121.566 351.754 -121.816 349.004 C-121.733 348.262 -121.651 347.519 -121.566 346.754 C-119.308 346.075 -119.308 346.075 -116.566 345.754 C-108.562 350.243 -101.283 360.151 -98.566 368.754 C-98.202 371.41 -97.947 374.041 -97.777 376.715 C-97.783 378.747 -97.783 378.747 -96.566 379.754 C-93.715 380.259 -90.872 380.711 -88.007 381.129 C-87.148 381.259 -86.288 381.388 -85.403 381.521 C-82.645 381.936 -79.887 382.346 -77.128 382.754 C-74.374 383.163 -71.619 383.573 -68.865 383.987 C-67.148 384.245 -65.431 384.5 -63.713 384.752 C-57.791 385.642 -57.791 385.642 -55.566 386.754 C-54.07 386.955 -52.569 387.118 -51.066 387.254 C-46.788 387.643 -46.788 387.643 -44.566 388.754 C-42.966 389.031 -41.361 389.274 -39.753 389.504 C-13.858 393.779 14.79 401.31 31.184 423.504 C45.965 446.006 48.61 473.501 48.563 499.777 C48.565 501.02 48.567 502.262 48.569 503.542 C48.572 506.917 48.572 510.292 48.568 513.666 C48.566 517.234 48.568 520.801 48.57 524.368 C48.572 530.367 48.569 536.366 48.564 542.365 C48.559 549.237 48.561 556.109 48.566 562.981 C48.571 568.932 48.571 574.884 48.569 580.835 C48.567 584.366 48.567 587.898 48.57 591.429 C48.588 612.901 48.001 634.271 46.497 655.692 C46.412 656.923 46.327 658.154 46.239 659.422 C45.695 666.986 44.92 674.451 43.872 681.961 C43.235 687.478 42.99 693.004 42.776 698.552 C42.64 701.834 42.479 704.62 41.434 707.754 C41.119 710.707 40.845 713.651 40.602 716.61 C40.444 718.437 40.286 720.265 40.127 722.092 C40.045 723.049 39.963 724.005 39.878 724.99 C37.525 752.092 37.525 752.092 35.372 764.754 C35.147 766.081 35.147 766.081 34.917 767.435 C31.503 786.213 25.248 804.93 9.434 816.754 C4.521 819.873 4.521 819.873 0.559 819.442 C-0.142 819.215 -0.843 818.988 -1.566 818.754 C-1.024 814.845 0.69 813.294 3.559 810.692 C27.885 787.022 27.741 745.443 30.813 713.728 C31.128 710.525 31.494 707.345 31.959 704.16 C32.428 700.799 32.684 697.498 32.864 694.11 C32.971 692.166 32.971 692.166 33.081 690.183 C33.118 689.494 33.155 688.806 33.193 688.096 C34.06 672.016 35.171 655.957 36.381 639.9 C37.928 619.13 38.595 598.432 38.602 577.606 C38.605 575.251 38.609 572.896 38.612 570.541 C38.618 565.642 38.62 560.743 38.619 555.843 C38.619 549.636 38.633 543.429 38.65 537.221 C38.661 532.368 38.663 527.516 38.663 522.663 C38.664 520.377 38.668 518.091 38.676 515.806 C38.769 486.053 38.833 454.25 21.434 428.754 C20.703 428.023 19.972 427.293 19.219 426.54 C18.63 425.95 18.041 425.361 17.434 424.754 C17.434 424.094 17.434 423.434 17.434 422.754 C16.873 422.502 16.313 422.249 15.735 421.989 C13.105 420.578 10.96 418.858 8.622 417.004 C-8.664 404.454 -32.029 401.643 -52.566 397.754 C-54.275 397.402 -55.983 397.048 -57.691 396.692 C-61.509 395.922 -65.338 395.324 -69.191 394.754 C-73.285 394.146 -77.183 393.354 -81.179 392.262 C-87.221 390.977 -93.434 390.454 -99.566 389.754 C-99.632 390.815 -99.697 391.876 -99.765 392.969 C-100.546 399.118 -103.016 404.629 -105.378 410.317 C-105.866 411.5 -106.354 412.683 -106.856 413.902 C-116.342 436.475 -130.454 469.68 -151.566 483.754 C-154.441 484.192 -154.441 484.192 -157.566 483.754 C-161.313 480.398 -164.34 476.625 -167.378 472.629 C-167.811 472.062 -168.245 471.494 -168.691 470.909 C-171.391 467.354 -174.024 463.755 -176.628 460.129 C-182.618 451.844 -189.247 444.09 -195.878 436.317 C-196.382 435.725 -196.886 435.134 -197.405 434.525 C-200.019 431.478 -202.677 428.547 -205.566 425.754 C-206.247 426.064 -206.927 426.373 -207.628 426.692 C-211.01 427.915 -213.972 428.555 -217.566 428.754 C-219.503 427.317 -219.503 427.317 -220.566 425.754 C-225.95 427.214 -229.913 429.755 -234.441 432.879 C-236.034 433.961 -237.628 435.041 -239.222 436.122 C-240.077 436.704 -240.931 437.286 -241.812 437.886 C-246.833 441.292 -251.89 444.644 -256.941 448.004 C-258.886 449.301 -260.832 450.598 -262.777 451.895 C-263.721 452.52 -264.666 453.144 -265.639 453.788 C-267.696 455.169 -269.731 456.583 -271.75 458.018 C-272.796 458.751 -273.841 459.484 -274.917 460.239 C-275.857 460.911 -276.796 461.584 -277.764 462.277 C-281.003 463.985 -282.954 464.204 -286.566 463.754 C-288.914 461.406 -288.857 460.921 -288.867 457.731 C-288.739 452.523 -287.458 448.022 -285.753 443.129 C-285.445 442.23 -285.137 441.33 -284.819 440.404 C-278.536 422.727 -269.645 406.512 -259.566 390.754 C-264.955 390.73 -270.345 390.711 -275.734 390.699 C-277.564 390.694 -279.394 390.688 -281.224 390.679 C-283.868 390.667 -286.512 390.661 -289.156 390.657 C-289.962 390.652 -290.769 390.646 -291.6 390.641 C-326.943 390.638 -352.386 408.602 -376.628 432.629 C-383.036 439.048 -389.048 445.547 -394.566 452.754 C-395.615 454.077 -396.666 455.399 -397.718 456.719 C-409.1 471.071 -419.678 485.977 -429.5 501.44 C-431.894 505.207 -434.352 508.91 -436.914 512.567 C-437.749 513.772 -437.749 513.772 -438.601 515.002 C-439.674 516.545 -440.759 518.08 -441.859 519.604 C-447.121 527.224 -445.569 533.848 -444.128 542.567 C-443.994 543.425 -443.859 544.283 -443.72 545.167 C-443.09 549.597 -443.09 549.597 -441.566 553.754 C-441.257 556.052 -441.057 558.352 -440.847 560.661 C-440.674 562.809 -440.674 562.809 -439.566 564.754 C-439.265 566.729 -439.001 568.71 -438.753 570.692 C-437.707 578.338 -436.131 585.823 -434.503 593.364 C-433.62 597.459 -432.851 601.565 -432.128 605.692 C-431.33 610.037 -430.443 614.362 -429.566 618.692 C-428.273 625.083 -427.084 631.47 -426.062 637.911 C-425.493 641.175 -424.785 644.395 -424.066 647.629 C-422.723 653.719 -421.786 659.805 -420.996 665.989 C-420.717 668.705 -420.717 668.705 -419.566 670.754 C-419.337 672.792 -419.156 674.835 -419.003 676.879 C-418.878 678.523 -418.878 678.523 -418.75 680.2 C-418.689 681.043 -418.628 681.886 -418.566 682.754 C-410.044 675.91 -402.683 669.505 -401.128 658.254 C-401.027 657.068 -400.925 655.883 -400.82 654.661 C-400.566 651.754 -400.566 651.754 -399.566 649.754 C-399.385 648.425 -399.245 647.091 -399.128 645.754 C-398.803 642.528 -398.337 639.397 -397.671 636.223 C-396.893 632.418 -396.169 628.609 -395.488 624.786 C-387.15 578.115 -373.864 533.686 -351.316 491.817 C-350.845 490.936 -350.374 490.055 -349.889 489.147 C-346.63 483.229 -342.857 477.969 -338.566 472.754 C-337.576 473.084 -336.586 473.414 -335.566 473.754 C-335.97 480.643 -338.858 485.918 -341.941 492.004 C-348.935 506.154 -355.569 520.763 -360.566 535.754 C-359.593 535.793 -359.593 535.793 -358.601 535.833 C-342.87 536.742 -327.18 539.602 -311.835 543.102 C-306.711 544.125 -301.549 544.672 -296.355 545.227 C-293.085 545.682 -290.029 546.401 -286.841 547.235 C-281.978 548.346 -277.009 548.872 -272.066 549.504 C-270.795 549.67 -269.524 549.836 -268.214 550.006 C-264.515 550.486 -260.814 550.959 -257.113 551.43 C-254.393 551.776 -251.673 552.126 -248.953 552.476 C-224.856 555.57 -200.769 558.612 -176.566 560.754 C-175.538 560.847 -174.51 560.939 -173.45 561.034 C-163.139 561.947 -152.823 562.697 -142.488 563.286 C-141.708 563.33 -140.928 563.375 -140.124 563.421 C-136.24 563.641 -132.356 563.855 -128.471 564.057 C-127.055 564.135 -125.639 564.212 -124.222 564.29 C-122.962 564.355 -121.702 564.421 -120.404 564.489 C-117.566 564.754 -117.566 564.754 -116.566 565.754 C-114.717 565.988 -112.861 566.167 -111.003 566.317 C-109.992 566.401 -108.98 566.484 -107.937 566.571 C-107.155 566.631 -106.372 566.692 -105.566 566.754 C-105.456 566.03 -105.347 565.305 -105.234 564.559 C-104.337 559.092 -103.406 554.532 -100.566 549.754 C-99.246 549.754 -97.926 549.754 -96.566 549.754 C-95.566 550.754 -95.566 550.754 -95.546 552.817 C-96.069 560.229 -97.123 567.472 -98.339 574.797 C-100.68 589.166 -102.709 603.575 -104.715 617.994 C-105.206 621.519 -105.699 625.044 -106.193 628.569 C-107.321 636.63 -108.444 644.692 -109.566 652.754 C-109.86 654.868 -110.155 656.982 -110.449 659.096 C-111.683 667.954 -112.913 676.812 -114.136 685.671 C-114.605 689.033 -115.084 692.394 -115.566 695.754 C-114.986 695.549 -114.406 695.344 -113.808 695.133 C-113.027 694.864 -112.246 694.594 -111.441 694.317 C-110.675 694.05 -109.91 693.783 -109.121 693.508 C-97.754 690.154 -82.45 689.816 -71.566 694.754 C-70.691 695.15 -70.691 695.15 -69.799 695.553 C-54.255 702.685 -30.841 714.788 -22.566 730.754 C-22.906 733.477 -22.906 733.477 -23.566 735.754 C-29.068 735.422 -32.409 732.015 -36.503 728.692 C-54.89 714.284 -78.245 702.691 -102.238 703.333 C-108.126 704.079 -113.757 705.776 -119.46 707.379 C-124.681 708.827 -129.941 709.955 -135.253 711.004 C-136.066 711.167 -136.879 711.33 -137.716 711.498 C-145.312 712.977 -152.742 713.898 -160.488 713.928 C-161.236 713.935 -161.983 713.941 -162.754 713.948 C-164.364 713.962 -165.974 713.974 -167.584 713.984 C-170.147 714.001 -172.71 714.024 -175.273 714.049 C-182.555 714.119 -189.838 714.18 -197.121 714.231 C-201.592 714.263 -206.062 714.305 -210.532 714.351 C-212.219 714.367 -213.907 714.38 -215.594 714.388 C-224.945 714.437 -234.01 714.856 -243.262 716.263 C-246.65 716.767 -250.032 717.115 -253.441 717.442 C-268.684 719.501 -283.678 724.353 -297.941 730.004 C-299.188 730.498 -299.188 730.498 -300.461 731.001 C-304.169 732.533 -306.829 733.748 -309.566 736.754 C-308.466 736.901 -307.367 737.048 -306.234 737.2 C-296.98 738.556 -289.42 740.367 -281.566 745.754 C-280.976 746.145 -280.385 746.536 -279.777 746.938 C-271.434 753.12 -266.755 764.188 -263.566 773.754 C-263.474 775.285 -263.435 776.819 -263.433 778.352 C-263.432 779.236 -263.431 780.119 -263.429 781.03 C-263.433 781.95 -263.437 782.869 -263.441 783.817 C-263.437 784.741 -263.433 785.664 -263.429 786.616 C-263.43 787.498 -263.432 788.38 -263.433 789.29 C-263.435 790.502 -263.435 790.502 -263.437 791.739 C-263.566 793.754 -263.566 793.754 -264.566 795.754 C-263.881 795.733 -263.196 795.712 -262.49 795.691 C-259.349 795.607 -256.208 795.556 -253.066 795.504 C-251.988 795.471 -250.911 795.437 -249.8 795.403 C-243.199 795.322 -238.003 795.768 -232.566 799.754 C-228.429 803.802 -226.4 807.095 -226.191 812.879 C-226.256 820.01 -228.923 823.956 -233.691 829.004 C-240.826 833.347 -247.52 835.001 -255.859 835.301 C-256.741 835.338 -257.623 835.375 -258.532 835.413 C-275.806 836.083 -293.096 836.423 -310.378 836.817 C-311.345 836.839 -312.312 836.861 -313.308 836.884 C-343.393 837.575 -373.472 838.23 -403.566 837.754 C-404.793 837.735 -406.02 837.716 -407.284 837.696 C-414.723 837.548 -422.14 837.205 -429.566 836.754 C-430.29 836.711 -431.014 836.667 -431.761 836.622 C-446.035 835.752 -460.301 834.766 -474.566 833.754 C-476.281 833.633 -476.281 833.633 -478.031 833.509 C-485.257 832.996 -492.483 832.477 -499.709 831.95 C-502.039 831.78 -504.369 831.612 -506.7 831.444 C-517.988 830.628 -529.245 829.748 -540.487 828.43 C-547.088 827.666 -553.683 827.244 -560.316 826.879 C-578.629 825.782 -596.89 824.128 -615.162 822.496 C-621.127 821.965 -627.093 821.456 -633.062 820.969 C-658.797 818.866 -684.478 816.329 -710.003 812.379 C-711.199 812.207 -712.394 812.034 -713.626 811.856 C-723.059 810.311 -732.791 807.532 -739.128 799.942 C-744.725 792.045 -745.86 781.243 -747.753 772.004 C-748.367 769.05 -748.984 766.095 -749.601 763.141 C-749.76 762.377 -749.919 761.614 -750.082 760.827 C-751.234 755.303 -752.419 749.787 -753.625 744.274 C-753.796 743.491 -753.967 742.708 -754.143 741.902 C-754.487 740.325 -754.832 738.748 -755.177 737.171 C-757.975 724.36 -760.667 711.546 -763.02 698.643 C-763.905 693.851 -764.95 689.363 -766.566 684.754 C-766.9 683.054 -767.19 681.344 -767.441 679.629 C-768.282 674.24 -769.307 668.904 -770.39 663.559 C-770.75 661.772 -771.11 659.985 -771.469 658.198 C-771.743 656.839 -771.743 656.839 -772.023 655.453 C-772.865 651.268 -773.698 647.082 -774.531 642.895 C-777.947 625.753 -781.382 608.618 -784.985 591.514 C-790.949 563.187 -796.596 534.806 -801.882 506.344 C-802.596 502.598 -803.36 498.865 -804.128 495.129 C-811.403 458.452 -811.403 458.452 -804.183 446.766 C-799.721 441.215 -794.582 436.608 -787.566 434.754 C-782.516 434.324 -777.484 434.388 -772.421 434.458 C-770.906 434.469 -769.391 434.479 -767.876 434.49 C-751.665 434.643 -735.487 435.461 -719.304 436.369 C-715.983 436.554 -712.662 436.732 -709.341 436.91 C-684.535 438.241 -659.742 439.766 -634.953 441.39 C-618.9 442.439 -602.847 443.377 -586.774 444.071 C-578.478 444.44 -570.223 445.016 -561.949 445.719 C-552.312 446.529 -542.68 447.085 -533.019 447.5 C-532.357 447.529 -531.696 447.558 -531.014 447.588 C-524.897 447.855 -518.78 448.115 -512.663 448.356 C-509.926 448.464 -507.19 448.579 -504.454 448.701 C-501.92 448.813 -499.385 448.917 -496.85 449.008 C-484.232 449.589 -471.829 450.987 -462.824 460.618 C-454.522 471.584 -453.557 487.593 -451.228 500.738 C-451.026 501.874 -450.824 503.01 -450.617 504.18 C-450.438 505.205 -450.259 506.231 -450.075 507.287 C-449.678 509.744 -449.678 509.744 -448.566 511.754 C-447.97 510.791 -447.375 509.827 -446.761 508.834 C-440.573 498.86 -434.209 489.016 -427.691 479.254 C-427.21 478.534 -426.73 477.814 -426.235 477.072 C-419.323 466.727 -412.393 456.437 -404.566 446.754 C-404.123 446.2 -403.679 445.645 -403.223 445.074 C-375.948 411.226 -340.244 384.009 -295.885 379.198 C-290.858 378.712 -285.944 378.736 -280.902 378.903 C-279.102 378.94 -277.303 378.975 -275.503 379.008 C-272.714 379.064 -269.926 379.13 -267.137 379.228 C-255.039 380.201 -255.039 380.201 -244.542 375.356 C-244.03 374.733 -243.518 374.11 -242.99 373.468 C-241.35 371.494 -239.929 370.71 -237.566 369.754 C-235.425 369.559 -235.425 369.559 -233.316 369.629 C-232.078 369.671 -230.841 369.712 -229.566 369.754 C-229.236 371.404 -228.906 373.054 -228.566 374.754 C-229.492 375.464 -229.492 375.464 -230.437 376.188 C-250.301 391.698 -261.972 411.987 -271.628 435.004 C-272.059 436.022 -272.059 436.022 -272.498 437.061 C-274.223 441.338 -275.089 445.208 -275.566 449.754 C-267.683 445.397 -260.152 440.573 -252.628 435.629 C-244.76 430.467 -236.863 425.36 -228.878 420.379 C-228 419.826 -227.122 419.273 -226.217 418.703 C-225.4 418.197 -224.583 417.69 -223.742 417.168 C-223.029 416.725 -222.317 416.281 -221.583 415.823 C-219.575 414.759 -217.786 414.2 -215.566 413.754 C-216.38 412.07 -216.38 412.07 -217.21 410.352 C-230.04 383.64 -230.04 383.64 -225.546 368.266 C-225.223 367.437 -224.899 366.608 -224.566 365.754 C-225.354 365.74 -226.141 365.726 -226.953 365.711 C-250.845 364.665 -270.242 349.543 -285.915 332.635 C-295.921 321.238 -304.562 306.225 -307.003 291.192 C-308.121 284.883 -310.176 282.727 -315.152 278.918 C-324.283 270.733 -328.8 256.67 -329.941 244.879 C-330.891 224.552 -322.274 201.541 -309.566 185.754 C-310.316 185.778 -311.066 185.801 -311.839 185.825 C-328.87 186.125 -341.699 181.327 -354.535 170.02 C-358.589 165.855 -361.235 161.005 -363.878 155.879 C-364.216 155.232 -364.554 154.584 -364.903 153.917 C-372.136 139.161 -371.422 120.098 -366.96 104.602 C-363.244 93.792 -357.556 83.767 -350.566 74.754 C-349.959 73.933 -349.352 73.112 -348.726 72.266 C-339.51 60.326 -327.875 50.16 -316.089 40.817 C-313.387 38.608 -310.86 36.267 -308.316 33.879 C-277.453 5.57 -241.674 -4.751 -200.566 -3.246 C-195.072 -2.832 -189.874 -1.714 -184.566 -0.246 C-183.814 -0.052 -183.062 0.141 -182.288 0.34 C-160.597 5.947 -142.644 15.356 -125.566 29.754 C-125.452 28.873 -125.339 27.991 -125.222 27.083 C-122.589 13.728 -111.388 3.472 -100.812 -4.14 C-70.798 -23.608 -28.463 -22.641 0 0 Z " fill="#262626" transform="translate(907.56591796875,132.24560546875)"/></g><g><path d="M0 0 C1.028 0.003 2.057 0.007 3.117 0.01 C6.398 0.026 9.679 0.07 12.961 0.113 C15.145 0.125 17.328 0.135 19.512 0.143 C21.633 0.156 23.754 0.171 25.875 0.188 C26.844 0.195 27.813 0.202 28.812 0.21 C34.619 0.289 40.347 0.651 46.13 1.169 C51.557 1.604 56.994 1.808 62.434 2.026 C64.572 2.112 66.709 2.202 68.847 2.292 C74.916 2.549 80.986 2.801 87.056 3.048 C116.161 4.237 116.161 4.237 129.43 5.402 C145.595 6.814 161.807 7.404 178.015 8.115 C187.564 8.535 197.112 8.972 206.66 9.41 C207.601 9.453 208.542 9.496 209.511 9.541 C226.001 10.298 242.482 11.148 258.961 12.113 C260.003 12.174 261.046 12.234 262.12 12.297 C267.477 12.61 272.834 12.936 278.189 13.288 C280.159 13.414 282.13 13.528 284.101 13.641 C289.286 13.982 293.591 14.335 298.211 16.926 C299.054 17.369 299.897 17.813 300.766 18.27 C307.296 23.748 310.197 30.539 311.711 38.738 C312.003 40.184 312.003 40.184 312.3 41.659 C313.009 45.243 313.677 48.833 314.336 52.426 C314.47 53.153 314.604 53.881 314.742 54.631 C316.194 62.516 317.628 70.405 319.045 78.297 C321.677 92.945 324.445 107.564 327.273 122.176 C330.537 139.041 333.752 155.914 336.898 172.801 C340.16 190.292 343.529 207.761 346.963 225.219 C349.419 237.705 351.834 250.198 354.217 262.698 C357.421 279.496 360.656 296.287 363.941 313.069 C364.361 315.216 364.781 317.362 365.2 319.509 C365.791 322.533 366.383 325.555 366.977 328.578 C367.167 329.549 367.357 330.519 367.553 331.519 C368.57 336.673 369.625 341.816 370.729 346.952 C370.959 348.028 371.189 349.104 371.425 350.212 C371.865 352.257 372.309 354.301 372.761 356.343 C374.406 364.003 375.401 371.591 374.336 379.426 C373.676 380.416 373.016 381.406 372.336 382.426 C369.359 382.828 369.359 382.828 365.448 382.855 C364.37 382.865 364.37 382.865 363.269 382.875 C360.839 382.888 358.41 382.874 355.98 382.855 C355.13 382.853 354.279 382.85 353.402 382.848 C330.339 382.744 307.395 380.757 284.427 378.834 C278.729 378.36 273.029 377.903 267.33 377.445 C258.716 376.752 250.103 376.048 241.49 375.337 C234.848 374.789 228.206 374.254 221.561 373.757 C220.33 373.665 219.1 373.573 217.832 373.478 C215.7 373.32 213.569 373.166 211.437 373.015 C207.317 372.712 203.38 372.305 199.336 371.426 C197.55 371.243 195.76 371.09 193.969 370.961 C192.931 370.884 191.894 370.808 190.825 370.729 C189.16 370.61 189.16 370.61 187.461 370.488 C178.258 369.806 169.063 369.071 159.872 368.244 C153.647 367.693 147.42 367.201 141.188 366.738 C110.631 364.458 110.631 364.458 96.293 362.176 C92.507 361.577 88.719 361.106 84.91 360.676 C83.241 360.487 83.241 360.487 81.538 360.295 C79.4 360.058 77.26 359.827 75.12 359.604 C66.152 358.598 56.407 357.462 49.336 351.426 C46.03 347.08 44.522 343.306 43.305 338.004 C43.141 337.304 42.977 336.604 42.807 335.882 C42.47 334.433 42.137 332.982 41.81 331.531 C41.373 329.591 40.92 327.656 40.465 325.721 C39.566 321.877 38.695 318.028 37.836 314.176 C37.674 313.451 37.512 312.726 37.345 311.98 C33.152 293.156 29.445 274.231 25.725 255.31 C23.405 243.546 21.016 231.81 18.375 220.113 C16.157 210.286 14.084 200.435 12.117 190.555 C11.982 189.878 11.848 189.201 11.709 188.504 C10.885 184.361 10.065 180.217 9.247 176.072 C8.02 169.857 6.79 163.643 5.555 157.43 C5.421 156.757 5.288 156.085 5.15 155.393 C2.99 144.534 0.721 133.701 -1.636 122.883 C-3.739 113.213 -5.608 103.504 -7.453 93.781 C-10.626 77.074 -14.035 60.42 -17.697 43.813 C-23.717 16.206 -23.717 16.206 -19.039 7.238 C-13.307 0.45 -8.418 -0.15 0 0 Z " fill="#FEFEFE" transform="translate(129.6640625,577.57421875)"/></g><g><path d="M0 0 C14.902 1.973 29.651 4.197 44.367 7.277 C51.427 8.739 58.425 9.822 65.598 10.543 C68.725 10.963 71.653 11.681 74.701 12.476 C79.573 13.587 84.548 14.116 89.5 14.75 C90.771 14.916 92.042 15.081 93.352 15.252 C97.051 15.732 100.752 16.204 104.453 16.675 C107.173 17.022 109.893 17.371 112.613 17.721 C136.71 20.815 160.796 23.858 185 26 C186.028 26.092 187.056 26.185 188.116 26.28 C198.427 27.193 208.743 27.943 219.078 28.531 C219.858 28.576 220.638 28.62 221.441 28.666 C225.325 28.887 229.21 29.1 233.095 29.303 C234.511 29.38 235.927 29.458 237.344 29.535 C239.234 29.634 239.234 29.634 241.162 29.735 C244 30 244 30 245 31 C246.849 31.234 248.705 31.413 250.562 31.562 C251.574 31.646 252.586 31.73 253.629 31.816 C254.803 31.907 254.803 31.907 256 32 C256.33 31.01 256.66 30.02 257 29 C257 30.32 257 31.64 257 33 C256.34 33 255.68 33 255 33 C254.954 33.672 254.909 34.345 254.861 35.037 C254.342 41.701 253.253 47.996 251.719 54.492 C248.751 67.617 246.592 80.837 244.5 94.125 C244.108 96.585 243.716 99.045 243.324 101.505 C240.41 119.904 237.766 138.33 235.43 156.811 C235.015 159.887 234.528 162.942 234 166 C214.103 172.007 191.619 172.092 170.996 172.273 C169.087 172.29 169.087 172.29 167.139 172.307 C161.933 172.346 156.726 172.373 151.52 172.381 C120.441 172.459 69.929 175.071 46 199 C41.564 198.665 38.127 197.312 34.176 195.34 C33.074 194.797 31.973 194.255 30.838 193.696 C29.675 193.115 28.511 192.535 27.312 191.938 C24.873 190.741 22.429 189.553 19.984 188.367 C19.381 188.074 18.777 187.781 18.156 187.479 C0.842 179.097 -18.421 170.08 -38 170 C-38.2 164.419 -37.464 159.436 -36.312 153.984 C-36.045 152.676 -36.045 152.676 -35.773 151.341 C-35.389 149.459 -35.001 147.578 -34.611 145.697 C-33.563 140.645 -32.537 135.588 -31.512 130.531 C-31.195 128.973 -31.195 128.973 -30.872 127.383 C-28.898 117.604 -27.093 107.797 -25.309 97.982 C-22.533 82.718 -19.535 67.604 -15.653 52.576 C-15.024 50.094 -14.44 47.606 -13.871 45.109 C-10.315 29.742 -5.128 14.899 0 0 Z " fill="#7E8081" transform="translate(546,667)"/></g><g><path d="M0 0 C5.955 4.331 10.722 9.842 12.75 17 C14.072 30.125 10.259 39.438 2.75 50 C2.322 50.638 1.894 51.276 1.453 51.934 C-4.966 60.512 -16.774 67.174 -27.25 69 C-30.58 69.454 -33.896 69.793 -37.25 70 C-37.348 70.764 -37.446 71.529 -37.547 72.316 C-41.6 101.355 -53.607 125.485 -76.574 143.859 C-94.904 157.553 -116.178 162.162 -138.695 159.609 C-151.839 156.816 -163.483 148.921 -173.25 140 C-174.017 139.314 -174.784 138.628 -175.574 137.922 C-192.832 121.658 -205.427 97.023 -206.363 73.105 C-206.373 70.732 -206.343 68.371 -206.25 66 C-205.569 66.289 -204.889 66.577 -204.188 66.875 C-196.992 69.631 -189.935 71.927 -182.523 68.879 C-180.769 67.987 -179.031 67.06 -177.316 66.094 C-175.25 65 -175.25 65 -173.25 65 C-173.168 66.217 -173.085 67.434 -173 68.688 C-172.482 72.813 -171.286 75.051 -168.25 78 C-163.567 80.895 -158.583 80.531 -153.25 80 C-149.694 78.688 -149.694 78.688 -147.25 77 C-147.25 75.68 -147.25 74.36 -147.25 73 C-148.93 73.16 -148.93 73.16 -150.645 73.324 C-152.117 73.446 -153.59 73.567 -155.062 73.688 C-155.8 73.76 -156.538 73.833 -157.299 73.908 C-162.776 74.33 -162.776 74.33 -165.199 72.645 C-168.204 67.941 -167.816 62.779 -166.732 57.458 C-166.023 54.806 -165.249 52.185 -164.438 49.562 C-164.176 48.685 -163.915 47.808 -163.646 46.904 C-162.859 44.266 -162.055 41.633 -161.25 39 C-160.682 37.114 -160.116 35.227 -159.551 33.34 C-159.301 32.507 -159.051 31.674 -158.794 30.816 C-158.615 30.217 -158.435 29.617 -158.25 29 C-156.041 32.314 -155.801 34.161 -155.312 38.062 C-153.786 48.561 -151.617 58.756 -143.035 65.824 C-134.964 71.371 -128.085 73.265 -118.25 72 C-106.423 67.82 -99.149 60.886 -93.25 50 C-89.477 41.986 -87.423 33.982 -85.926 25.312 C-84.481 18.231 -84.481 18.231 -82.25 16 C-76.518 15.087 -70.951 14.864 -65.156 14.902 C-64.324 14.904 -63.492 14.905 -62.635 14.907 C-60.006 14.912 -57.378 14.925 -54.75 14.938 C-52.956 14.943 -51.161 14.947 -49.367 14.951 C-44.995 14.962 -40.622 14.979 -36.25 15 C-36.25 15.99 -36.25 16.98 -36.25 18 C-34.295 17.776 -34.295 17.776 -32.25 17 C-31.151 15.387 -31.151 15.387 -30.438 13.375 C-27.669 7.352 -23.665 3.439 -18 0.062 C-11.895 -1.667 -6.092 -1.875 0 0 Z " fill="#E9E9E8" transform="translate(812.25,330)"/></g><g><path d="M0 0 C1.169 3.508 1.017 6.077 0.887 9.773 C0.438 26.361 0.451 41.422 7 57 C7.294 57.702 7.589 58.405 7.892 59.128 C13.67 72.309 22.434 82.581 34.98 89.793 C35.647 90.191 36.313 90.59 37 91 C37 91.33 37 91.66 37 92 C32.052 92.049 27.104 92.086 22.156 92.11 C20.472 92.12 18.788 92.134 17.104 92.151 C14.687 92.175 12.269 92.186 9.852 92.195 C9.096 92.206 8.341 92.216 7.563 92.227 C5.707 92.227 3.852 92.122 2 92 C1.34 91.34 0.68 90.68 0 90 C-2.715 89.672 -5.252 89.869 -8 90 C-9.669 91.669 -9.129 93.713 -9.141 96.004 C-9.395 112.716 -10.332 132.332 -23 145 C-30.356 150.044 -36.921 153.431 -46 152 C-52.917 149.368 -57.398 145.326 -60.82 138.801 C-64.766 129.433 -65.402 119.936 -65.534 109.891 C-65.647 105.179 -65.806 101.758 -69 98 C-71.627 97.582 -71.627 97.582 -74 98 C-77.045 102.902 -78.833 107.198 -80.062 112.812 C-80.397 114.228 -80.733 115.644 -81.07 117.059 C-81.229 117.736 -81.388 118.414 -81.552 119.113 C-84.324 130.786 -87.854 140.868 -98 148 C-102.077 150.344 -106.376 150.728 -111 150 C-115.466 147.723 -119.868 144.664 -122 140 C-123.238 131.779 -121.552 123.852 -119.793 115.832 C-118.745 110.766 -118.108 105.682 -117.469 100.551 C-116.918 96.378 -116.167 92.257 -115.41 88.117 C-115.013 85.1 -114.944 82.165 -114.913 79.126 C-114.758 70.988 -114.758 70.988 -112.301 67.785 C-110.252 66.236 -108.325 65.083 -106 64 C-105.339 63.634 -104.677 63.268 -103.996 62.891 C-100.368 61.272 -96.881 61.371 -93 62 C-90.325 63.175 -87.861 64.496 -85.359 66.004 C-82.476 67.221 -80.953 66.874 -78 66 C-78.285 60.795 -78.285 60.795 -81.25 56.688 C-87.655 52.757 -93.573 51.896 -101 53 C-103.915 54.335 -106.414 55.853 -109.039 57.688 C-111 59 -111 59 -113 59 C-113.623 55.172 -113.816 51.809 -113 48 C-103.053 36.384 -83.934 35.12 -69.812 33.625 C-45.072 30.782 -17.431 22.008 -1.156 1.699 C-0.584 0.858 -0.584 0.858 0 0 Z " fill="#E9E9E8" transform="translate(728,243)"/></g><g><path d="M0 0 C4.084 -0.082 8.166 -0.141 12.25 -0.188 C13.39 -0.213 14.529 -0.238 15.703 -0.264 C27.886 -0.368 38.134 2.672 49.25 7.438 C50.32 7.892 51.391 8.346 52.494 8.815 C65.34 14.398 77.816 20.758 90.304 27.094 C91.142 27.519 91.981 27.944 92.845 28.382 C94.413 29.178 95.98 29.977 97.546 30.779 C105.857 35.009 113.993 38.443 122.984 40.973 C129.253 43.108 133.063 46.223 136.102 52.148 C139.14 58.728 140.175 64.274 140.312 71.562 C140.369 73.513 140.369 73.513 140.426 75.504 C140 79 140 79 138.543 81.402 C131.668 85.722 120.971 84.183 113.125 84.188 C111.321 84.206 111.321 84.206 109.48 84.225 C93.436 84.251 80.506 80.987 68.684 69.48 C64.795 66.061 61.26 65.451 56.211 65.555 C49.709 66.456 43.599 68.914 37.445 71.127 C33.335 72.595 29.199 73.985 25.062 75.375 C24.299 75.637 23.536 75.9 22.75 76.17 C19.715 77.197 17.227 78 14 78 C13.633 76.608 13.282 75.211 12.938 73.812 C12.74 73.035 12.543 72.258 12.34 71.457 C11.942 68.578 12.084 66.765 13 64 C15.082 62.746 15.082 62.746 17.812 61.867 C18.806 61.536 19.8 61.205 20.824 60.863 C21.872 60.537 22.92 60.211 24 59.875 C25.017 59.541 26.034 59.207 27.082 58.863 C30.95 57.597 34.819 56.349 38.723 55.196 C39.536 54.948 40.349 54.701 41.188 54.445 C41.903 54.237 42.618 54.028 43.355 53.813 C44.17 53.411 44.17 53.411 45 53 C45.33 52.01 45.66 51.02 46 50 C35.66 50.9 25.909 52.249 15.941 55.195 C13 56 13 56 10 56 C8.737 50.925 7.73 46.272 8 41 C19.485 36.878 31.911 36.597 44 36 C44 35.34 44 34.68 44 34 C41.077 33.162 38.475 32.872 35.438 32.867 C34.126 32.864 34.126 32.864 32.788 32.861 C31.868 32.866 30.948 32.87 30 32.875 C29.063 32.877 28.125 32.879 27.159 32.881 C20.394 32.923 13.725 33.22 7 34 C4.96 29.07 3.593 25.42 4 20 C11.966 18.683 19.952 18.889 28 18.938 C29.457 18.943 30.914 18.947 32.371 18.951 C35.914 18.962 39.457 18.979 43 19 C39.318 14.617 34.423 14.637 29 14 C24.272 13.659 19.55 13.498 14.812 13.375 C13.574 13.336 12.336 13.298 11.061 13.258 C8.041 13.165 5.02 13.081 2 13 C1.34 8.71 0.68 4.42 0 0 Z " fill="#E9E9E8" transform="translate(495,845)"/></g><g><path d="M0 0 C23.333 -0.074 46.666 -0.068 70 0 C71.365 0.004 71.365 0.004 72.758 0.008 C83.954 0.04 95.15 0.091 106.345 0.186 C110.869 0.224 115.393 0.255 119.917 0.271 C124.198 0.286 128.479 0.32 132.76 0.368 C134.339 0.383 135.917 0.391 137.496 0.392 C139.663 0.394 141.828 0.421 143.994 0.454 C145.209 0.463 146.423 0.472 147.674 0.481 C151.927 1.145 154.949 2.949 158 6 C158.655 9.861 158.72 13.455 157.047 17.047 C152.914 22.605 147.532 23.694 141 25 C137.536 25.398 134.113 25.487 130.629 25.512 C129.629 25.53 128.628 25.548 127.598 25.566 C124.253 25.621 120.908 25.655 117.562 25.688 C115.174 25.721 112.786 25.755 110.398 25.789 C73.937 26.261 37.464 26.087 1 26 C1.017 24.19 1.017 24.19 1.035 22.344 C1.045 20.729 1.054 19.115 1.062 17.5 C1.071 16.709 1.079 15.917 1.088 15.102 C1.109 9.972 0.739 5.077 0 0 Z " fill="#FEFEFE" transform="translate(513,935)"/></g><g><path d="M0 0 C2.354 0.9 3.698 1.958 5.555 3.66 C6.249 4.289 6.944 4.918 7.66 5.566 C8.45 6.299 9.241 7.031 10.055 7.785 C11.991 9.578 13.928 11.37 15.867 13.16 C16.376 13.631 16.885 14.101 17.409 14.586 C20.798 17.699 24.281 20.649 27.867 23.535 C31.609 26.548 35.049 29.661 38.387 33.109 C40.169 34.9 42.024 36.564 43.93 38.223 C44.916 39.085 44.916 39.085 45.922 39.965 C47.447 41.267 48.997 42.54 50.562 43.793 C51.385 44.471 52.207 45.149 53.055 45.848 C53.818 46.457 54.581 47.067 55.367 47.695 C57.055 49.785 57.055 49.785 57.398 52.883 C57.017 56.099 56.224 57.435 54.055 59.785 C49.118 59.326 46.788 57.965 43.055 54.785 C43.26 55.836 43.465 56.886 43.676 57.969 C45.951 69.756 47.222 80.735 47.055 92.785 C45.405 93.115 43.755 93.445 42.055 93.785 C39.797 90.398 39.541 88.392 39.02 84.387 C38.85 83.102 38.681 81.816 38.506 80.492 C38.421 79.82 38.337 79.148 38.25 78.456 C37.997 76.451 37.732 74.448 37.467 72.445 C36.519 65.132 35.812 57.92 35.633 50.543 C34.452 44.909 29.475 42.015 25.055 38.785 C23.276 37.357 21.505 35.92 19.742 34.473 C18.836 33.744 17.93 33.016 16.996 32.266 C14.806 30.419 12.718 28.556 10.645 26.586 C10.068 26.039 9.492 25.492 8.898 24.929 C7.776 23.856 6.662 22.774 5.557 21.682 C2.475 18.732 0.397 16.767 -3.945 16.785 C-6.324 18.639 -8.221 20.385 -10.27 22.559 C-10.857 23.157 -11.444 23.755 -12.05 24.372 C-13.925 26.288 -15.779 28.223 -17.633 30.16 C-19.501 32.086 -21.374 34.007 -23.248 35.927 C-24.413 37.124 -25.574 38.324 -26.73 39.53 C-30.73 43.677 -30.73 43.677 -32.945 44.785 C-32.825 45.606 -32.825 45.606 -32.702 46.443 C-27.584 81.402 -27.584 81.402 -27.945 92.785 C-30.42 93.28 -30.42 93.28 -32.945 93.785 C-34.934 90.803 -35.307 89.57 -35.762 86.145 C-35.886 85.238 -36.011 84.332 -36.139 83.398 C-36.26 82.454 -36.382 81.509 -36.508 80.535 C-36.633 79.606 -36.759 78.676 -36.889 77.719 C-37.134 75.9 -37.376 74.08 -37.614 72.26 C-37.895 70.165 -38.209 68.074 -38.531 65.984 C-38.931 62.895 -39.046 59.96 -39.008 56.848 C-38.999 55.89 -38.99 54.932 -38.98 53.945 C-38.969 53.232 -38.957 52.52 -38.945 51.785 C-39.605 51.785 -40.265 51.785 -40.945 51.785 C-41.152 52.425 -41.358 53.064 -41.57 53.723 C-42.945 55.785 -42.945 55.785 -45.883 56.723 C-48.945 56.785 -48.945 56.785 -50.883 55.723 C-52.482 52.807 -51.75 50.95 -50.945 47.785 C-49.32 45.545 -49.32 45.545 -47.192 43.432 C-46 42.232 -46 42.232 -44.785 41.007 C-43.921 40.163 -43.058 39.319 -42.168 38.449 C-41.286 37.57 -40.405 36.691 -39.496 35.785 C-37.157 33.457 -34.806 31.142 -32.451 28.831 C-30.526 26.936 -28.615 25.028 -26.704 23.12 C-24.427 20.849 -22.141 18.587 -19.855 16.324 C-18.994 15.468 -18.132 14.612 -17.245 13.73 C-16.049 12.558 -16.049 12.558 -14.828 11.362 C-14.125 10.669 -13.422 9.977 -12.698 9.263 C-10.945 7.785 -10.945 7.785 -8.945 7.785 C-8.605 6.919 -8.605 6.919 -8.258 6.035 C-6.42 2.884 -3.948 -0.436 0 0 Z " fill="#262626" transform="translate(326.9453125,623.21484375)"/></g><g><path d="M0 0 C0.43 5.017 0.858 10.034 1.282 15.051 C1.426 16.756 1.572 18.462 1.718 20.167 C1.929 22.624 2.137 25.081 2.344 27.539 C2.409 28.296 2.475 29.052 2.543 29.831 C3.229 38.06 3.229 38.06 3 42 C1.262 43.695 1.262 43.695 -1.312 45.125 C-2.828 46.007 -2.828 46.007 -4.375 46.906 C-5.237 47.397 -5.237 47.397 -6.117 47.898 C-8.949 49.555 -11.695 51.34 -14.455 53.113 C-23.326 58.803 -32.343 64.225 -41.439 69.547 C-42.743 70.311 -42.743 70.311 -44.074 71.09 C-45.324 71.817 -45.324 71.817 -46.599 72.558 C-49.552 74.331 -52.398 76.246 -55.222 78.217 C-57 79 -57 79 -59.133 78.762 C-62.067 77.565 -62.535 75.746 -63.75 72.875 C-67.378 62.966 -66.433 52.394 -66 42 C-62.55 42 -61.432 42.786 -58.5 44.5 C-51.653 47.968 -46.107 48.07 -38.73 46.148 C-28.167 42.533 -20.876 36.711 -15.391 26.977 C-13.387 22.688 -11.89 18.244 -10.331 13.779 C-8.858 9.75 -5.135 0 0 0 Z " fill="#E9E9E8" transform="translate(760,461)"/></g><g><path d="M0 0 C0.841 -0.021 1.682 -0.041 2.549 -0.062 C6.033 -0.085 8.633 -0.058 11.832 1.391 C17.628 8.67 15.418 27.06 15.5 36.188 C15.513 36.963 15.526 37.738 15.539 38.536 C15.543 40.442 15.437 42.348 15.312 44.25 C11.533 48.03 5.038 46.664 -0.062 46.688 C-1.308 46.72 -2.553 46.753 -3.836 46.787 C-5.63 46.798 -5.63 46.798 -7.461 46.809 C-8.558 46.822 -9.656 46.836 -10.787 46.849 C-13.688 46.25 -13.688 46.25 -16.011 44.061 C-17.784 41.089 -18.356 39.131 -18.734 35.715 C-18.857 34.657 -18.979 33.599 -19.105 32.51 C-19.215 31.413 -19.325 30.317 -19.438 29.188 C-19.563 28.118 -19.688 27.049 -19.816 25.947 C-20.413 20.519 -20.828 15.087 -21.016 9.629 C-21.051 8.667 -21.086 7.704 -21.122 6.713 C-20.688 4.25 -20.688 4.25 -18.864 2.456 C-13.334 -0.608 -6.185 0.038 0 0 Z " fill="#323132" transform="translate(332.6875,670.75)"/></g><g><path d="M0 0 C1.629 0.824 1.629 0.824 3.816 2.324 C3.31 4.493 2.817 6.324 1.816 8.324 C1.102 8.166 0.388 8.007 -0.348 7.844 C-6.985 6.628 -13.86 6.047 -19.629 10.008 C-26.763 16.049 -30.8 23.092 -31.637 32.477 C-32.319 45.189 -29.568 55.41 -21.309 65.449 C-16.495 70.355 -11.764 73.398 -4.809 73.887 C0.75 73.57 5.396 71.686 9.816 68.324 C18.131 58.176 18.561 47.187 17.609 34.582 C16.467 26.726 12.285 19.647 6.574 14.176 C5.994 13.565 5.414 12.954 4.816 12.324 C5.066 9.574 5.066 9.574 5.816 7.324 C7.441 6.512 7.441 6.512 9.816 6.324 C14.579 9.719 17.317 13.154 20.066 18.262 C20.404 18.857 20.742 19.452 21.09 20.064 C25.183 27.437 26.158 33.35 26.129 41.637 C26.145 42.536 26.161 43.435 26.178 44.361 C26.185 54.574 22.965 64.612 16.031 72.305 C10.102 77.833 3.804 81.388 -4.371 82.012 C-13.555 81.625 -22.48 76.636 -28.746 70.074 C-38.696 57.567 -40.512 42.752 -39.184 27.324 C-37.274 17.481 -31.749 9.506 -23.496 3.887 C-22.077 3.002 -20.64 2.145 -19.184 1.324 C-18.566 0.948 -17.949 0.571 -17.312 0.184 C-12.259 -1.856 -5.167 -1.599 0 0 Z " fill="#323132" transform="translate(302.18359375,746.67578125)"/></g><g><path d="M0 0 C0.66 0 1.32 0 2 0 C2.037 0.797 2.075 1.593 2.113 2.414 C2.48 8.318 2.786 12.969 6 18 C10.734 18.552 10.734 18.552 14.75 16.5 C16.46 13.08 17.737 9.61 19 6 C20.65 6 22.3 6 24 6 C24.66 4.68 25.32 3.36 26 2 C28.119 10.861 24.616 18.81 20.52 26.668 C17.203 31.758 12.054 36.638 6 38 C1.287 38.449 -0.965 38.528 -5.188 36.375 C-12.714 30.019 -12.714 30.019 -13.414 25.074 C-13.586 18.408 -13.492 10.889 -10 5 C-6.5 3.562 -6.5 3.562 -3 3 C-1.227 1.48 -1.227 1.48 0 0 Z " fill="#E9E9E8" transform="translate(619,355)"/></g><g><path d="M0 0 C4.328 2.302 8.355 5.073 11.266 9.051 C11.078 12.363 11.078 12.363 10.266 15.051 C6.129 15.051 5.568 14.898 2.516 12.551 C1.902 12.087 1.288 11.623 0.656 11.145 C0.197 10.784 -0.262 10.423 -0.734 10.051 C-0.899 11.047 -0.899 11.047 -1.066 12.062 C-2.143 18.058 -3.215 22.445 -7.547 26.926 C-9.734 28.051 -9.734 28.051 -12.734 28.113 C-16.92 26.631 -17.784 25.021 -19.734 21.051 C-20.602 17.743 -21.227 14.432 -21.734 11.051 C-22.394 11.711 -23.054 12.371 -23.734 13.051 C-25.054 13.051 -26.374 13.051 -27.734 13.051 C-28.609 10.363 -28.609 10.363 -28.734 7.051 C-21.11 -0.945 -10.619 -3.686 0 0 Z " fill="#262626" transform="translate(702.734375,346.94921875)"/></g><g><path d="M0 0 C4.988 2.398 9.004 6.339 12 11 C12.375 13.938 12.375 13.938 12 16 C11.092 16.144 10.185 16.289 9.25 16.438 C4.998 18.482 4.444 20.626 2.859 24.906 C2 27 2 27 0 29 C-3.438 29.375 -3.438 29.375 -7 29 C-9.983 26.116 -10.959 23.223 -11.098 19.082 C-11.086 18.003 -11.074 16.924 -11.062 15.812 C-11.053 14.726 -11.044 13.639 -11.035 12.52 C-11.024 11.688 -11.012 10.857 -11 10 C-13.97 12.475 -13.97 12.475 -17 15 C-18.32 14.34 -19.64 13.68 -21 13 C-21.438 10.875 -21.438 10.875 -21 8 C-15.03 1.274 -8.886 -1.114 0 0 Z " fill="#262626" transform="translate(632,345)"/></g><g><path d="M0 0 C4.679 3.056 8.949 6.25 12 11 C12.312 14.125 12.312 14.125 12 17 C11.34 17.66 10.68 18.32 10 19 C5.661 18.755 3.652 17.108 0.625 14.125 C-5.859 8.184 -11.173 6.435 -19.914 6.633 C-24.556 7.185 -30.567 8.567 -34 12 C-36 12.041 -38 12.043 -40 12 C-40.938 9.375 -40.938 9.375 -41 6 C-31.848 -6.788 -12.623 -6.56 0 0 Z " fill="#262626" transform="translate(714,298)"/></g><g><path d="M0 0 C0.577 0.227 1.155 0.454 1.75 0.688 C1.316 5.115 -1.727 7.56 -4.688 10.562 C-10.955 17.141 -16.236 24.122 -21.25 31.688 C-21.914 32.689 -22.578 33.691 -23.262 34.723 C-29.59 44.67 -34.874 55.205 -40.25 65.688 C-41.57 65.357 -42.89 65.028 -44.25 64.688 C-43.746 59.256 -42.288 55.032 -39.75 50.188 C-39.395 49.497 -39.039 48.806 -38.673 48.094 C-12.676 -1.761 -12.676 -1.761 0 0 Z " fill="#323132" transform="translate(862.25,562.3125)"/></g><g><path d="M0 0 C8.072 -0.341 15.321 0.626 23.188 2.375 C31.649 4.171 39.992 5.678 48.598 6.543 C51.725 6.963 54.653 7.681 57.701 8.476 C62.573 9.587 67.548 10.116 72.5 10.75 C73.775 10.916 75.051 11.083 76.365 11.254 C80.066 11.735 83.769 12.208 87.472 12.678 C90.154 13.02 92.835 13.362 95.517 13.705 C121.653 17.041 147.801 20.198 174 23 C174 23.33 174 23.66 174 24 C157.337 24.559 141.15 22.819 124.625 20.812 C122.599 20.572 120.573 20.333 118.548 20.094 C102.458 18.195 86.378 16.218 70.312 14.125 C69.518 14.022 68.724 13.919 67.906 13.813 C65.725 13.529 63.544 13.238 61.363 12.945 C60.17 12.786 58.977 12.626 57.747 12.461 C55 12 55 12 53 11 C51.418 10.735 49.83 10.514 48.238 10.316 C47.284 10.193 46.329 10.07 45.346 9.943 C43.343 9.692 41.341 9.442 39.338 9.193 C34.043 8.508 29.125 7.547 24 6 C21.922 5.651 19.839 5.338 17.75 5.062 C11.67 4.182 5.879 2.767 0 1 C0 0.67 0 0.34 0 0 Z " fill="#323132" transform="translate(563,671)"/></g><g><path d="M0 0 C1.938 0.312 1.938 0.312 4 1 C5 4 5 4 4.107 6.293 C3.637 7.177 3.168 8.062 2.684 8.973 C2.166 9.956 1.648 10.938 1.115 11.951 C0.562 12.978 0.008 14.005 -0.562 15.062 C-1.089 16.062 -1.616 17.062 -2.158 18.092 C-5.571 24.521 -9.19 30.798 -13 37 C-19.218 35.957 -21.224 32.825 -25 28 C-25.514 27.37 -26.029 26.739 -26.559 26.09 C-28.654 23.389 -29.947 21.501 -30.312 18.062 C-30.209 17.382 -30.106 16.701 -30 16 C-28.68 15.34 -27.36 14.68 -26 14 C-25.457 14.687 -24.915 15.374 -24.355 16.082 C-23.64 16.983 -22.925 17.884 -22.188 18.812 C-21.48 19.706 -20.772 20.599 -20.043 21.52 C-18.432 23.475 -16.804 25.232 -15 27 C-14.723 26.431 -14.447 25.862 -14.161 25.275 C-12.885 22.659 -11.599 20.048 -10.312 17.438 C-9.877 16.542 -9.442 15.647 -8.994 14.725 C-6.379 9.436 -3.575 4.696 0 0 Z " fill="#323132" transform="translate(251,752)"/></g><g><path d="M0 0 C2.75 0.25 2.75 0.25 5 1 C4.59 6.167 3.335 8.257 -0.562 11.625 C-4.811 15.221 -8.823 17.982 -14 20 C-14.696 20.296 -15.392 20.593 -16.109 20.898 C-23.488 23.75 -31.121 24.287 -38.625 21.562 C-42 20 -42 20 -43 19 C-43.041 17.334 -43.043 15.666 -43 14 C-41.684 14.046 -40.368 14.093 -39.012 14.141 C-25.217 14.485 -14.69 13.544 -4 4 C-3.278 3.196 -2.556 2.391 -1.812 1.562 C-1.214 1.047 -0.616 0.531 0 0 Z " fill="#262626" transform="translate(696,423)"/></g><g><path d="M0 0 C11.79 8.577 16.687 24.237 19.312 38 C22.069 59.496 19.869 80.187 11 100 C10.01 100.99 10.01 100.99 9 102 C9.877 97.524 10.762 93.055 11.766 88.605 C17.911 61.285 17.528 30.682 2.625 6.125 C1.871 4.984 1.871 4.984 1.102 3.82 C0 2 0 2 0 0 Z " fill="#E9E9E8" transform="translate(941,314)"/></g><g><path d="M0 0 C2.64 0 5.28 0 8 0 C8.33 4.62 8.66 9.24 9 14 C6.36 14 3.72 14 1 14 C-0.206 9.328 -0.094 4.785 0 0 Z " fill="#E9E9E8" transform="translate(319,696)"/></g><g><path d="M0 0 C17.37 -0.445 34.677 0.878 52 2 C52 2.66 52 3.32 52 4 C15.978 4.345 15.978 4.345 0 1 C0 0.67 0 0.34 0 0 Z " fill="#262626" transform="translate(738,695)"/></g><g><path d="M0 0 C2.64 0 5.28 0 8 0 C8 4.62 8 9.24 8 14 C5.69 14 3.38 14 1 14 C0 13 0 13 -0.098 10.059 C-0.086 8.864 -0.074 7.669 -0.062 6.438 C-0.053 5.24 -0.044 4.042 -0.035 2.809 C-0.024 1.882 -0.012 0.955 0 0 Z " fill="#F3F3F3" transform="translate(334,696)"/></g><g><path d="M0 0 C1.109 -0.001 1.109 -0.001 2.241 -0.002 C19.886 -0 37.462 1.019 55.062 2.188 C55.062 2.518 55.062 2.847 55.062 3.188 C41.288 4.086 27.834 4.149 14.062 3.188 C14.062 2.857 14.062 2.528 14.062 2.188 C10.112 2.163 6.161 2.145 2.209 2.133 C0.203 2.125 -1.803 2.112 -3.809 2.1 C-5.065 2.096 -6.322 2.093 -7.617 2.09 C-8.78 2.085 -9.942 2.079 -11.14 2.074 C-13.893 1.994 -13.893 1.994 -15.938 3.188 C-16.597 2.528 -17.257 1.867 -17.938 1.188 C-12.272 -0.701 -5.943 -0.006 0 0 Z " fill="#434245" transform="translate(134.9375,566.8125)"/></g><g><path d="M0 0 C11.123 -0.326 21.851 0.684 32.875 2 C34.545 2.193 36.216 2.386 37.887 2.578 C41.925 3.044 45.963 3.519 50 4 C50 4.33 50 4.66 50 5 C38.191 5.367 26.63 4.861 14.875 3.625 C13.636 3.499 12.397 3.373 11.12 3.243 C9.386 3.049 9.386 3.049 7.617 2.852 C6.582 2.736 5.547 2.621 4.48 2.502 C2 2 2 2 0 0 Z " fill="#262626" transform="translate(687,690)"/></g><g><path d="M0 0 C2.64 0 5.28 0 8 0 C8 3.96 8 7.92 8 12 C5.36 12 2.72 12 0 12 C0 8.04 0 4.08 0 0 Z " fill="#F3F3F3" transform="translate(318,678)"/></g><g><path d="M0 0 C2.333 -0.042 4.667 -0.041 7 0 C8 1 8 1 8.098 3.504 C8.086 4.513 8.074 5.523 8.062 6.562 C8.053 7.574 8.044 8.586 8.035 9.629 C8.024 10.411 8.012 11.194 8 12 C5.667 12.042 3.333 12.041 1 12 C0 11 0 11 -0.098 8.496 C-0.086 7.487 -0.074 6.477 -0.062 5.438 C-0.053 4.426 -0.044 3.414 -0.035 2.371 C-0.024 1.589 -0.012 0.806 0 0 Z " fill="#FEFEFE" transform="translate(332,678)"/></g><g><path d="M0 0 C8.484 -0.337 16.672 0.697 25.062 1.875 C26.406 2.051 27.749 2.227 29.092 2.402 C30.982 2.663 30.982 2.663 32.91 2.93 C34.629 3.165 34.629 3.165 36.383 3.406 C37.678 3.7 37.678 3.7 39 4 C39.495 4.99 39.495 4.99 40 6 C26.447 6.47 12.937 5.191 0 1 C0 0.67 0 0.34 0 0 Z " fill="#262626" transform="translate(607,679)"/></g><g><path d="M0 0 C1.676 4.091 0.241 7.715 -0.938 11.75 C-1.133 12.447 -1.328 13.145 -1.529 13.863 C-2.011 15.578 -2.504 17.289 -3 19 C-3.99 19 -4.98 19 -6 19 C-7.001 14.87 -7.583 11.23 -7 7 C-4.93 4.345 -2.574 2.161 0 0 Z " fill="#F3F3F3" transform="translate(499,818)"/></g><g><path d="M0 0 C2.5 0.25 2.5 0.25 4.5 2.25 C4.865 5.096 4.902 6.636 3.312 9.062 C0.867 10.665 -0.634 10.691 -3.5 10.25 C-5.5 7.25 -5.5 7.25 -5.25 4.688 C-4.241 1.408 -3.474 0.347 0 0 Z " fill="#323132" transform="translate(684.5,589.75)"/></g><g><path d="M0 0 C2.5 0.25 2.5 0.25 4.5 2.25 C4.868 5.12 4.875 6.658 3.312 9.125 C1.5 10.25 1.5 10.25 -1.125 10 C-3.5 9.25 -3.5 9.25 -4.5 8.25 C-4.688 5.312 -4.688 5.312 -4.5 2.25 C-2.5 0.25 -2.5 0.25 0 0 Z " fill="#323132" transform="translate(672.5,631.75)"/></g><g><path d="M0 0 C13.708 -0.127 27.319 0.115 41 1 C41 1.33 41 1.66 41 2 C36.93 2.195 32.859 2.373 28.787 2.537 C27.407 2.595 26.027 2.657 24.647 2.724 C16.135 3.132 8.306 3.018 0 1 C0 0.67 0 0.34 0 0 Z " fill="#1B1A1D" transform="translate(460,960)"/></g><g><path d="M0 0 C2.979 -0.027 5.958 -0.047 8.938 -0.062 C9.788 -0.071 10.638 -0.079 11.514 -0.088 C12.323 -0.091 13.131 -0.094 13.965 -0.098 C14.714 -0.103 15.463 -0.108 16.234 -0.114 C18 0 18 0 19 1 C21.016 1.234 23.038 1.413 25.062 1.562 C26.167 1.646 27.272 1.73 28.41 1.816 C29.265 1.877 30.119 1.938 31 2 C31 2.33 31 2.66 31 3 C20.445 3.25 10.434 2.679 0 1 C0 0.67 0 0.34 0 0 Z " fill="#434245" transform="translate(463,966)"/></g><g><path d="M0 0 C2.521 -0.027 5.042 -0.047 7.562 -0.062 C8.619 -0.075 8.619 -0.075 9.697 -0.088 C14.24 -0.109 18.518 0.252 23 1 C23 1.66 23 2.32 23 3 C11.615 2.505 11.615 2.505 0 2 C0 1.34 0 0.68 0 0 Z " fill="#434245" transform="translate(269,951)"/></g><g><path d="M0 0 C3.396 -0.058 6.791 -0.094 10.188 -0.125 C11.147 -0.142 12.107 -0.159 13.096 -0.176 C14.027 -0.182 14.958 -0.189 15.918 -0.195 C16.772 -0.206 17.625 -0.216 18.505 -0.227 C21.307 0.028 23.447 0.845 26 2 C26 2.66 26 3.32 26 4 C23.36 4 20.72 4 18 4 C18.33 3.01 18.66 2.02 19 1 C12.73 1 6.46 1 0 1 C0 0.67 0 0.34 0 0 Z " fill="#323132" transform="translate(514,877)"/></g><g><path d="M0 0 C0.99 0 1.98 0 3 0 C3 0.66 3 1.32 3 2 C3.99 2.33 4.98 2.66 6 3 C5.34 3.557 4.68 4.114 4 4.688 C1.772 6.827 1.772 6.827 1.688 9.625 C1.87 12.012 1.87 12.012 3 14 C1.68 14 0.36 14 -1 14 C-1.33 14.66 -1.66 15.32 -2 16 C-1.34 10.72 -0.68 5.44 0 0 Z " fill="#D9D9D9" transform="translate(610,346)"/></g><g><path d="M0 0 C7.427 -0.103 14.635 0.001 22 1 C22 1.33 22 1.66 22 2 C17.666 3.115 13.763 2.98 9.312 2.688 C8.636 2.652 7.96 2.617 7.264 2.58 C2.246 2.246 2.246 2.246 0 0 Z " fill="#262626" transform="translate(670,688)"/></g><g><path d="M0 0 C0 0.33 0 0.66 0 1 C-0.742 1.144 -1.485 1.289 -2.25 1.438 C-4.863 1.915 -4.863 1.915 -6.781 2.594 C-9.789 3.144 -12.253 2.616 -15.25 2.062 C-16.328 1.868 -17.405 1.673 -18.516 1.473 C-19.335 1.317 -20.155 1.161 -21 1 C-21 0.67 -21 0.34 -21 0 C-13.838 -1.194 -7.19 -1.438 0 0 Z " fill="#434245" transform="translate(615,678)"/></g><g><path d="M0 0 C7.547 0.403 14.74 0.822 22 3 C22 3.33 22 3.66 22 4 C14.067 4.368 7.465 3.775 0 1 C0 0.67 0 0.34 0 0 Z " fill="#1B1A1D" transform="translate(579,674)"/></g><g><path d="M0 0 C4.512 -0.366 4.512 -0.366 6.75 1.312 C9.678 5.266 9.077 9.322 9 14 C6.397 11.288 6.005 10.109 5.812 6.25 C5.874 5.178 5.936 4.105 6 3 C2.371 2.849 2.371 2.849 -1 4 C-0.67 2.68 -0.34 1.36 0 0 Z " fill="#434245" transform="translate(654,340)"/></g><g><path d="M0 0 C0.33 0 0.66 0 1 0 C1.993 9.359 2.107 18.604 2 28 C1.67 28 1.34 28 1 28 C0.939 27.325 0.879 26.649 0.816 25.953 C0.733 25.061 0.649 24.169 0.562 23.25 C0.481 22.368 0.4 21.487 0.316 20.578 C0.085 18.091 0.085 18.091 -0.562 16.125 C-1.217 12.946 -0.831 9.973 -0.562 6.75 C-0.461 5.487 -0.359 4.223 -0.254 2.922 C-0.17 1.958 -0.086 0.993 0 0 Z " fill="#6B676C" transform="translate(954,607)"/></g><g><path d="M0 0 C3.459 1.249 6.147 2.675 9 5 C7.35 5 5.7 5 4 5 C3.34 6.65 2.68 8.3 2 10 C1.34 10 0.68 10 0 10 C0 6.7 0 3.4 0 0 Z " fill="#D9D9D9" transform="translate(606,396)"/></g><g><path d="M0 0 C0.33 0 0.66 0 1 0 C-0.316 16.316 -0.316 16.316 -5 21 C-4.424 13.65 -2.29 6.986 0 0 Z " fill="#1B1A1D" transform="translate(652,360)"/></g><g><path d="M0 0 C0 0.66 0 1.32 0 2 C-2.457 2.389 -4.914 2.761 -7.375 3.125 C-8.423 3.293 -8.423 3.293 -9.492 3.465 C-11.318 3.728 -13.16 3.872 -15 4 C-15.66 3.34 -16.32 2.68 -17 2 C-11.216 -0.012 -6.098 -0.221 0 0 Z " fill="#434245" transform="translate(558,910)"/></g><g><path d="M0 0 C0.66 0.33 1.32 0.66 2 1 C0.609 2.588 -0.788 4.17 -2.188 5.75 C-2.965 6.632 -3.742 7.513 -4.543 8.422 C-6.885 10.879 -9.302 12.949 -12 15 C-10.385 11.101 -7.721 8.287 -4.875 5.25 C-4.407 4.743 -3.939 4.237 -3.457 3.715 C-2.309 2.473 -1.155 1.236 0 0 Z " fill="#434245" transform="translate(856,565)"/></g><g><path d="M0 0 C0 0.33 0 0.66 0 1 C3.96 1.33 7.92 1.66 12 2 C12 2.33 12 2.66 12 3 C-4.708 3.185 -4.708 3.185 -13 2 C-13 1.67 -13 1.34 -13 1 C-8.614 0.298 -4.442 -0.108 0 0 Z " fill="#535052" transform="translate(276,582)"/></g><g><path d="M0 0 C0 0.33 0 0.66 0 1 C-6.93 0.67 -13.86 0.34 -21 0 C-21 -0.33 -21 -0.66 -21 -1 C-13.424 -2.515 -7.253 -2.418 0 0 Z " fill="#535052" transform="translate(454,966)"/></g><g><path d="M0 0 C6.404 -0.236 11.846 0.177 18 2 C18 2.33 18 2.66 18 3 C11.64 3.202 6.148 2.628 0 1 C0 0.67 0 0.34 0 0 Z " fill="#111013" transform="translate(607,679)"/></g><g><path d="M0 0 C0.33 0 0.66 0 1 0 C3.129 7.206 0.107 12.453 -3 19 C-4.359 14.922 -3.145 11.823 -2.062 7.812 C-1.867 7.063 -1.672 6.313 -1.471 5.541 C-0.988 3.692 -0.495 1.846 0 0 Z " fill="#BDBDBE" transform="translate(954,397)"/></g><g><path d="M0 0 C1.742 0.153 1.742 0.153 3.52 0.309 C4.4 0.392 5.28 0.476 6.188 0.562 C6.188 0.893 6.188 1.222 6.188 1.562 C-0.026 2.293 -5.653 2.794 -11.812 1.562 C-11.812 1.232 -11.812 0.903 -11.812 0.562 C-7.715 -0.479 -4.198 -0.382 0 0 Z " fill="#323132" transform="translate(653.8125,684.4375)"/></g><g><path d="M0 0 C2.187 3.281 2.544 5.331 3.125 9.188 C3.293 10.274 3.46 11.361 3.633 12.48 C3.754 13.312 3.875 14.143 4 15 C3.01 15.495 3.01 15.495 2 16 C1.471 13.71 0.952 11.418 0.438 9.125 C0.147 7.849 -0.143 6.573 -0.441 5.258 C-1 2 -1 2 0 0 Z " fill="#D9D9D9" transform="translate(728,279)"/></g><g><path d="M0 0 C0.33 0 0.66 0 1 0 C1.037 0.724 1.075 1.449 1.113 2.195 C1.499 7.862 1.985 12.149 5 17 C1.839 15.63 1.007 15.011 -1 12 C-0.977 9.082 -0.977 9.082 -0.625 5.812 C-0.514 4.726 -0.403 3.639 -0.289 2.52 C-0.194 1.688 -0.098 0.857 0 0 Z " fill="#F3F3F3" transform="translate(607,371)"/></g><g><path d="M0 0 C2.64 0 5.28 0 8 0 C7.381 0.371 6.762 0.742 6.125 1.125 C3.449 3.486 2.906 5.601 2 9 C-0.29 5.565 -0.178 4.015 0 0 Z " fill="#C8C8C9" transform="translate(499,865)"/></g><g><path d="M0 0 C0 0.33 0 0.66 0 1 C-4.62 1.66 -9.24 2.32 -14 3 C-14.33 2.34 -14.66 1.68 -15 1 C-9.458 -0.963 -5.791 -1.016 0 0 Z " fill="#D9D9D9" transform="translate(530,895)"/></g><g><path d="M0 0 C0 0.66 0 1.32 0 2 C-1.244 2.535 -2.496 3.052 -3.75 3.562 C-4.446 3.853 -5.142 4.143 -5.859 4.441 C-8.3 5.078 -9.64 4.802 -12 4 C-10.377 3.329 -8.751 2.663 -7.125 2 C-6.22 1.629 -5.315 1.258 -4.383 0.875 C-2 0 -2 0 0 0 Z " fill="#F3F3F3" transform="translate(527,916)"/></g><g><path d="M0 0 C0 3 0 3 -2.375 5.5 C-3.241 6.325 -4.107 7.15 -5 8 C-5.66 8.99 -6.32 9.98 -7 11 C-7.438 8.875 -7.438 8.875 -7 6 C-4.873 3.724 -2.498 1.854 0 0 Z " fill="#262626" transform="translate(618,347)"/></g><g><path d="M0 0 C3.175 2.402 5.858 4.617 8 8 C8 8.66 8 9.32 8 10 C7.01 10 6.02 10 5 10 C3.613 8.32 3.613 8.32 2.312 6.125 C1.876 5.406 1.439 4.686 0.988 3.945 C0 2 0 2 0 0 Z " fill="#D9D9D9" transform="translate(941,314)"/></g><g><path d="M0 0 C0.66 0 1.32 0 2 0 C2.33 3.3 2.66 6.6 3 10 C2.01 10.495 2.01 10.495 1 11 C-0.203 8.595 -0.101 7.05 -0.062 4.375 C-0.053 3.558 -0.044 2.74 -0.035 1.898 C-0.024 1.272 -0.012 0.645 0 0 Z " fill="#D9D9D9" transform="translate(645,390)"/></g><g><path d="M0 0 C1.671 0.062 1.671 0.062 3.375 0.125 C2.571 0.465 2.571 0.465 1.75 0.812 C-1.41 2.559 -3.893 4.765 -6.625 7.125 C-5.84 2.156 -5.494 0.189 0 0 Z " fill="#FEFEFE" transform="translate(734.625,346.875)"/></g><g><path d="M0 0 C0.99 0.33 1.98 0.66 3 1 C0.69 3.31 -1.62 5.62 -4 8 C-4.66 7.34 -5.32 6.68 -6 6 C-4.02 4.02 -2.04 2.04 0 0 Z " fill="#F3F3F3" transform="translate(790,333)"/></g><g><path d="M0 0 C0.33 0.66 0.66 1.32 1 2 C1.99 1.67 2.98 1.34 4 1 C4.33 1.99 4.66 2.98 5 4 C4.67 4.66 4.34 5.32 4 6 C2.68 5.67 1.36 5.34 0 5 C0 3.35 0 1.7 0 0 Z " fill="#434245" transform="translate(818,622)"/></g><g><path d="M0 0 C0 4.39 -2.128 5.769 -5 9 C-5.33 8.01 -5.66 7.02 -6 6 C-4.02 4.02 -2.04 2.04 0 0 Z " fill="#323132" transform="translate(860,567)"/></g></svg>