<svg xmlns="http://www.w3.org/2000/svg" viewBox="0 0 1024 1024" preserveAspectRatio="xMidYMid meet"><g><path d="M0 0 C337.92 0 675.84 0 1024 0 C1024 337.92 1024 675.84 1024 1024 C686.08 1024 348.16 1024 0 1024 C0 686.08 0 348.16 0 0 Z " fill="#FEFEFE" transform="translate(0,0)"/></g><g><path d="M0 0 C1.65 0 3.3 0 5 0 C5 25.08 5 50.16 5 76 C11.27 76 17.54 76 24 76 C27.157 83.554 29.687 91.15 32 99 C32.219 99.739 32.437 100.479 32.663 101.24 C34.117 106.158 35.562 111.078 37 116 C41.95 116.33 46.9 116.66 52 117 C52.33 143.73 52.66 170.46 53 198 C58.445 193.235 62.561 189.433 66.625 183.75 C67.122 183.072 67.62 182.394 68.132 181.695 C69.2 180.237 70.263 178.777 71.323 177.313 C99.17 138.892 99.17 138.892 108 137 C115.552 135.974 121.068 138.012 128.012 140.867 C131.841 142.319 133.992 142.835 138 142 C142.686 137.801 146.101 132.851 149.719 127.742 C152.576 124.308 154.971 122.333 159.43 121.602 C165.141 121.656 168.857 122.58 174 125 C176.489 125.474 176.489 125.474 179 125 C180.887 123.317 180.887 123.317 182.438 120.812 C183.114 119.824 183.791 118.835 184.488 117.816 C185.327 116.545 186.164 115.273 187 114 C188.753 111.351 190.508 108.704 192.266 106.057 C193.484 104.218 194.696 102.375 195.9 100.527 C205.772 85.508 205.772 85.508 213 83 C218.809 82.203 223.096 84.06 228.422 86.09 C231.564 87.199 233.713 87.688 237 87 C241.219 83.814 244.332 80.579 247.5 76.312 C248.368 75.158 249.236 74.005 250.105 72.852 C250.569 72.233 251.032 71.615 251.509 70.978 C254.241 67.353 257.027 63.771 259.812 60.188 C260.402 59.428 260.992 58.669 261.6 57.886 C266.181 52.007 270.855 46.208 275.573 40.438 C279.028 36.211 282.42 31.943 285.73 27.602 C287 26 287 26 289 24 C291.625 23.875 291.625 23.875 294 24 C293.514 28.568 291.939 30.52 288.75 33.75 C284.31 38.451 280.327 43.336 276.438 48.5 C272.219 54.093 267.931 59.587 263.453 64.977 C261.448 67.448 259.489 69.941 257.547 72.461 C256.931 73.26 256.316 74.058 255.681 74.881 C254.466 76.462 253.255 78.046 252.047 79.633 C243.069 91.31 243.069 91.31 238 93 C233.413 93.306 230.853 93.379 226.625 91.5 C221.918 89.552 218.021 89.049 213 90 C206.532 93.128 202.915 100.254 199.214 106.088 C196.798 109.892 194.342 113.667 191.875 117.438 C191.384 118.207 190.894 118.976 190.388 119.769 C183.715 129.962 183.715 129.962 177.875 131.594 C173.178 131.359 170.236 130.163 166 128 C161.98 127.506 159.913 127.376 156.535 129.684 C153.885 132.105 152.018 134.538 150 137.5 C146.951 141.975 143.914 145.543 139 148 C133.409 148.667 128.831 148.138 123.625 146 C117.893 143.754 112.052 142.348 106 144 C99.84 148.181 95.55 153.857 91.312 159.875 C90.099 161.56 88.884 163.243 87.668 164.926 C87.06 165.771 86.452 166.616 85.826 167.487 C81.472 173.48 76.932 179.333 72.398 185.19 C71.145 186.812 69.9 188.441 68.656 190.07 C59.252 202.187 59.252 202.187 52 204 C52 250.86 52 297.72 52 346 C53.65 346 55.3 346 57 346 C57 307.39 57 268.78 57 229 C68.22 229 79.44 229 91 229 C91 208.87 91 188.74 91 168 C102.55 168 114.1 168 126 168 C126 188.13 126 208.26 126 229 C137.474 228.96 137.474 228.96 148.947 228.91 C150.38 228.907 151.813 228.904 153.246 228.902 C153.997 228.897 154.747 228.892 155.521 228.887 C157.347 228.887 159.174 228.938 161 229 C162 230 162 230 162.123 232.388 C162.122 233.456 162.121 234.524 162.12 235.625 C162.122 236.846 162.123 238.068 162.124 239.326 C162.121 240.692 162.117 242.058 162.114 243.424 C162.113 244.853 162.113 246.281 162.114 247.71 C162.114 251.6 162.108 255.491 162.101 259.381 C162.095 263.442 162.095 267.504 162.093 271.565 C162.09 279.261 162.082 286.957 162.072 294.652 C162.061 303.412 162.055 312.171 162.05 320.93 C162.04 338.953 162.022 356.977 162 375 C163.32 375 164.64 375 166 375 C166 319.23 166 263.46 166 206 C175.9 206 185.8 206 196 206 C196 198.74 196 191.48 196 184 C215.47 184 234.94 184 255 184 C255 191.26 255 198.52 255 206 C265.23 206 275.46 206 286 206 C286.33 256.82 286.66 307.64 287 360 C291.455 355.05 291.455 355.05 296 350 C297.158 348.885 298.315 347.77 299.508 346.621 C303.344 342.108 302.889 336.723 302.875 331.062 C302.906 329.464 302.906 329.464 302.938 327.834 C302.984 325.223 302.996 322.611 303 320 C308.94 320 314.88 320 321 320 C321 326.27 321 332.54 321 339 C322.371 338.953 323.743 338.906 325.156 338.857 C330.28 338.693 335.405 338.591 340.531 338.506 C342.743 338.461 344.954 338.399 347.165 338.321 C367.918 337.605 367.918 337.605 373.977 343.035 C375.358 344.657 376.702 346.311 378 348 C379.424 349.379 380.872 350.734 382.344 352.062 C383.73 353.374 385.115 354.687 386.5 356 C392.592 361.756 398.734 367.434 405 373 C415.638 382.493 415.638 382.493 420 387 C419.67 387.99 419.34 388.98 419 390 C417.35 390 415.7 390 414 390 C414 414.09 414 438.18 414 463 C424.56 463 435.12 463 446 463 C445 468 445 468 444 469 C442.073 469.098 440.143 469.124 438.214 469.124 C436.312 469.128 436.312 469.128 434.372 469.131 C432.943 469.128 431.515 469.126 430.087 469.123 C428.58 469.124 427.073 469.125 425.566 469.127 C421.386 469.13 417.206 469.126 413.026 469.122 C408.494 469.119 403.961 469.121 399.428 469.123 C391.472 469.125 383.515 469.123 375.558 469.119 C363.727 469.113 351.895 469.113 340.064 469.114 C320.165 469.115 300.265 469.112 280.366 469.106 C260.654 469.1 240.941 469.096 221.228 469.095 C220.004 469.095 218.78 469.095 217.519 469.095 C211.303 469.094 205.087 469.094 198.871 469.094 C154.803 469.092 110.734 469.085 66.666 469.075 C55.98 469.073 45.293 469.071 34.606 469.069 C33.612 469.068 33.612 469.068 32.598 469.068 C1.133 469.062 -30.332 469.058 -61.797 469.055 C-63.116 469.055 -64.435 469.055 -65.794 469.055 C-79.041 469.053 -92.287 469.052 -105.534 469.051 C-132.521 469.048 -159.508 469.045 -186.495 469.042 C-187.736 469.042 -188.977 469.042 -190.255 469.042 C-273.17 469.033 -356.085 469.017 -439 469 C-439.33 467.02 -439.66 465.04 -440 463 C-426.8 463 -413.6 463 -400 463 C-400 457.72 -400 452.44 -400 447 C-402.31 446.34 -404.62 445.68 -407 445 C-409.145 443.195 -409.145 443.195 -410.812 441.125 C-411.657 440.108 -411.657 440.108 -412.52 439.07 C-415.249 435.253 -416.263 432.728 -416 428 C-414.68 428 -413.36 428 -412 428 C-411.629 429.217 -411.257 430.434 -410.875 431.688 C-409.163 436.285 -407.014 438.24 -403 441 C-402.01 441.33 -401.02 441.66 -400 442 C-402.599 435.607 -405.808 429.776 -409.414 423.895 C-411.009 420.984 -412.05 418.173 -413 415 C-411.68 414.67 -410.36 414.34 -409 414 C-408.186 415.291 -407.374 416.583 -406.562 417.875 C-406.11 418.594 -405.658 419.314 -405.191 420.055 C-404 422 -404 422 -403 424 C-402.818 422.679 -402.818 422.679 -402.633 421.332 C-402.465 420.171 -402.298 419.009 -402.125 417.812 C-401.963 416.664 -401.8 415.515 -401.633 414.332 C-400.836 410.134 -400.049 407.049 -397 404 C-394.062 403.625 -394.062 403.625 -391 404 C-388.344 406.449 -387.995 408.04 -387.496 411.652 C-387.452 413.08 -387.434 414.509 -387.438 415.938 C-387.436 416.684 -387.434 417.431 -387.432 418.201 C-387.644 425.765 -390.184 431.47 -394 438 C-393.67 438.33 -393.34 438.66 -393 439 C-388.167 434.951 -386.617 431.033 -385 425 C-383.68 425.33 -382.36 425.66 -381 426 C-380.146 431.55 -382.236 434.6 -385.348 438.941 C-387.35 441.435 -389.257 443.34 -392 445 C-393.32 445 -394.64 445 -396 445 C-396 450.94 -396 456.88 -396 463 C-388.08 463 -380.16 463 -372 463 C-372.084 460.45 -372.168 457.9 -372.254 455.273 C-373.168 425.135 -372.699 395.151 -372 365 C-344.61 365 -317.22 365 -289 365 C-289 316.16 -289 267.32 -289 217 C-281.74 217 -274.48 217 -267 217 C-267 203.47 -267 189.94 -267 176 C-246.87 176 -226.74 176 -206 176 C-206 189.53 -206 203.06 -206 217 C-198.147 216.96 -198.147 216.96 -190.293 216.91 C-188.835 216.906 -188.835 216.906 -187.348 216.902 C-185.847 216.894 -185.847 216.894 -184.317 216.886 C-182 217 -182 217 -181 218 C-180.905 220.617 -180.874 223.207 -180.886 225.824 C-180.886 226.644 -180.886 227.463 -180.886 228.308 C-180.887 231.029 -180.895 233.751 -180.902 236.473 C-180.904 238.355 -180.906 240.236 -180.907 242.118 C-180.91 247.081 -180.92 252.045 -180.931 257.008 C-180.942 262.068 -180.946 267.129 -180.951 272.189 C-180.962 282.126 -180.979 292.063 -181 302 C-176.05 302 -171.1 302 -166 302 C-166.495 249.53 -166.495 249.53 -167 196 C-170.96 200.62 -174.92 205.24 -179 210 C-179.99 210.99 -180.98 211.98 -182 213 C-184.188 212.688 -184.188 212.688 -186 212 C-184.679 208.165 -183.086 205.693 -180.312 202.75 C-176.751 198.891 -173.554 194.882 -170.445 190.652 C-169.968 190.107 -169.491 189.562 -169 189 C-168.34 189 -167.68 189 -167 189 C-166.67 163.59 -166.34 138.18 -166 112 C-132.01 112 -98.02 112 -63 112 C-62.67 144.01 -62.34 176.02 -62 209 C-57.174 203.484 -52.587 198 -48.113 192.223 C-45.981 189.981 -45.019 189.32 -42 189 C-41.262 190.688 -41.262 190.688 -41 193 C-42.52 195.375 -42.52 195.375 -44.812 198 C-45.636 198.955 -46.46 199.91 -47.309 200.895 C-47.748 201.397 -48.187 201.899 -48.64 202.417 C-50.039 204.045 -51.385 205.708 -52.723 207.387 C-53.166 207.938 -53.609 208.489 -54.065 209.057 C-55.324 210.624 -56.58 212.193 -57.836 213.762 C-58.55 214.5 -59.264 215.239 -60 216 C-60.99 216 -61.98 216 -63 216 C-63.033 236.071 -63.026 256.143 -62.972 276.214 C-62.947 285.534 -62.936 294.853 -62.955 304.173 C-62.972 312.298 -62.965 320.422 -62.928 328.547 C-62.909 332.848 -62.902 337.148 -62.925 341.449 C-62.946 345.501 -62.935 349.551 -62.898 353.603 C-62.89 355.086 -62.895 356.57 -62.912 358.053 C-63.107 367.665 -63.107 367.665 -58.585 375.794 C-57.416 376.892 -56.224 377.965 -55 379 C-53.667 380.438 -52.333 381.875 -51 383.312 C-50.402 383.948 -49.804 384.584 -49.188 385.238 C-48.796 385.82 -48.404 386.401 -48 387 C-48.33 387.99 -48.66 388.98 -49 390 C-50.32 390 -51.64 390 -53 390 C-52.981 393.934 -52.929 397.865 -52.847 401.798 C-52.813 403.793 -52.804 405.788 -52.795 407.783 C-52.766 409.037 -52.737 410.29 -52.707 411.582 C-52.691 412.739 -52.676 413.897 -52.659 415.089 C-52.282 418.218 -52.282 418.218 -49.456 419.901 C-48.645 420.264 -47.835 420.626 -47 421 C-46.818 420.313 -46.636 419.626 -46.449 418.918 C-46.198 418.017 -45.946 417.116 -45.688 416.188 C-45.444 415.294 -45.2 414.401 -44.949 413.48 C-44 411 -44 411 -42.465 409.652 C-40.479 407.412 -40.622 406.054 -40.615 403.086 C-40.606 402.067 -40.596 401.047 -40.587 399.996 C-40.594 398.311 -40.594 398.311 -40.601 396.592 C-40.595 395.401 -40.588 394.21 -40.581 392.983 C-40.566 389.672 -40.564 386.361 -40.567 383.05 C-40.568 379.481 -40.551 375.913 -40.537 372.344 C-40.514 366.16 -40.502 359.975 -40.498 353.791 C-40.491 344.849 -40.468 335.907 -40.441 326.965 C-40.398 312.459 -40.368 297.952 -40.346 283.445 C-40.325 269.351 -40.298 255.258 -40.262 241.164 C-40.26 240.295 -40.258 239.427 -40.256 238.532 C-40.245 234.176 -40.234 229.819 -40.222 225.463 C-40.129 189.308 -40.058 153.154 -40 117 C-36.04 117 -32.08 117 -28 117 C-27.769 115.982 -27.539 114.963 -27.301 113.914 C-24.839 103.184 -22.026 92.583 -19 82 C-18.34 79.69 -17.68 77.38 -17 75 C-11.39 75 -5.78 75 0 75 C0 50.25 0 25.5 0 0 Z " fill="#161616" transform="translate(510,322)"/></g><g><path d="M0 0 C32.01 0 64.02 0 97 0 C97 51.15 97 102.3 97 155 C90.07 155 83.14 155 76 155 C76 143.78 76 132.56 76 121 C60.82 121.33 45.64 121.66 30 122 C29.67 128.93 29.34 135.86 29 143 C27.515 143.99 27.515 143.99 26 145 C26.495 142.03 26.495 142.03 27 139 C26.01 139 25.02 139 24 139 C23.67 139.66 23.34 140.32 23 141 C22.67 140.01 22.34 139.02 22 138 C21.34 138 20.68 138 20 138 C19.01 138.99 19.01 138.99 18 140 C16.68 139.34 15.36 138.68 14 138 C14.66 139.98 15.32 141.96 16 144 C14 143 12 142 10 141 C10.516 141.784 11.031 142.567 11.562 143.375 C12.037 144.241 12.511 145.107 13 146 C12.505 146.99 12.505 146.99 12 148 C10.68 147.67 9.36 147.34 8 147 C10.546 150.524 10.546 150.524 14 153 C14 153.66 14 154.32 14 155 C9.38 155 4.76 155 0 155 C0 103.85 0 52.7 0 0 Z " fill="#FEFEFE" transform="translate(266,630)"/></g><g><path d="M0 0 C1.653 0.017 1.653 0.017 3.34 0.035 C4.445 0.044 5.549 0.053 6.688 0.062 C7.542 0.074 8.397 0.086 9.277 0.098 C9.483 36.617 9.642 73.136 9.737 109.655 C9.748 113.969 9.76 118.282 9.772 122.595 C9.774 123.454 9.776 124.313 9.779 125.197 C9.818 139.094 9.889 152.99 9.972 166.886 C10.056 181.149 10.106 195.412 10.124 209.675 C10.136 218.474 10.175 227.272 10.249 236.07 C10.296 242.107 10.311 248.143 10.299 254.18 C10.293 257.661 10.302 261.14 10.35 264.621 C10.395 268.403 10.384 272.18 10.36 275.962 C10.386 277.053 10.412 278.144 10.439 279.269 C10.305 286.928 7.982 290.602 2.55 295.946 C1.8 296.656 1.05 297.366 0.277 298.098 C-0.905 299.417 -2.075 300.748 -3.223 302.098 C-5.828 305.094 -8.486 308.038 -11.16 310.973 C-14.247 314.415 -17.309 317.872 -20.285 321.41 C-20.946 322.19 -21.608 322.97 -22.289 323.773 C-23.945 326.457 -24.024 328.001 -23.723 331.098 C-21.743 331.098 -19.763 331.098 -17.723 331.098 C-17.723 334.728 -17.723 338.358 -17.723 342.098 C-19.703 341.768 -21.683 341.438 -23.723 341.098 C-23.796 340.228 -23.796 340.228 -23.871 339.34 C-23.946 338.559 -24.021 337.777 -24.098 336.973 C-24.167 336.207 -24.237 335.441 -24.309 334.652 C-24.628 332.061 -24.628 332.061 -25.736 329.657 C-27.135 324.611 -26.972 319.806 -26.925 314.594 C-26.923 313.43 -26.92 312.265 -26.918 311.065 C-26.909 307.84 -26.892 304.616 -26.87 301.391 C-26.849 297.911 -26.84 294.43 -26.829 290.95 C-26.809 284.922 -26.782 278.895 -26.749 272.868 C-26.702 264.153 -26.666 255.439 -26.633 246.724 C-26.578 232.585 -26.515 218.446 -26.446 204.307 C-26.379 190.573 -26.317 176.84 -26.26 163.106 C-26.256 162.259 -26.253 161.412 -26.249 160.54 C-26.232 156.292 -26.214 152.044 -26.197 147.797 C-26.052 112.564 -25.892 77.331 -25.723 42.098 C-20.278 41.603 -20.278 41.603 -14.723 41.098 C-14.431 39.97 -14.14 38.842 -13.84 37.68 C-11.477 28.584 -9.035 19.514 -6.473 10.473 C-6.086 9.096 -6.086 9.096 -5.691 7.691 C-5.449 6.843 -5.207 5.995 -4.957 5.121 C-4.636 3.991 -4.636 3.991 -4.308 2.837 C-3.358 0.012 -3.119 0.112 0 0 Z " fill="#CBCCCC" transform="translate(500.72265625,402.90234375)"/></g><g><path d="M0 0 C0.33 0 0.66 0 1 0 C1 47.85 1 95.7 1 145 C-4.61 145.33 -10.22 145.66 -16 146 C-16.33 146.99 -16.66 147.98 -17 149 C-18.65 148.67 -20.3 148.34 -22 148 C-22 144.04 -22 140.08 -22 136 C-19.36 136 -16.72 136 -14 136 C-14 138.64 -14 141.28 -14 144 C-12.35 144 -10.7 144 -9 144 C-9 104.07 -9 64.14 -9 23 C-14.61 23 -20.22 23 -26 23 C-26 65.57 -26 108.14 -26 152 C-26.66 152 -27.32 152 -28 152 C-28 109.43 -28 66.86 -28 23 C-33.94 23 -39.88 23 -46 23 C-45.67 70.19 -45.34 117.38 -45 166 C-41.04 166.33 -37.08 166.66 -33 167 C-38.75 174.75 -38.75 174.75 -41 177 C-40.681 179.108 -40.681 179.108 -40 181 C-37.36 181.33 -34.72 181.66 -32 182 C-32 198.83 -32 215.66 -32 233 C-38.27 233 -44.54 233 -51 233 C-51 215.51 -51 198.02 -51 180 C-49.35 180 -47.7 180 -46 180 C-48.677 174.667 -52.867 170.881 -57.062 166.742 C-57.85 165.957 -58.638 165.172 -59.449 164.364 C-61.962 161.863 -64.481 159.369 -67 156.875 C-68.696 155.189 -70.391 153.503 -72.086 151.816 C-75.817 148.105 -79.553 144.397 -83.293 140.694 C-84.866 139.133 -86.434 137.568 -88 136 C-81.477 135.631 -81.477 135.631 -79.062 137.5 C-78.537 138.243 -78.537 138.243 -78 139 C-76.403 137.403 -76.859 135.727 -76.842 133.514 C-76.827 132.06 -76.827 132.06 -76.812 130.578 C-76.806 129.506 -76.801 128.434 -76.795 127.33 C-76.78 125.647 -76.78 125.647 -76.765 123.93 C-76.733 120.202 -76.708 116.474 -76.684 112.746 C-76.663 110.169 -76.642 107.592 -76.621 105.015 C-76.571 98.913 -76.526 92.811 -76.483 86.709 C-76.433 79.763 -76.378 72.818 -76.323 65.873 C-76.209 51.582 -76.102 37.291 -76 23 C-81.61 23 -87.22 23 -93 23 C-93 58.64 -93 94.28 -93 131 C-94.98 131.33 -96.96 131.66 -99 132 C-99 89.76 -99 47.52 -99 4 C-67.65 4 -36.3 4 -4 4 C-4 50.2 -4 96.4 -4 144 C-2.68 144 -1.36 144 0 144 C0 96.48 0 48.96 0 0 Z " fill="#797978" transform="translate(671,552)"/></g><g><path d="M0 0 C2.692 0.971 4.081 1.97 6.119 3.958 C6.774 4.585 7.428 5.212 8.102 5.859 C8.784 6.531 9.467 7.203 10.17 7.895 C11.608 9.279 13.047 10.662 14.486 12.044 C15.177 12.712 15.869 13.381 16.581 14.07 C18.877 16.274 21.229 18.407 23.607 20.52 C24.311 21.169 25.015 21.818 25.74 22.486 C27.783 24.281 29.803 25.9 31.973 27.522 C42.358 35.645 42.358 35.645 43.715 42.068 C44.265 46.795 44.063 51.485 43.85 56.227 C43.823 57.957 43.804 59.688 43.79 61.418 C43.737 65.93 43.6 70.436 43.444 74.946 C43.274 80.379 43.211 85.814 43.129 91.249 C42.994 99.469 42.726 107.674 42.482 115.895 C28.292 115.895 14.102 115.895 -0.518 115.895 C-0.518 103.355 -0.518 90.815 -0.518 77.895 C-9.098 77.895 -17.678 77.895 -26.518 77.895 C-26.518 90.765 -26.518 103.635 -26.518 116.895 C-32.458 116.895 -38.398 116.895 -44.518 116.895 C-44.836 107.489 -45.092 98.086 -45.243 88.675 C-45.316 84.304 -45.414 79.937 -45.574 75.568 C-46.721 43.377 -46.721 43.377 -39.651 35.539 C-37.283 33.437 -34.852 31.646 -32.156 29.987 C-29.759 28.389 -28.097 26.334 -26.33 24.083 C-24.265 21.527 -23.767 20.978 -20.518 19.895 C-19.817 18.579 -19.155 17.243 -18.518 15.895 C-16.077 12.968 -13.379 10.295 -10.705 7.583 C-9.993 6.829 -9.281 6.076 -8.547 5.3 C-7.85 4.593 -7.153 3.885 -6.436 3.157 C-5.804 2.507 -5.173 1.857 -4.522 1.187 C-2.518 -0.105 -2.518 -0.105 0 0 Z " fill="#FEFEFE" transform="translate(876.517578125,668.104736328125)"/></g><g><path d="M0 0 C29.37 0 58.74 0 89 0 C89.103 7.301 89.206 14.602 89.312 22.125 C89.358 24.42 89.404 26.714 89.45 29.079 C89.465 30.909 89.478 32.74 89.488 34.57 C89.514 35.511 89.539 36.452 89.566 37.422 C89.569 41.93 89.51 44.978 86.541 48.52 C85.702 49.338 84.864 50.157 84 51 C82.849 53.018 82.849 53.018 82.188 54.875 C81.796 55.906 81.404 56.938 81 58 C79.882 56.324 78.768 54.645 77.668 52.957 C76.935 51.895 76.935 51.895 76.188 50.812 C75.707 50.097 75.226 49.382 74.73 48.645 C73.075 46.74 73.075 46.74 70.363 46.699 C68.047 46.749 68.047 46.749 67 48 C66.339 56.084 66.156 62.34 71 69 C71 69.66 71 70.32 71 71 C73.969 72.539 76.866 73.746 80 75 C80 80.28 80 85.56 80 91 C58.55 91 37.1 91 15 91 C15 84.4 15 77.8 15 71 C17.31 69.68 19.62 68.36 22 67 C25.592 63.712 28.786 59.591 29.195 54.641 C29.172 53.852 29.149 53.063 29.125 52.25 C29.098 51.051 29.098 51.051 29.07 49.828 C29.047 49.225 29.024 48.622 29 48 C28.051 47.856 27.102 47.711 26.125 47.562 C23 47 23 47 21 46 C21.035 45.108 21.07 44.216 21.105 43.297 C21.133 42.126 21.16 40.956 21.188 39.75 C21.222 38.59 21.257 37.43 21.293 36.234 C20.978 32.759 20.492 31.398 18 29 C15.374 28.666 15.374 28.666 13 29 C8.87 34.926 8.484 39.32 8.75 46.438 C8.777 47.821 8.777 47.821 8.805 49.232 C8.851 51.489 8.917 53.744 9 56 C5.195 54.098 4.311 48.858 3 45 C2.65 43.003 2.308 41.004 2 39 C1.34 38.67 0.68 38.34 0 38 C0 25.46 0 12.92 0 0 Z " fill="#FEFEFE" transform="translate(144,693)"/></g><g><path d="M0 0 C3.375 -0.188 3.375 -0.188 7 0 C9.059 3.088 9.702 5.247 10.625 8.812 C12.76 16.586 15.512 24.084 18.358 31.622 C18.699 32.535 19.04 33.447 19.391 34.387 C19.7 35.204 20.01 36.02 20.329 36.862 C21 39 21 39 21 42 C24.63 42 28.26 42 32 42 C32 121.2 32 200.4 32 282 C24.74 282 17.48 282 10 282 C10.007 278.964 10.015 275.928 10.023 272.8 C10.087 244.91 10.106 217.021 10.077 189.131 C10.074 185.47 10.07 181.81 10.067 178.149 C10.067 177.42 10.066 176.691 10.065 175.94 C10.056 164.165 10.078 152.39 10.113 140.615 C10.147 128.518 10.147 116.421 10.116 104.324 C10.099 97.536 10.098 90.748 10.137 83.959 C10.172 77.56 10.164 71.163 10.124 64.765 C10.117 62.425 10.125 60.085 10.15 57.745 C10.277 44.964 9.856 35.489 2.015 25.044 C-1.204 20.182 -1.023 15.707 -0.562 10.062 C-0.522 9.081 -0.481 8.099 -0.439 7.088 C-0.335 4.719 -0.189 2.363 0 0 Z " fill="#CBCCCC" transform="translate(515,403)"/></g><g><path d="M0 0 C27.39 0 54.78 0 83 0 C83 23.43 83 46.86 83 71 C72.11 71 61.22 71 50 71 C50 62.09 50 53.18 50 44 C44.06 44 38.12 44 32 44 C32 52.91 32 61.82 32 71 C21.44 71 10.88 71 0 71 C0 47.57 0 24.14 0 0 Z " fill="#FEFEFE" transform="translate(368,713)"/></g><g><path d="M0 0 C10.619 6.711 16.439 15.319 19.938 27.312 C21.419 38.897 18.555 50.918 11.625 60.375 C4.907 68.095 -3.829 73.766 -14.062 75.312 C-28.143 76.091 -37.947 74.53 -49.062 65.312 C-55.069 59.74 -58.668 54.146 -61.062 46.312 C-61.253 45.701 -61.444 45.09 -61.641 44.461 C-63.721 33.869 -62.263 23.411 -56.777 14.141 C-43.301 -5.229 -20.74 -11.533 0 0 Z " fill="#FEFEFE" transform="translate(396.0625,300.6875)"/></g><g><path d="M0 0 C6.27 0 12.54 0 19 0 C19.159 7.963 19.287 15.925 19.363 23.889 C19.399 27.587 19.449 31.285 19.528 34.983 C19.604 38.555 19.646 42.127 19.664 45.701 C19.677 47.06 19.702 48.419 19.74 49.778 C20.025 60.422 20.025 60.422 17.47 64.354 C15.735 66.098 13.979 67.546 12 69 C10.711 70.421 9.435 71.855 8.188 73.312 C6.5 75.278 4.833 77.167 3 79 C3 80.32 3 81.64 3 83 C4.98 83.495 4.98 83.495 7 84 C7 108.09 7 132.18 7 157 C-0.59 157 -8.18 157 -16 157 C-16.691 140.558 -16.691 140.558 -12.113 133.84 C-10.526 131.216 -10.618 128.982 -11 126 C-12.65 125.34 -14.3 124.68 -16 124 C-16 118.06 -16 112.12 -16 106 C-12.7 106 -9.4 106 -6 106 C-8.254 99.045 -12.529 95.036 -17.75 90.062 C-22.911 85.075 -27.942 80.094 -32.599 74.627 C-34.916 71.739 -34.916 71.739 -38.329 70.722 C-39.301 70.708 -40.274 70.695 -41.276 70.681 C-42.377 70.661 -43.478 70.641 -44.612 70.621 C-45.805 70.609 -46.998 70.598 -48.227 70.586 C-49.445 70.567 -50.662 70.547 -51.917 70.527 C-55.82 70.467 -59.722 70.421 -63.625 70.375 C-66.266 70.337 -68.906 70.298 -71.547 70.258 C-78.031 70.162 -84.515 70.078 -91 70 C-91 62.41 -91 54.82 -91 47 C-62.62 47 -34.24 47 -5 47 C-4.67 60.86 -4.34 74.72 -4 89 C-3.01 89 -2.02 89 -1 89 C-0.67 59.63 -0.34 30.26 0 0 Z " fill="#FEFEFE" transform="translate(772,627)"/></g><g><path d="M0 0 C14.927 7.093 31.852 22.114 39 37 C44.083 55.08 41.008 75.66 39 94 C26.79 94 14.58 94 2 94 C2 83.77 2 73.54 2 63 C-8.23 63 -18.46 63 -29 63 C-29 67.95 -29 72.9 -29 78 C-24.71 78 -20.42 78 -16 78 C-16 83.61 -16 89.22 -16 95 C-22.93 95 -29.86 95 -37 95 C-37.198 87.456 -37.343 79.914 -37.439 72.368 C-37.48 69.803 -37.534 67.239 -37.604 64.675 C-37.701 60.981 -37.746 57.289 -37.781 53.594 C-37.823 52.454 -37.864 51.314 -37.906 50.14 C-37.911 42.288 -37.911 42.288 -35.284 38.575 C-33.279 36.568 -31.194 34.796 -29 33 C-27.85 31.752 -26.721 30.484 -25.625 29.188 C-22.803 25.908 -19.918 22.695 -17 19.5 C-11.185 13.12 -5.493 6.659 0 0 Z " fill="#FEFEFE" transform="translate(576,690)"/></g><g><path d="M0 0 C5.94 0 11.88 0 18 0 C18 42.57 18 85.14 18 129 C18.66 129 19.32 129 20 129 C20 86.43 20 43.86 20 0 C25.61 0 31.22 0 37 0 C37 39.93 37 79.86 37 121 C35.35 121 33.7 121 32 121 C32 118.36 32 115.72 32 113 C29.36 113 26.72 113 24 113 C24 116.96 24 120.92 24 125 C25.32 125 26.64 125 28 125 C27.407 128.906 25.514 131.218 23.062 134.25 C22.352 135.142 21.642 136.034 20.91 136.953 C19.965 137.966 19.965 137.966 19 139 C18.34 139 17.68 139 17 139 C16.567 140.207 16.567 140.207 16.125 141.438 C15 144 15 144 13 145 C10.976 144.938 8.954 144.803 6.938 144.625 C5.853 144.535 4.769 144.445 3.652 144.352 C1 144 1 144 0 143 C-0.096 141.152 -0.122 139.301 -0.12 137.451 C-0.122 136.246 -0.123 135.042 -0.124 133.801 C-0.121 132.454 -0.117 131.107 -0.114 129.76 C-0.113 128.351 -0.113 126.942 -0.114 125.533 C-0.114 121.696 -0.108 117.859 -0.101 114.023 C-0.095 110.018 -0.095 106.012 -0.093 102.007 C-0.09 94.417 -0.082 86.828 -0.072 79.238 C-0.061 70.6 -0.055 61.962 -0.05 53.323 C-0.04 35.549 -0.022 17.774 0 0 Z " fill="#161616" transform="translate(625,575)"/></g><g><path d="M0 0 C2.97 0 5.94 0 9 0 C9 51.15 9 102.3 9 155 C10.32 155 11.64 155 13 155 C13 103.85 13 52.7 13 0 C15.97 0 18.94 0 22 0 C22 78.87 22 157.74 22 239 C15.07 239 8.14 239 1 239 C1.012 236.427 1.023 233.854 1.035 231.203 C1.099 212.513 1.02 193.839 0.571 175.153 C-0.202 141.959 -0.119 108.765 -0.072 75.565 C-0.061 67.296 -0.055 59.026 -0.05 50.757 C-0.04 33.838 -0.023 16.919 0 0 Z " fill="#F3F3F3" transform="translate(238,545)"/></g><g><path d="M0 0 C0.33 0 0.66 0 1 0 C1.069 36.893 1.122 73.786 1.153 110.68 C1.157 115.032 1.161 119.384 1.165 123.737 C1.166 124.603 1.166 125.47 1.167 126.362 C1.18 140.406 1.204 154.449 1.231 168.492 C1.259 182.894 1.276 197.296 1.282 211.698 C1.286 220.59 1.299 229.482 1.324 238.374 C1.34 244.466 1.344 250.557 1.341 256.649 C1.339 260.167 1.342 263.685 1.358 267.204 C1.375 271.012 1.369 274.821 1.361 278.63 C1.37 279.749 1.378 280.869 1.387 282.023 C1.381 283.039 1.375 284.055 1.369 285.102 C1.371 286.422 1.371 286.422 1.373 287.768 C0.919 290.484 0.019 291.209 -2 293 C-3.005 295.72 -3.005 295.72 -3.688 298.688 C-3.939 299.681 -4.19 300.675 -4.449 301.699 C-4.631 302.458 -4.813 303.218 -5 304 C-7.31 302.68 -9.62 301.36 -12 300 C-12 290.76 -12 281.52 -12 272 C-10.68 271.67 -9.36 271.34 -8 271 C-9.392 267.915 -11.044 265.63 -13.312 263.125 C-14.547 261.755 -15.775 260.379 -17 259 C-17.853 258.272 -18.707 257.544 -19.586 256.795 C-23.843 251.606 -22.649 244.433 -22.568 238.09 C-22.566 236.562 -22.567 235.034 -22.57 233.506 C-22.571 229.368 -22.542 225.231 -22.507 221.093 C-22.476 216.764 -22.473 212.436 -22.467 208.108 C-22.451 199.916 -22.41 191.725 -22.36 183.534 C-22.304 174.206 -22.277 164.878 -22.252 155.551 C-22.199 136.367 -22.111 117.183 -22 98 C-20.515 97.505 -20.515 97.505 -19 97 C-16.955 94.827 -16.955 94.827 -14.875 92.125 C-14.171 91.241 -13.467 90.356 -12.742 89.445 C-12.341 88.917 -11.939 88.389 -11.525 87.844 C-10 86 -10 86 -7.802 83.872 C0.117 75.657 0.271 68.253 0.098 57.52 C0.103 55.854 0.113 54.188 0.126 52.522 C0.151 48.173 0.122 43.826 0.082 39.478 C0.05 35.026 0.069 30.575 0.084 26.123 C0.106 17.415 0.071 8.708 0 0 Z " fill="#FEFEFE" transform="translate(469,440)"/></g><g><path d="M0 0 C34.98 0 69.96 0 106 0 C106 0.99 106 1.98 106 3 C105.402 3.536 104.804 4.072 104.188 4.625 C101.107 7.969 100.217 11.685 99 16 C98.505 15.01 98.505 15.01 98 14 C96.141 13.496 96.141 13.496 94 13.312 C93.278 13.226 92.556 13.14 91.812 13.051 C90.915 13.026 90.915 13.026 90 13 C88.584 14.192 88.584 14.192 88.812 17.625 C88.95 24.633 90.798 29.292 95.367 34.52 C97.224 36.336 97.224 36.336 101 38 C101 41.96 101 45.92 101 50 C94.07 50 87.14 50 80 50 C79.944 47.488 79.944 47.488 79.887 44.926 C79.821 42.721 79.755 40.517 79.688 38.312 C79.665 37.21 79.642 36.107 79.619 34.971 C79.566 33.371 79.566 33.371 79.512 31.738 C79.486 30.759 79.459 29.78 79.432 28.771 C78.931 25.556 77.897 23.624 76 21 C72.296 19.148 68.033 19.401 64 20 C55.141 28.211 58.588 36.468 58 50 C38.86 50 19.72 50 0 50 C0 33.5 0 17 0 0 Z " fill="#CBCCCC" transform="translate(644,734)"/></g><g><path d="M0 0 C3.63 0 7.26 0 11 0 C11 5.28 11 10.56 11 16 C18.92 16 26.84 16 35 16 C35 10.72 35 5.44 35 0 C37.31 0 39.62 0 42 0 C42 23.76 42 47.52 42 72 C28.14 72 14.28 72 0 72 C0 48.24 0 24.48 0 0 Z " fill="#FEFEFE" transform="translate(785,713)"/></g><g><path d="M0 0 C5.94 0 11.88 0 18 0 C18 46.53 18 93.06 18 141 C16.35 141.33 14.7 141.66 13 142 C13 137.71 13 133.42 13 129 C8.71 129 4.42 129 0 129 C0 86.43 0 43.86 0 0 Z " fill="#161616" transform="translate(602,575)"/></g><g><path d="M0 0 C14.85 0 29.7 0 45 0 C45 15.84 45 31.68 45 48 C30.15 48 15.3 48 0 48 C0 32.16 0 16.32 0 0 Z " fill="#FEFEFE" transform="translate(488,736)"/></g><g><path d="M0 0 C5.61 0 11.22 0 17 0 C17 39.93 17 79.86 17 121 C15.35 121 13.7 121 12 121 C12 118.36 12 115.72 12 113 C9.36 113 6.72 113 4 113 C4 116.96 4 120.92 4 125 C5.32 125.33 6.64 125.66 8 126 C6.812 127.562 6.812 127.562 5 129 C3.35 128.67 1.7 128.34 0 128 C0 85.76 0 43.52 0 0 Z " fill="#161616" transform="translate(645,575)"/></g><g><path d="M0 0 C2.64 0 5.28 0 8 0 C8 80.85 8 161.7 8 245 C5.36 245 2.72 245 0 245 C0 164.15 0 83.3 0 0 Z " fill="#AEB2B4" transform="translate(398,440)"/></g><g><path d="M0 0 C2.64 0 5.28 0 8 0 C8 80.85 8 161.7 8 245 C5.36 245 2.72 245 0 245 C0 164.15 0 83.3 0 0 Z " fill="#AEB2B4" transform="translate(374,440)"/></g><g><path d="M0 0 C2.31 0 4.62 0 7 0 C7 81.51 7 163.02 7 247 C4.69 246.34 2.38 245.68 0 245 C0 164.15 0 83.3 0 0 Z " fill="#BCBFC0" transform="translate(435,440)"/></g><g><path d="M0 0 C16.17 0 32.34 0 49 0 C49 11.55 49 23.1 49 35 C32.83 35 16.66 35 0 35 C0 23.45 0 11.9 0 0 Z " fill="#CBCCCC" transform="translate(249,504)"/></g><g><path d="M0 0 C2.31 0 4.62 0 7 0 C7 80.85 7 161.7 7 245 C4.69 245 2.38 245 0 245 C0 164.15 0 83.3 0 0 Z " fill="#CBCCCC" transform="translate(411,440)"/></g><g><path d="M0 0 C2.31 0 4.62 0 7 0 C7 80.52 7 161.04 7 244 C4.69 244 2.38 244 0 244 C0 163.48 0 82.96 0 0 Z " fill="#CBCCCC" transform="translate(423,441)"/></g><g><path d="M0 0 C4.952 4.952 6.339 8.148 6.387 15.032 C6.379 15.966 6.37 16.901 6.361 17.864 C6.363 18.865 6.366 19.866 6.369 20.897 C6.373 24.253 6.357 27.61 6.341 30.966 C6.34 33.371 6.34 35.775 6.342 38.18 C6.343 43.359 6.334 48.538 6.317 53.716 C6.293 61.204 6.285 68.692 6.281 76.179 C6.275 88.328 6.255 100.477 6.226 112.625 C6.199 124.426 6.178 136.226 6.165 148.027 C6.164 148.754 6.163 149.482 6.162 150.231 C6.158 153.881 6.155 157.531 6.151 161.18 C6.12 191.454 6.067 221.727 6 252 C4.02 252 2.04 252 0 252 C0 168.84 0 85.68 0 0 Z " fill="#AEB2B4" transform="translate(515,433)"/></g><g><path d="M0 0 C1.98 0 3.96 0 6 0 C6 80.52 6 161.04 6 244 C4.02 244 2.04 244 0 244 C0 163.48 0 82.96 0 0 Z " fill="#D3D7D8" transform="translate(387,441)"/></g><g><path d="M0 0 C28.38 0 56.76 0 86 0 C86 5.61 86 11.22 86 17 C57.62 17 29.24 17 0 17 C0 11.39 0 5.78 0 0 Z " fill="#FEFEFE" transform="translate(681,534)"/></g><g><path d="M0 0 C8.25 0 16.5 0 25 0 C25 18.48 25 36.96 25 56 C16.75 56 8.5 56 0 56 C0 37.52 0 19.04 0 0 Z " fill="#797978" transform="translate(606,495)"/></g><g><path d="M0 0 C11.196 -0.023 22.391 -0.041 33.587 -0.052 C38.785 -0.057 43.983 -0.064 49.181 -0.075 C54.193 -0.086 59.205 -0.092 64.217 -0.095 C66.134 -0.097 68.051 -0.1 69.967 -0.106 C72.642 -0.113 75.317 -0.114 77.992 -0.114 C78.793 -0.117 79.593 -0.121 80.418 -0.124 C85.886 -0.114 85.886 -0.114 87 1 C87 5.95 87 10.9 87 16 C58.29 16 29.58 16 0 16 C0 10.72 0 5.44 0 0 Z " fill="#F3F3F3" transform="translate(681,555)"/></g><g><path d="M0 0 C6.27 0 12.54 0 19 0 C19.159 7.963 19.287 15.925 19.363 23.889 C19.399 27.587 19.449 31.285 19.528 34.983 C19.604 38.555 19.646 42.127 19.664 45.701 C19.677 47.06 19.702 48.419 19.74 49.778 C20.025 60.421 20.025 60.421 17.469 64.357 C15.734 66.101 13.982 67.549 12 69 C10.731 70.379 9.477 71.771 8.25 73.188 C7.698 73.82 7.147 74.453 6.578 75.105 C2.895 79.527 1.566 82.113 1 88 C0.67 88 0.34 88 0 88 C0 58.96 0 29.92 0 0 Z " fill="#FEFEFE" transform="translate(772,627)"/></g><g><path d="M0 0 C2.31 0 4.62 0 7 0 C7 80.85 7 161.7 7 245 C6.67 245 6.34 245 6 245 C5.67 225.2 5.34 205.4 5 185 C3.35 184.67 1.7 184.34 0 184 C0 123.28 0 62.56 0 0 Z " fill="#CBCCCC" transform="translate(362,440)"/></g><g><path d="M0 0 C2.31 0 4.62 0 7 0 C7 60.72 7 121.44 7 184 C4.69 184 2.38 184 0 184 C0 123.28 0 62.56 0 0 Z " fill="#CBCCCC" transform="translate(350,441)"/></g><g><path d="M0 0 C0.599 0.62 1.199 1.24 1.816 1.879 C2.65 2.743 2.65 2.743 3.5 3.625 C4.304 4.388 5.109 5.151 5.938 5.938 C7.5 7.625 7.5 7.625 7.5 9.625 C8.16 9.625 8.82 9.625 9.5 9.625 C9.5 10.285 9.5 10.945 9.5 11.625 C-18.22 11.625 -45.94 11.625 -74.5 11.625 C-74.5 6.345 -74.5 1.065 -74.5 -4.375 C-65.834 -4.551 -57.167 -4.718 -48.5 -4.87 C-44.476 -4.941 -40.451 -5.015 -36.427 -5.099 C-32.544 -5.179 -28.66 -5.249 -24.776 -5.313 C-23.294 -5.338 -21.813 -5.368 -20.331 -5.401 C-18.256 -5.447 -16.18 -5.48 -14.104 -5.51 C-12.923 -5.532 -11.742 -5.555 -10.525 -5.578 C-5.69 -5.254 -3.278 -3.412 0 0 Z " fill="#595A59" transform="translate(442.5,695.375)"/></g><g><path d="M0 0 C10.619 6.711 16.439 15.319 19.938 27.312 C21.419 38.897 18.555 50.918 11.625 60.375 C4.907 68.095 -3.829 73.766 -14.062 75.312 C-28.143 76.091 -37.947 74.53 -49.062 65.312 C-55.069 59.74 -58.668 54.146 -61.062 46.312 C-61.253 45.701 -61.444 45.09 -61.641 44.461 C-63.721 33.869 -62.263 23.411 -56.777 14.141 C-43.301 -5.229 -20.74 -11.533 0 0 Z M-49.062 12.312 C-55.89 22.444 -57.93 30.218 -57.062 42.312 C-54.487 53.351 -47.254 61.129 -38.062 67.312 C-30.215 71.646 -18.741 71.676 -10.215 69.629 C1.307 65.337 7.878 58.008 13.039 46.953 C16.43 38.016 15.628 29.03 11.938 20.312 C6.812 10.572 -0.498 4.101 -10.789 0.199 C-25.28 -3.726 -39.372 0.973 -49.062 12.312 Z " fill="#161616" transform="translate(396.0625,300.6875)"/></g><g><path d="M0 0 C28.38 0 56.76 0 86 0 C86 4.62 86 9.24 86 14 C57.62 14 29.24 14 0 14 C0 9.38 0 4.76 0 0 Z " fill="#F3F3F3" transform="translate(681,575)"/></g><g><path d="M0 0 C2.64 0 5.28 0 8 0 C8 46.86 8 93.72 8 142 C5.36 142 2.72 142 0 142 C0 95.14 0 48.28 0 0 Z " fill="#F3F3F3" transform="translate(226,545)"/></g><g><path d="M0 0 C28.05 0 56.1 0 85 0 C85 3.96 85 7.92 85 12 C56.95 12 28.9 12 0 12 C0 8.04 0 4.08 0 0 Z " fill="#FEFEFE" transform="translate(682,610)"/></g><g><path d="M0 0 C1.32 0 2.64 0 4 0 C4 79.53 4 159.06 4 241 C2.68 241 1.36 241 0 241 C0 161.47 0 81.94 0 0 Z " fill="#CBCCCC" transform="translate(400,442)"/></g><g><path d="M0 0 C1.32 0 2.64 0 4 0 C4 79.2 4 158.4 4 240 C2.68 240.33 1.36 240.66 0 241 C0 161.47 0 81.94 0 0 Z " fill="#CBCCCC" transform="translate(376,442)"/></g><g><path d="M0 0 C28.38 0 56.76 0 86 0 C86 3.63 86 7.26 86 11 C57.62 11 29.24 11 0 11 C0 7.37 0 3.74 0 0 Z " fill="#FEFEFE" transform="translate(681,658)"/></g><g><path d="M0 0 C28.38 0 56.76 0 86 0 C86 3.63 86 7.26 86 11 C57.62 11 29.24 11 0 11 C0 7.37 0 3.74 0 0 Z " fill="#F3F3F3" transform="translate(681,642)"/></g><g><path d="M0 0 C28.38 0 56.76 0 86 0 C86 3.63 86 7.26 86 11 C57.62 11 29.24 11 0 11 C0 7.37 0 3.74 0 0 Z " fill="#FEFEFE" transform="translate(681,627)"/></g><g><path d="M0 0 C28.05 0 56.1 0 85 0 C85 3.63 85 7.26 85 11 C56.95 11 28.9 11 0 11 C0 7.37 0 3.74 0 0 Z " fill="#FEFEFE" transform="translate(682,594)"/></g><g><path d="M0 0 C1.32 0 2.64 0 4 0 C4 73.92 4 147.84 4 224 C2.68 224 1.36 224 0 224 C0 150.08 0 76.16 0 0 Z " fill="#AEB2B4" transform="translate(552,445)"/></g><g><path d="M0 0 C6.27 0 12.54 0 19 0 C19 15.51 19 31.02 19 47 C12.73 47 6.46 47 0 47 C0 31.49 0 15.98 0 0 Z " fill="#F3F3F3" transform="translate(772,575)"/></g><g><path d="M0 0 C15.84 0 31.68 0 48 0 C48 5.28 48 10.56 48 16 C32.16 16 16.32 16 0 16 C0 10.72 0 5.44 0 0 Z " fill="#FEFEFE" transform="translate(711,512)"/></g><g><path d="M0 0 C2.31 0 4.62 0 7 0 C7 80.85 7 161.7 7 245 C6.34 245 5.68 245 5 245 C5 164.81 5 84.62 5 2 C4.01 2 3.02 2 2 2 C1.67 82.19 1.34 162.38 1 245 C0.67 245 0.34 245 0 245 C0 164.15 0 83.3 0 0 Z " fill="#CBCCCC" transform="translate(411,440)"/></g><g><path d="M0 0 C0.99 0 1.98 0 3 0 C3 79.53 3 159.06 3 241 C2.01 240.67 1.02 240.34 0 240 C0 160.8 0 81.6 0 0 Z " fill="#CBCCCC" transform="translate(388,442)"/></g><g><path d="M0 0 C11.88 0 23.76 0 36 0 C36 6.6 36 13.2 36 20 C24.12 20 12.24 20 0 20 C0 13.4 0 6.8 0 0 Z " fill="#212121" transform="translate(492,753)"/></g><g><path d="M0 0 C2.97 0 5.94 0 9 0 C9 26.4 9 52.8 9 80 C6.36 80 3.72 80 1 80 C1.33 76.7 1.66 73.4 2 70 C1.34 70 0.68 70 0 70 C0 46.9 0 23.8 0 0 Z " fill="#F3F3F3" transform="translate(302,545)"/></g><g><path d="M0 0 C2.64 0 5.28 0 8 0 C8 26.4 8 52.8 8 80 C5.36 80 2.72 80 0 80 C0 53.6 0 27.2 0 0 Z " fill="#FEFEFE" transform="translate(264,545)"/></g><g><path d="M0 0 C2.64 0 5.28 0 8 0 C8 22.77 8 45.54 8 69 C6.68 69 5.36 69 4 69 C4 72.3 4 75.6 4 79 C2.68 79 1.36 79 0 79 C0 52.93 0 26.86 0 0 Z " fill="#FEFEFE" transform="translate(277,546)"/></g><g><path d="M0 0 C2.31 0 4.62 0 7 0 C7 26.07 7 52.14 7 79 C4.69 79 2.38 79 0 79 C0 52.93 0 26.86 0 0 Z " fill="#FEFEFE" transform="translate(316,545)"/></g><g><path d="M0 0 C2.64 0 5.28 0 8 0 C8 22.44 8 44.88 8 68 C5.36 68 2.72 68 0 68 C0 45.56 0 23.12 0 0 Z " fill="#FEFEFE" transform="translate(290,546)"/></g><g><path d="M0 0 C7.59 0 15.18 0 23 0 C23 7.26 23 14.52 23 22 C15.41 22 7.82 22 0 22 C0 14.74 0 7.48 0 0 Z " fill="#161616" transform="translate(567,713)"/></g><g><path d="M0 0 C7.92 0 15.84 0 24 0 C24.021 2.949 24.041 5.899 24.062 8.938 C24.072 9.868 24.081 10.799 24.09 11.758 C24.093 12.486 24.095 13.214 24.098 13.965 C24.106 15.088 24.106 15.088 24.114 16.234 C24 18 24 18 23 19 C21.292 19.087 19.581 19.107 17.871 19.098 C16.319 19.093 16.319 19.093 14.736 19.088 C13.648 19.08 12.559 19.071 11.438 19.062 C9.799 19.056 9.799 19.056 8.127 19.049 C5.418 19.037 2.709 19.019 0 19 C0 12.73 0 6.46 0 0 Z " fill="#212121" transform="translate(796,751)"/></g><g><path d="M0 0 C5.28 0 10.56 0 16 0 C16 3.96 16 7.92 16 12 C14.68 11.67 13.36 11.34 12 11 C12 12.65 12 14.3 12 16 C13.32 15.67 14.64 15.34 16 15 C16 19.29 16 23.58 16 28 C10.72 28 5.44 28 0 28 C0 18.76 0 9.52 0 0 Z " fill="#FEFEFE" transform="translate(308,756)"/></g><g><path d="M0 0 C0.33 0 0.66 0 1 0 C1 91.74 1 183.48 1 278 C1.66 278 2.32 278 3 278 C3.495 279.485 3.495 279.485 4 281 C3.34 281.99 2.68 282.98 2 284 C1.833 286.625 1.833 286.625 2 289 C3.98 289 5.96 289 8 289 C8 292.63 8 296.26 8 300 C6.02 299.67 4.04 299.34 2 299 C1.927 298.13 1.927 298.13 1.852 297.242 C1.777 296.461 1.702 295.68 1.625 294.875 C1.555 294.109 1.486 293.344 1.414 292.555 C1.095 289.964 1.095 289.964 -0.013 287.559 C-1.412 282.513 -1.249 277.709 -1.203 272.497 C-1.2 271.332 -1.198 270.167 -1.195 268.967 C-1.187 265.742 -1.169 262.518 -1.148 259.293 C-1.127 255.813 -1.117 252.332 -1.107 248.852 C-1.086 242.825 -1.059 236.797 -1.026 230.77 C-0.979 222.056 -0.943 213.341 -0.91 204.627 C-0.856 190.488 -0.793 176.349 -0.724 162.209 C-0.657 148.476 -0.594 134.742 -0.537 121.008 C-0.534 120.162 -0.53 119.315 -0.526 118.442 C-0.509 114.195 -0.491 109.947 -0.474 105.699 C-0.329 70.466 -0.169 35.233 0 0 Z " fill="#AEB2B4" transform="translate(475,445)"/></g><g><path d="M0 0 C6.27 0 12.54 0 19 0 C19 6.27 19 12.54 19 19 C12.73 19 6.46 19 0 19 C0 12.73 0 6.46 0 0 Z " fill="#FEFEFE" transform="translate(620,766)"/></g><g><path d="M0 0 C3.713 0.619 4.681 1.587 7 4.5 C7.454 7.065 7.454 7.065 7.391 9.922 C7.378 10.947 7.365 11.971 7.352 13.027 C7.318 14.091 7.285 15.154 7.25 16.25 C7.232 17.329 7.214 18.408 7.195 19.52 C7.148 22.18 7.076 24.84 7 27.5 C2.38 27.5 -2.24 27.5 -7 27.5 C-7.108 23.749 -7.187 20.002 -7.25 16.25 C-7.284 15.187 -7.317 14.123 -7.352 13.027 C-7.364 12.003 -7.377 10.978 -7.391 9.922 C-7.412 8.979 -7.433 8.037 -7.454 7.065 C-6.671 2.644 -4.33 0.722 0 0 Z " fill="#FEFEFE" transform="translate(713,756.5)"/></g><g><path d="M0 0 C5.61 0 11.22 0 17 0 C17 6.27 17 12.54 17 19 C11.39 19 5.78 19 0 19 C0 12.73 0 6.46 0 0 Z " fill="#0B0A0B" transform="translate(860,708)"/></g><g><path d="M0 0 C6.27 0 12.54 0 19 0 C19 5.61 19 11.22 19 17 C12.73 17 6.46 17 0 17 C0 11.39 0 5.78 0 0 Z " fill="#F3F3F3" transform="translate(772,534)"/></g><g><path d="M0 0 C5.28 0 10.56 0 16 0 C16 6.27 16 12.54 16 19 C10.72 19 5.44 19 0 19 C0 12.73 0 6.46 0 0 Z " fill="#0B0A0B" transform="translate(888,708)"/></g><g><path d="M0 0 C6.27 0 12.54 0 19 0 C19 5.28 19 10.56 19 16 C12.73 16 6.46 16 0 16 C0 10.72 0 5.44 0 0 Z " fill="#E8E8E8" transform="translate(772,555)"/></g><g><path d="M0 0 C5.61 0 11.22 0 17 0 C17.021 2.619 17.041 5.239 17.062 7.938 C17.072 8.764 17.081 9.59 17.09 10.441 C17.097 12.294 17.05 14.147 17 16 C16 17 16 17 12.402 17.098 C10.914 17.092 9.426 17.079 7.938 17.062 C5.318 17.042 2.699 17.021 0 17 C0 11.39 0 5.78 0 0 Z " fill="#212121" transform="translate(325,650)"/></g><g><path d="M0 0 C3.929 -0.031 3.929 -0.031 7.938 -0.062 C8.764 -0.072 9.59 -0.081 10.441 -0.09 C12.294 -0.097 14.147 -0.05 16 0 C17 1 17 1 17.098 4.598 C17.092 6.086 17.079 7.574 17.062 9.062 C17.042 11.682 17.021 14.301 17 17 C11.39 17 5.78 17 0 17 C0 11.39 0 5.78 0 0 Z " fill="#2E2E2F" transform="translate(289,650)"/></g><g><path d="M0 0 C10.84 -0.098 10.84 -0.098 14 0 C15 1 15 1 15.114 2.766 C15.108 3.515 15.103 4.264 15.098 5.035 C15.094 5.844 15.091 6.653 15.088 7.486 C15.08 8.336 15.071 9.187 15.062 10.062 C15.058 10.917 15.053 11.771 15.049 12.65 C15.037 14.767 15.019 16.883 15 19 C10.05 19 5.1 19 0 19 C0 12.73 0 6.46 0 0 Z " fill="#161616" transform="translate(590,753)"/></g><g><path d="M0 0 C0.33 0 0.66 0 1 0 C1 47.85 1 95.7 1 145 C-4.61 145.33 -10.22 145.66 -16 146 C-16.33 146.99 -16.66 147.98 -17 149 C-18.65 148.67 -20.3 148.34 -22 148 C-22 144.04 -22 140.08 -22 136 C-19.36 136 -16.72 136 -14 136 C-14 138.64 -14 141.28 -14 144 C-12.35 144 -10.7 144 -9 144 C-9 133.77 -9 123.54 -9 113 C-8.67 113 -8.34 113 -8 113 C-8 123.23 -8 133.46 -8 144 C-5.36 144 -2.72 144 0 144 C0 96.48 0 48.96 0 0 Z " fill="#828182" transform="translate(671,552)"/></g><g><path d="M0 0 C0.66 0 1.32 0 2 0 C2 0.66 2 1.32 2 2 C2.638 2.205 3.276 2.41 3.934 2.621 C4.76 2.891 5.586 3.16 6.438 3.438 C7.261 3.704 8.085 3.971 8.934 4.246 C11 5 11 5 12 6 C12.087 7.489 12.107 8.981 12.098 10.473 C12.094 11.372 12.091 12.271 12.088 13.197 C12.08 14.143 12.071 15.088 12.062 16.062 C12.058 17.012 12.053 17.961 12.049 18.939 C12.037 21.293 12.019 23.647 12 26 C8.04 26 4.08 26 0 26 C0 17.42 0 8.84 0 0 Z " fill="#E8E8E8" transform="translate(143,759)"/></g><g><path d="M0 0 C4.95 0 9.9 0 15 0 C15.027 2.813 15.047 5.625 15.062 8.438 C15.071 9.24 15.079 10.042 15.088 10.869 C15.097 12.913 15.052 14.957 15 17 C14 18 14 18 10.84 18.098 C7.227 18.065 3.613 18.033 0 18 C0 12.06 0 6.12 0 0 Z " fill="#212121" transform="translate(402,719)"/></g><g><path d="M0 0 C10.84 -0.098 10.84 -0.098 14 0 C15 1 15 1 15.098 4.816 C15.091 6.398 15.079 7.981 15.062 9.562 C15.058 10.369 15.053 11.175 15.049 12.006 C15.037 14.004 15.019 16.002 15 18 C10.05 18 5.1 18 0 18 C0 12.06 0 6.12 0 0 Z " fill="#212121" transform="translate(377,719)"/></g><g><path d="M0 0 C10.84 -0.098 10.84 -0.098 14 0 C15.746 1.746 15.132 3.999 15.137 6.322 C15.133 7.02 15.129 7.718 15.125 8.438 C15.129 9.132 15.133 9.826 15.137 10.541 C15.127 15.747 15.127 15.747 14 18 C9.38 18 4.76 18 0 18 C0 12.06 0 6.12 0 0 Z " fill="#212121" transform="translate(427,719)"/></g><g><path d="M0 0 C2.97 0 5.94 0 9 0 C9 9.57 9 19.14 9 29 C6.03 29 3.06 29 0 29 C0 19.43 0 9.86 0 0 Z " fill="#FEFEFE" transform="translate(329,756)"/></g><g><path d="M0 0 C4.95 0 9.9 0 15 0 C15 5.61 15 11.22 15 17 C10.05 17 5.1 17 0 17 C0 11.39 0 5.78 0 0 Z " fill="#161616" transform="translate(675,753)"/></g><g><path d="M0 0 C4.62 0 9.24 0 14 0 C14.027 2.813 14.047 5.625 14.062 8.438 C14.071 9.24 14.079 10.042 14.088 10.869 C14.097 12.913 14.052 14.957 14 17 C13 18 13 18 10.059 18.098 C6.706 18.065 3.353 18.033 0 18 C0 12.06 0 6.12 0 0 Z " fill="#161616" transform="translate(653,753)"/></g><g><path d="M0 0 C5.61 0 11.22 0 17 0 C17.098 10.059 17.098 10.059 17 13 C16 14 16 14 12.402 14.098 C10.914 14.091 9.426 14.079 7.938 14.062 C6.8 14.056 6.8 14.056 5.639 14.049 C3.759 14.037 1.88 14.019 0 14 C0 9.38 0 4.76 0 0 Z " fill="#212121" transform="translate(325,724)"/></g><g><path d="M0 0 C2.646 -0.027 5.292 -0.047 7.938 -0.062 C8.692 -0.071 9.447 -0.079 10.225 -0.088 C12.15 -0.097 14.075 -0.052 16 0 C17 1 17 1 17.133 3.688 C17.13 4.781 17.128 5.874 17.125 7 C17.129 8.64 17.129 8.64 17.133 10.312 C17 13 17 13 16 14 C13.303 14.073 10.633 14.092 7.938 14.062 C6.8 14.056 6.8 14.056 5.639 14.049 C3.759 14.037 1.88 14.019 0 14 C0 9.38 0 4.76 0 0 Z " fill="#212121" transform="translate(289,724)"/></g><g><path d="M0 0 C5.61 0 11.22 0 17 0 C17.098 9.277 17.098 9.277 17 12 C16 13 16 13 12.402 13.098 C10.914 13.091 9.426 13.079 7.938 13.062 C6.8 13.056 6.8 13.056 5.639 13.049 C3.759 13.037 1.88 13.019 0 13 C0 8.71 0 4.42 0 0 Z " fill="#161616" transform="translate(289,702)"/></g><g><path d="M0 0 C5.61 0 11.22 0 17 0 C17.098 9.277 17.098 9.277 17 12 C16 13 16 13 12.402 13.098 C10.914 13.091 9.426 13.079 7.938 13.062 C6.8 13.056 6.8 13.056 5.639 13.049 C3.759 13.037 1.88 13.019 0 13 C0 8.71 0 4.42 0 0 Z " fill="#161616" transform="translate(325,702)"/></g><g><path d="M0 0 C5.61 0 11.22 0 17 0 C17.098 9.277 17.098 9.277 17 12 C16 13 16 13 12.402 13.098 C10.914 13.091 9.426 13.079 7.938 13.062 C6.8 13.056 6.8 13.056 5.639 13.049 C3.759 13.037 1.88 13.019 0 13 C0 8.71 0 4.42 0 0 Z " fill="#161616" transform="translate(325,678)"/></g><g><path d="M0 0 C4.62 0 9.24 0 14 0 C14 4.95 14 9.9 14 15 C9.38 15 4.76 15 0 15 C0 10.05 0 5.1 0 0 Z " fill="#161616" transform="translate(427,753)"/></g><g><path d="M0 0 C4.62 0 9.24 0 14 0 C14 4.95 14 9.9 14 15 C9.38 15 4.76 15 0 15 C0 10.05 0 5.1 0 0 Z " fill="#161616" transform="translate(377,753)"/></g><g><path d="M0 0 C5.28 0 10.56 0 16 0 C16 4.29 16 8.58 16 13 C10.72 13 5.44 13 0 13 C0 8.71 0 4.42 0 0 Z " fill="#212121" transform="translate(289,678)"/></g><g><path d="M0 0 C0.33 0 0.66 0 1 0 C1 7.92 1 15.84 1 24 C-2.63 24 -6.26 24 -10 24 C-10.162 21.581 -10.281 19.172 -10.375 16.75 C-10.425 16.068 -10.476 15.386 -10.527 14.684 C-10.586 12.672 -10.586 12.672 -10 9 C-7.121 6.688 -7.121 6.688 -4 5 C-2.626 3.366 -1.281 1.707 0 0 Z " fill="#FEFEFE" transform="translate(481,760)"/></g><g><path d="M0 0 C0.374 7.474 -0.959 13.821 -3 21 C-4.938 21.562 -4.938 21.562 -7 22 C-7.33 21.67 -7.66 21.34 -8 21 C-7.91 18.643 -7.753 16.288 -7.562 13.938 C-7.461 12.647 -7.359 11.357 -7.254 10.027 C-7.17 9.028 -7.086 8.029 -7 7 C-7.736 7.164 -8.472 7.327 -9.23 7.496 C-11.683 7.942 -13.831 8.105 -16.312 8.062 C-18.138 8.032 -18.138 8.032 -20 8 C-19.67 6.35 -19.34 4.7 -19 3 C-16.96 2.492 -14.918 1.994 -12.875 1.5 C-11.738 1.222 -10.601 0.943 -9.43 0.656 C-6.185 0.035 -3.292 -0.12 0 0 Z " fill="#161616" transform="translate(814,335)"/></g><g><path d="M0 0 C7.59 0 15.18 0 23 0 C22.67 2.97 22.34 5.94 22 9 C19.36 9 16.72 9 14 9 C14 7.35 14 5.7 14 4 C13.01 4.495 13.01 4.495 12 5 C11.348 7.025 11.348 7.025 11 9 C7.625 9.125 7.625 9.125 4 9 C3.34 8.34 2.68 7.68 2 7 C1.67 11.62 1.34 16.24 1 21 C8.26 21 15.52 21 23 21 C23 21.33 23 21.66 23 22 C15.41 22 7.82 22 0 22 C0 14.74 0 7.48 0 0 Z " fill="#484848" transform="translate(567,713)"/></g><g><path d="M0 0 C4.95 1.98 4.95 1.98 10 4 C10 8.95 10 13.9 10 19 C6.7 19 3.4 19 0 19 C0 12.73 0 6.46 0 0 Z " fill="#FEFEFE" transform="translate(457,765)"/></g><g><path d="M0 0 C3.63 0 7.26 0 11 0 C11 4.29 11 8.58 11 13 C7.37 13 3.74 13 0 13 C0 8.71 0 4.42 0 0 Z " fill="#CBCCCC" transform="translate(863,711)"/></g><g><path d="M0 0 C0 6.93 0 13.86 0 21 C-2.31 21 -4.62 21 -7 21 C-7.162 18.248 -7.281 15.505 -7.375 12.75 C-7.425 11.973 -7.476 11.195 -7.527 10.395 C-7.586 8.116 -7.564 6.21 -7 4 C-2.35 0 -2.35 0 0 0 Z " fill="#D3D7D8" transform="translate(234,764)"/></g><g><path d="M0 0 C3.3 0 6.6 0 10 0 C10 4.29 10 8.58 10 13 C6.7 13 3.4 13 0 13 C0 8.71 0 4.42 0 0 Z " fill="#595A59" transform="translate(891,711)"/></g><g><path d="M0 0 C2.097 1.692 2.927 2.582 3.398 5.277 C3.336 12.418 2.459 19.254 0 26 C-0.66 26.33 -1.32 26.66 -2 27 C-3.143 22.882 -3.221 18.874 -3.25 14.625 C-3.271 13.883 -3.291 13.14 -3.312 12.375 C-3.347 7.488 -2.588 4.29 0 0 Z " fill="#F3F3F3" transform="translate(159,725)"/></g><g><path d="M0 0 C2.64 0 5.28 0 8 0 C8 4.62 8 9.24 8 14 C5.36 14 2.72 14 0 14 C0 9.38 0 4.76 0 0 Z " fill="#E8E8E8" transform="translate(818,647)"/></g><g><path d="M0 0 C2.97 0 5.94 0 9 0 C9 3.96 9 7.92 9 12 C6.03 12 3.06 12 0 12 C0 8.04 0 4.08 0 0 Z " fill="#E8E8E8" transform="translate(593,757)"/></g><g><path d="M0 0 C3.473 1.391 4.709 2.641 6.188 6.062 C8.117 10.724 8.681 14.983 9 20 C4.802 17.481 1.779 15.645 0 11 C-0.234 7.319 -0.174 3.683 0 0 Z " fill="#E8E8E8" transform="translate(214,744)"/></g><g><path d="M0 0 C2.97 0 5.94 0 9 0 C9 3.63 9 7.26 9 11 C6.03 11 3.06 11 0 11 C0 7.37 0 3.74 0 0 Z " fill="#F3F3F3" transform="translate(555,675)"/></g><g><path d="M0 0 C2.97 0 5.94 0 9 0 C9 3.63 9 7.26 9 11 C6.03 11 3.06 11 0 11 C0 7.37 0 3.74 0 0 Z " fill="#E8E8E8" transform="translate(629,673)"/></g><g><path d="M0 0 C2.97 0 5.94 0 9 0 C9 3.63 9 7.26 9 11 C6.03 11 3.06 11 0 11 C0 7.37 0 3.74 0 0 Z " fill="#D3D7D8" transform="translate(582,657)"/></g><g><path d="M0 0 C2.97 0 5.94 0 9 0 C9 3.63 9 7.26 9 11 C6.03 11 3.06 11 0 11 C0 7.37 0 3.74 0 0 Z " fill="#E8E8E8" transform="translate(629,626)"/></g><g><path d="M0 0 C2.97 0 5.94 0 9 0 C9 3.63 9 7.26 9 11 C6.03 11 3.06 11 0 11 C0 7.37 0 3.74 0 0 Z " fill="#D3D7D8" transform="translate(582,626)"/></g><g><path d="M0 0 C2.97 0 5.94 0 9 0 C9 3.63 9 7.26 9 11 C6.03 11 3.06 11 0 11 C0 7.37 0 3.74 0 0 Z " fill="#E8E8E8" transform="translate(629,595)"/></g><g><path d="M0 0 C2.97 0 5.94 0 9 0 C9 3.63 9 7.26 9 11 C6.03 11 3.06 11 0 11 C0 7.37 0 3.74 0 0 Z " fill="#D3D7D8" transform="translate(582,595)"/></g><g><path d="M0 0 C2.97 0 5.94 0 9 0 C9.027 1.646 9.046 3.292 9.062 4.938 C9.074 5.854 9.086 6.771 9.098 7.715 C9 10 9 10 8 11 C5.329 11.141 2.676 11.042 0 11 C0 7.37 0 3.74 0 0 Z " fill="#D3D7D8" transform="translate(380,723)"/></g><g><path d="M0 0 C2.64 0 5.28 0 8 0 C8 3.96 8 7.92 8 12 C5.36 12 2.72 12 0 12 C0 8.04 0 4.08 0 0 Z " fill="#E8E8E8" transform="translate(630,610)"/></g><g><path d="M0 0 C5.61 0 11.22 0 17 0 C17.098 9.277 17.098 9.277 17 12 C16 13 16 13 12.402 13.098 C10.914 13.091 9.426 13.079 7.938 13.062 C6.8 13.056 6.8 13.056 5.639 13.049 C3.759 13.037 1.88 13.019 0 13 C0 8.71 0 4.42 0 0 Z M8.438 1.5 C6.641 1.639 6.641 1.639 4.809 1.781 C3.882 1.853 2.955 1.926 2 2 C1.959 3.279 1.918 4.558 1.875 5.875 C1.852 6.594 1.829 7.314 1.805 8.055 C1.817 10.239 1.817 10.239 4 12 C6.899 12.243 6.899 12.243 10.125 12.125 C11.769 12.098 11.769 12.098 13.445 12.07 C14.288 12.047 15.131 12.024 16 12 C16 8.37 16 4.74 16 1 C13.483 1 10.944 1.305 8.438 1.5 Z " fill="#212121" transform="translate(325,702)"/></g><g><path d="M0 0 C0.33 0 0.66 0 1 0 C1 6.27 1 12.54 1 19 C-6.26 19 -13.52 19 -21 19 C-20.67 17.68 -20.34 16.36 -20 15 C-16.7 15.33 -13.4 15.66 -10 16 C-10 14.35 -10 12.7 -10 11 C-9.67 11 -9.34 11 -9 11 C-9 12.65 -9 14.3 -9 16 C-6.36 16 -3.72 16 -1 16 C-0.67 10.72 -0.34 5.44 0 0 Z " fill="#0B0A0B" transform="translate(589,715)"/></g><g><path d="M0 0 C0.66 0 1.32 0 2 0 C3.621 2.266 3.621 2.266 5.438 5.25 C7.92 9.322 7.92 9.322 10.723 13.172 C12 15 12 15 12 18 C6.536 16.283 3.5 13.069 0.188 8.5 C-1.122 5.744 -1.335 4.014 -1 1 C-0.67 0.67 -0.34 0.34 0 0 Z " fill="#E8E8E8" transform="translate(142,742)"/></g><g><path d="M0 0 C5.28 0 10.56 0 16 0 C16 4.29 16 8.58 16 13 C10.72 13 5.44 13 0 13 C0 8.71 0 4.42 0 0 Z M2 2 C2 4.97 2 7.94 2 11 C6.29 11 10.58 11 15 11 C15 8.03 15 5.06 15 2 C10.71 2 6.42 2 2 2 Z " fill="#161616" transform="translate(289,678)"/></g><g><path d="M0 0 C1.98 0.495 1.98 0.495 4 1 C4.463 9.312 4.226 15.7 0 23 C-0.33 23 -0.66 23 -1 23 C-1.029 19.542 -1.047 16.083 -1.062 12.625 C-1.071 11.64 -1.079 10.655 -1.088 9.641 C-1.091 8.7 -1.094 7.759 -1.098 6.789 C-1.103 5.92 -1.108 5.05 -1.114 4.155 C-1 2 -1 2 0 0 Z " fill="#F3F3F3" transform="translate(114,731)"/></g><g><path d="M0 0 C3.3 0 6.6 0 10 0 C10 2.97 10 5.94 10 9 C6.7 9 3.4 9 0 9 C0 6.03 0 3.06 0 0 Z " fill="#FEFEFE" transform="translate(328,654)"/></g><g><path d="M0 0 C2.64 0 5.28 0 8 0 C8 3.63 8 7.26 8 11 C5.36 11 2.72 11 0 11 C0 7.37 0 3.74 0 0 Z " fill="#E8E8E8" transform="translate(678,756)"/></g><g><path d="M0 0 C2.64 0 5.28 0 8 0 C8 3.63 8 7.26 8 11 C5.36 11 2.72 11 0 11 C0 7.37 0 3.74 0 0 Z " fill="#F3F3F3" transform="translate(607,688)"/></g><g><path d="M0 0 C2.64 0 5.28 0 8 0 C8 3.63 8 7.26 8 11 C5.36 11 2.72 11 0 11 C0 7.37 0 3.74 0 0 Z " fill="#E8E8E8" transform="translate(649,673)"/></g><g><path d="M0 0 C2.64 0 5.28 0 8 0 C8 3.63 8 7.26 8 11 C5.36 11 2.72 11 0 11 C0 7.37 0 3.74 0 0 Z " fill="#F3F3F3" transform="translate(607,657)"/></g><g><path d="M0 0 C2.64 0 5.28 0 8 0 C8 3.63 8 7.26 8 11 C5.36 11 2.72 11 0 11 C0 7.37 0 3.74 0 0 Z " fill="#F3F3F3" transform="translate(607,642)"/></g><g><path d="M0 0 C2.64 0 5.28 0 8 0 C8 3.63 8 7.26 8 11 C5.36 11 2.72 11 0 11 C0 7.37 0 3.74 0 0 Z " fill="#E8E8E8" transform="translate(582,642)"/></g><g><path d="M0 0 C2.64 0 5.28 0 8 0 C8 3.63 8 7.26 8 11 C5.36 11 2.72 11 0 11 C0 7.37 0 3.74 0 0 Z " fill="#F3F3F3" transform="translate(630,642)"/></g><g><path d="M0 0 C2.64 0 5.28 0 8 0 C8 3.63 8 7.26 8 11 C5.36 11 2.72 11 0 11 C0 7.37 0 3.74 0 0 Z " fill="#E8E8E8" transform="translate(649,610)"/></g><g><path d="M0 0 C2.646 -0.027 5.292 -0.047 7.938 -0.062 C8.692 -0.071 9.447 -0.079 10.225 -0.088 C12.15 -0.097 14.075 -0.052 16 0 C17 1 17 1 17.133 3.688 C17.13 4.781 17.128 5.874 17.125 7 C17.129 8.64 17.129 8.64 17.133 10.312 C17 13 17 13 16 14 C13.303 14.073 10.633 14.092 7.938 14.062 C6.8 14.056 6.8 14.056 5.639 14.049 C3.759 14.037 1.88 14.019 0 14 C0 9.38 0 4.76 0 0 Z M1 3 C1 6.3 1 9.6 1 13 C5.95 13 10.9 13 16 13 C16.021 11.536 16.041 10.071 16.062 8.562 C16.074 7.739 16.086 6.915 16.098 6.066 C16.233 4.008 16.233 4.008 15 3 C12.647 2.927 10.292 2.916 7.938 2.938 C6.647 2.947 5.357 2.956 4.027 2.965 C3.028 2.976 2.029 2.988 1 3 Z " fill="#2E2E2F" transform="translate(289,724)"/></g><g><path d="M0 0 C0.459 5.732 -0.344 8.553 -4 13 C-8.421 17 -8.421 17 -11 17 C-10.42 13.355 -9.443 10.582 -7.625 7.375 C-7.205 6.62 -6.785 5.864 -6.352 5.086 C-3.056 0 -3.056 0 0 0 Z " fill="#E8E8E8" transform="translate(170,743)"/></g><g><path d="M0 0 C2.97 0 5.94 0 9 0 C9 2.97 9 5.94 9 9 C6.03 9 3.06 9 0 9 C0 6.03 0 3.06 0 0 Z " fill="#FEFEFE" transform="translate(293,654)"/></g><g><path d="M0 0 C2.64 0 5.28 0 8 0 C8 3.3 8 6.6 8 10 C5.36 10 2.72 10 0 10 C0 6.7 0 3.4 0 0 Z " fill="#F3F3F3" transform="translate(656,756)"/></g><g><path d="M0 0 C2.64 0 5.28 0 8 0 C8 3.3 8 6.6 8 10 C5.36 10 2.72 10 0 10 C0 6.7 0 3.4 0 0 Z " fill="#F3F3F3" transform="translate(430,723)"/></g><g><path d="M0 0 C2.64 0 5.28 0 8 0 C8 3.3 8 6.6 8 10 C5.36 10 2.72 10 0 10 C0 6.7 0 3.4 0 0 Z " fill="#F3F3F3" transform="translate(405,723)"/></g><g><path d="M0 0 C2.64 0 5.28 0 8 0 C8 3.3 8 6.6 8 10 C5.36 10 2.72 10 0 10 C0 6.7 0 3.4 0 0 Z " fill="#FEFEFE" transform="translate(630,704)"/></g><g><path d="M0 0 C2.64 0 5.28 0 8 0 C8 3.3 8 6.6 8 10 C5.36 10 2.72 10 0 10 C0 6.7 0 3.4 0 0 Z " fill="#FEFEFE" transform="translate(630,689)"/></g><g><path d="M0 0 C2.64 0 5.28 0 8 0 C8 3.3 8 6.6 8 10 C5.36 10 2.72 10 0 10 C0 6.7 0 3.4 0 0 Z " fill="#FEFEFE" transform="translate(607,673)"/></g><g><path d="M0 0 C2.64 0 5.28 0 8 0 C8 3.3 8 6.6 8 10 C5.36 10 2.72 10 0 10 C0 6.7 0 3.4 0 0 Z " fill="#FEFEFE" transform="translate(630,658)"/></g><g><path d="M0 0 C2.64 0 5.28 0 8 0 C8 3.3 8 6.6 8 10 C5.36 10 2.72 10 0 10 C0 6.7 0 3.4 0 0 Z " fill="#FEFEFE" transform="translate(607,627)"/></g><g><path d="M0 0 C2.64 0 5.28 0 8 0 C8 3.3 8 6.6 8 10 C5.36 10 2.72 10 0 10 C0 6.7 0 3.4 0 0 Z " fill="#FEFEFE" transform="translate(607,611)"/></g><g><path d="M0 0 C2.64 0 5.28 0 8 0 C8 3.3 8 6.6 8 10 C5.36 10 2.72 10 0 10 C0 6.7 0 3.4 0 0 Z " fill="#FEFEFE" transform="translate(607,595)"/></g><g><path d="M0 0 C2.64 0 5.28 0 8 0 C8 3.3 8 6.6 8 10 C5.36 10 2.72 10 0 10 C0 6.7 0 3.4 0 0 Z " fill="#FEFEFE" transform="translate(630,580)"/></g><g><path d="M0 0 C2.64 0 5.28 0 8 0 C8 3.3 8 6.6 8 10 C5.36 10 2.72 10 0 10 C0 6.7 0 3.4 0 0 Z " fill="#FEFEFE" transform="translate(607,580)"/></g><g><path d="M0 0 C0.66 0 1.32 0 2 0 C2.626 9.77 2.626 9.77 0.188 14.562 C-2 17 -2 17 -5 19 C-4.757 11.598 -4.32 6.131 0 0 Z " fill="#F3F3F3" transform="translate(233,743)"/></g><g><path d="M0 0 C5.28 0 10.56 0 16 0 C16 9.9 16 19.8 16 30 C10.72 30 5.44 30 0 30 C0 29.67 0 29.34 0 29 C4.95 29 9.9 29 15 29 C14.67 25.04 14.34 21.08 14 17 C13.01 17 12.02 17 11 17 C11 15.35 11 13.7 11 12 C11.99 12 12.98 12 14 12 C14.33 8.37 14.66 4.74 15 1 C10.05 1 5.1 1 0 1 C0 0.67 0 0.34 0 0 Z " fill="#6B6C6C" transform="translate(309,755)"/></g><g><path d="M0 0 C2.31 0 4.62 0 7 0 C7 3.63 7 7.26 7 11 C4.69 11 2.38 11 0 11 C0 7.37 0 3.74 0 0 Z " fill="#E8E8E8" transform="translate(799,755)"/></g><g><path d="M0 0 C3.63 0 7.26 0 11 0 C11 2.31 11 4.62 11 7 C7.37 7 3.74 7 0 7 C0 4.69 0 2.38 0 0 Z " fill="#2E2E2F" transform="translate(328,728)"/></g><g><path d="M0 0 C2.31 0 4.62 0 7 0 C7 3.63 7 7.26 7 11 C4.69 11 2.38 11 0 11 C0 7.37 0 3.74 0 0 Z " fill="#E8E8E8" transform="translate(800,714)"/></g><g><path d="M0 0 C2.31 0 4.62 0 7 0 C7 3.63 7 7.26 7 11 C4.69 11 2.38 11 0 11 C0 7.37 0 3.74 0 0 Z " fill="#FEFEFE" transform="translate(650,657)"/></g><g><path d="M0 0 C2.31 0 4.62 0 7 0 C7 3.63 7 7.26 7 11 C4.69 11 2.38 11 0 11 C0 7.37 0 3.74 0 0 Z " fill="#F3F3F3" transform="translate(650,626)"/></g><g><path d="M0 0 C2.31 0 4.62 0 7 0 C7 3.63 7 7.26 7 11 C4.69 11 2.38 11 0 11 C0 7.37 0 3.74 0 0 Z " fill="#FEFEFE" transform="translate(650,595)"/></g><g><path d="M0 0 C2.31 0 4.62 0 7 0 C7 3.63 7 7.26 7 11 C4.69 11 2.38 11 0 11 C0 7.37 0 3.74 0 0 Z " fill="#F3F3F3" transform="translate(650,579)"/></g><g><path d="M0 0 C3.3 0 6.6 0 10 0 C10 1.98 10 3.96 10 6 C3.714 8.429 3.714 8.429 0 7 C0 4.69 0 2.38 0 0 Z " fill="#212121" transform="translate(329,681)"/></g><g><path d="M0 0 C2.31 0 4.62 0 7 0 C7 3.3 7 6.6 7 10 C4.69 10 2.38 10 0 10 C0 6.7 0 3.4 0 0 Z " fill="#FEFEFE" transform="translate(583,673)"/></g><g><path d="M0 0 C2.31 0 4.62 0 7 0 C7 3.3 7 6.6 7 10 C4.69 10 2.38 10 0 10 C0 6.7 0 3.4 0 0 Z " fill="#FEFEFE" transform="translate(650,642)"/></g><g><path d="M0 0 C2.31 0 4.62 0 7 0 C7 3.3 7 6.6 7 10 C4.69 10 2.38 10 0 10 C0 6.7 0 3.4 0 0 Z " fill="#FEFEFE" transform="translate(583,611)"/></g><g><path d="M0 0 C2.31 0 4.62 0 7 0 C7 3.3 7 6.6 7 10 C4.69 10 2.38 10 0 10 C0 6.7 0 3.4 0 0 Z " fill="#FEFEFE" transform="translate(583,580)"/></g><g><path d="M0 0 C1.5 1.375 1.5 1.375 3 3 C3 3.66 3 4.32 3 5 C4.98 5 6.96 5 9 5 C9 8.63 9 12.26 9 16 C6.03 15.505 6.03 15.505 3 15 C2.927 14.13 2.927 14.13 2.852 13.242 C2.404 8.561 1.702 4.425 0 0 Z " fill="#828182" transform="translate(474,729)"/></g><g><path d="M0 0 C0.66 0.33 1.32 0.66 2 1 C2.055 3.041 2.093 5.083 2.125 7.125 C2.148 8.262 2.171 9.399 2.195 10.57 C1.997 14.058 1.252 16.755 0 20 C-0.66 20 -1.32 20 -2 20 C-2.054 17.229 -2.094 14.459 -2.125 11.688 C-2.142 10.902 -2.159 10.116 -2.176 9.307 C-2.185 8.171 -2.185 8.171 -2.195 7.012 C-2.206 6.315 -2.216 5.619 -2.227 4.901 C-2 3 -2 3 0 0 Z " fill="#F3F3F3" transform="translate(470,735)"/></g><g><path d="M0 0 C2.864 1.043 3.892 1.826 5.52 4.461 C5.946 5.423 6.373 6.384 6.812 7.375 C7.252 8.331 7.692 9.288 8.145 10.273 C9.031 13.097 9.048 14.286 8 17 C7.036 15.921 6.079 14.837 5.125 13.75 C4.591 13.147 4.058 12.543 3.508 11.922 C0.354 7.902 -0.232 5.112 0 0 Z " fill="#E8E8E8" transform="translate(736,750)"/></g><g><path d="M0 0 C5.28 0 10.56 0 16 0 C16 6.27 16 12.54 16 19 C15.67 19 15.34 19 15 19 C15 13.06 15 7.12 15 1 C11.04 1 7.08 1 3 1 C3 5.62 3 10.24 3 15 C2.67 15 2.34 15 2 15 C-0.138 9.788 -0.168 5.545 0 0 Z " fill="#161616" transform="translate(888,708)"/></g><g><path d="M0 0 C2.64 0 5.28 0 8 0 C8 2.64 8 5.28 8 8 C5.36 8 2.72 8 0 8 C0 5.36 0 2.72 0 0 Z " fill="#3C3C3C" transform="translate(430,757)"/></g><g><path d="M0 0 C0.99 0 1.98 0 3 0 C3.46 5.756 2.513 8.453 -1 13 C-1.99 14.485 -1.99 14.485 -3 16 C-3.66 16 -4.32 16 -5 16 C-4.549 13.894 -4.089 11.79 -3.625 9.688 C-3.37 8.516 -3.115 7.344 -2.852 6.137 C-2 3 -2 3 0 0 Z " fill="#E8E8E8" transform="translate(476,748)"/></g><g><path d="M0 0 C0.66 0 1.32 0 2 0 C2 2.64 2 5.28 2 8 C5.63 8 9.26 8 13 8 C13 5.36 13 2.72 13 0 C13.66 0.33 14.32 0.66 15 1 C15 3.97 15 6.94 15 10 C10.05 10 5.1 10 0 10 C0 6.7 0 3.4 0 0 Z " fill="#0B0A0B" transform="translate(290,727)"/></g><g><path d="M0 0 C1.98 0 3.96 0 6 0 C6 3.3 6 6.6 6 10 C4.02 10 2.04 10 0 10 C0 6.7 0 3.4 0 0 Z " fill="#FEFEFE" transform="translate(810,756)"/></g><g><path d="M0 0 C1.98 0 3.96 0 6 0 C6 3.3 6 6.6 6 10 C4.02 10 2.04 10 0 10 C0 6.7 0 3.4 0 0 Z " fill="#FEFEFE" transform="translate(810,715)"/></g><g><path d="M0 0 C1.98 0 3.96 0 6 0 C6.027 1.479 6.046 2.958 6.062 4.438 C6.074 5.261 6.086 6.085 6.098 6.934 C6 9 6 9 5 10 C3.35 10 1.7 10 0 10 C0 6.7 0 3.4 0 0 Z " fill="#FEFEFE" transform="translate(650,689)"/></g><g><path d="M0 0 C0.33 0 0.66 0 1 0 C1 12.87 1 25.74 1 39 C1.66 39 2.32 39 3 39 C3.33 39.99 3.66 40.98 4 42 C2.68 43.32 1.36 44.64 0 46 C0 30.82 0 15.64 0 0 Z " fill="#AEB2B4" transform="translate(475,684)"/></g><g><path d="M0 0 C1.65 0 3.3 0 5 0 C5.077 4.516 5.102 8.591 4 13 C3.34 12.01 2.68 11.02 2 10 C-0.31 12.31 -2.62 14.62 -5 17 C-5 14 -5 14 -3.723 12.535 C-2.619 11.556 -1.514 10.577 -0.41 9.598 C1.211 7.761 1.592 6.388 2 4 C1.01 4 0.02 4 -1 4 C-0.67 2.68 -0.34 1.36 0 0 Z " fill="#E8E8E8" transform="translate(802,342)"/></g><g><path d="M0 0 C2.31 0 4.62 0 7 0 C7.027 1.979 7.046 3.958 7.062 5.938 C7.074 7.04 7.086 8.142 7.098 9.277 C7 12 7 12 6 13 C3.303 13.073 0.633 13.092 -2.062 13.062 C-3.2 13.056 -3.2 13.056 -4.361 13.049 C-6.241 13.037 -8.12 13.019 -10 13 C-10 12.67 -10 12.34 -10 12 C-5.38 11.67 -0.76 11.34 4 11 C4 8.36 4 5.72 4 3 C2.35 2.67 0.7 2.34 -1 2 C-0.67 1.34 -0.34 0.68 0 0 Z " fill="#2E2E2F" transform="translate(335,678)"/></g><g><path d="M0 0 C0.99 0 1.98 0 3 0 C2.697 6.055 -0.278 9.515 -4 14 C-5.065 11.27 -5.08 10.207 -4.004 7.422 C-3.528 6.54 -3.053 5.658 -2.562 4.75 C-2.089 3.858 -1.616 2.966 -1.129 2.047 C-0.756 1.371 -0.384 0.696 0 0 Z " fill="#CBCCCC" transform="translate(755,754)"/></g><g><path d="M0 0 C3.3 0 6.6 0 10 0 C10 1.65 10 3.3 10 5 C6.7 5 3.4 5 0 5 C0 3.35 0 1.7 0 0 Z " fill="#2E2E2F" transform="translate(292,705)"/></g><g><path d="M0 0 C0.66 0 1.32 0 2 0 C2.327 6.131 2.394 10.627 -1 16 C-1.33 16 -1.66 16 -2 16 C-2.054 14.084 -2.093 12.167 -2.125 10.25 C-2.148 9.183 -2.171 8.115 -2.195 7.016 C-2.005 4.075 -1.527 2.476 0 0 Z " fill="#A5A8AA" transform="translate(750,740)"/></g><g><path d="M0 0 C2.97 0 5.94 0 9 0 C9 1.65 9 3.3 9 5 C6.03 5 3.06 5 0 5 C0 3.35 0 1.7 0 0 Z " fill="#D3D7D8" transform="translate(550,756)"/></g><g><path d="M0 0 C3.212 2.91 5.036 5.618 6.812 9.562 C7.472 10.988 7.472 10.988 8.145 12.441 C9 15 9 15 8 18 C6.652 15.946 5.322 13.883 4 11.812 C3.618 11.234 3.237 10.656 2.844 10.061 C0.632 6.566 -0.501 4.155 0 0 Z " fill="#D3D7D8" transform="translate(457,745)"/></g><g><path d="M0 0 C2.97 0 5.94 0 9 0 C9 1.65 9 3.3 9 5 C6.03 5 3.06 5 0 5 C0 3.35 0 1.7 0 0 Z " fill="#FEFEFE" transform="translate(891,712)"/></g><g><path d="M0 0 C1.98 0 3.96 0 6 0 C6 2.31 6 4.62 6 7 C4.02 7 2.04 7 0 7 C0 4.69 0 2.38 0 0 Z " fill="#595A59" transform="translate(381,757)"/></g><g><path d="M0 0 C2.31 0 4.62 0 7 0 C7 1.98 7 3.96 7 6 C4.69 6 2.38 6 0 6 C0 4.02 0 2.04 0 0 Z " fill="#D3D7D8" transform="translate(571,725)"/></g><g><path d="M0 0 C6.344 -0.488 6.344 -0.488 9.438 1.812 C11 4 11 4 11 7 C10.01 7.33 9.02 7.66 8 8 C5.957 6.602 5.957 6.602 3.812 4.625 C3.097 3.978 2.382 3.331 1.645 2.664 C0 1 0 1 0 0 Z " fill="#595A59" transform="translate(583,688)"/></g><g><path d="M0 0 C3.3 0 6.6 0 10 0 C9.67 0.66 9.34 1.32 9 2 C5.938 2.625 5.938 2.625 3 3 C3 5.97 3 8.94 3 12 C2.01 12 1.02 12 0 12 C0 8.04 0 4.08 0 0 Z " fill="#0B0A0B" transform="translate(325,678)"/></g><g><path d="M0 0 C1.98 0 3.96 0 6 0 C6 1.98 6 3.96 6 6 C4.02 6 2.04 6 0 6 C0 4.02 0 2.04 0 0 Z " fill="#E8E8E8" transform="translate(581,725)"/></g><g><path d="M0 0 C2.97 0 5.94 0 9 0 C9 1.32 9 2.64 9 4 C6.03 4 3.06 4 0 4 C0 2.68 0 1.36 0 0 Z " fill="#FEFEFE" transform="translate(891,719)"/></g><g><path d="M0 0 C2.97 0 5.94 0 9 0 C9 1.32 9 2.64 9 4 C6.03 4 3.06 4 0 4 C0 2.68 0 1.36 0 0 Z " fill="#FEFEFE" transform="translate(864,719)"/></g><g><path d="M0 0 C2.31 0 4.62 0 7 0 C7 1.65 7 3.3 7 5 C4.69 5 2.38 5 0 5 C0 3.35 0 1.7 0 0 Z " fill="#D3D7D8" transform="translate(507,765)"/></g><g><path d="M0 0 C2.31 0 4.62 0 7 0 C7 1.65 7 3.3 7 5 C4.69 5 2.38 5 0 5 C0 3.35 0 1.7 0 0 Z " fill="#E8E8E8" transform="translate(496,757)"/></g><g><path d="M0 0 C0.33 0 0.66 0 1 0 C1 5.28 1 10.56 1 16 C-0.65 16 -2.3 16 -4 16 C-3.693 15.469 -3.386 14.938 -3.07 14.391 C-1.784 11.519 -1.348 8.858 -0.875 5.75 C-0.707 4.672 -0.54 3.595 -0.367 2.484 C-0.246 1.665 -0.125 0.845 0 0 Z " fill="#0B0A0B" transform="translate(666,754)"/></g><g><path d="M0 0 C2.31 0 4.62 0 7 0 C7 1.65 7 3.3 7 5 C4.69 5 2.38 5 0 5 C0 3.35 0 1.7 0 0 Z " fill="#E8E8E8" transform="translate(571,717)"/></g><g><path d="M0 0 C1.707 1.281 3.374 2.618 5 4 C5 4.66 5 5.32 5 6 C2.03 6 -0.94 6 -4 6 C-2 2 -2 2 0 0 Z " fill="#F3F3F3" transform="translate(681,705)"/></g><g><path d="M0 0 C0.66 0 1.32 0 2 0 C3.389 1.961 4.726 3.962 6 6 C2.7 6 -0.6 6 -4 6 C-2.726 3.962 -1.389 1.961 0 0 Z " fill="#E8E8E8" transform="translate(719,705)"/></g><g><path d="M0 0 C2.64 0 5.28 0 8 0 C8 1.32 8 2.64 8 4 C5.36 4 2.72 4 0 4 C0 2.68 0 1.36 0 0 Z " fill="#E8E8E8" transform="translate(496,765)"/></g><g><path d="M0 0 C1.98 0 3.96 0 6 0 C6 1.65 6 3.3 6 5 C4.02 5 2.04 5 0 5 C0 3.35 0 1.7 0 0 Z " fill="#FEFEFE" transform="translate(581,717)"/></g><g><path d="M0 0 C2.31 0 4.62 0 7 0 C7 1.32 7 2.64 7 4 C4.69 4 2.38 4 0 4 C0 2.68 0 1.36 0 0 Z " fill="#FEFEFE" transform="translate(517,765)"/></g><g><path d="M0 0 C2.31 0 4.62 0 7 0 C7 1.32 7 2.64 7 4 C4.69 4 2.38 4 0 4 C0 2.68 0 1.36 0 0 Z " fill="#F3F3F3" transform="translate(517,757)"/></g><g><path d="M0 0 C0.99 0 1.98 0 3 0 C4 6.75 4 6.75 4 9 C3.01 9 2.02 9 1 9 C0.67 6.03 0.34 3.06 0 0 Z " fill="#F3F3F3" transform="translate(651,690)"/></g><g><path d="M0 0 C1.65 0 3.3 0 5 0 C5 1.65 5 3.3 5 5 C3.35 5 1.7 5 0 5 C0 3.35 0 1.7 0 0 Z " fill="#0B0A0B" transform="translate(284,522)"/></g><g><path d="M0 0 C1.65 0 3.3 0 5 0 C5 1.65 5 3.3 5 5 C3.35 5 1.7 5 0 5 C0 3.35 0 1.7 0 0 Z " fill="#0B0A0B" transform="translate(272,522)"/></g><g><path d="M0 0 C1.65 0 3.3 0 5 0 C5 1.65 5 3.3 5 5 C3.35 5 1.7 5 0 5 C0 3.35 0 1.7 0 0 Z " fill="#0B0A0B" transform="translate(259,522)"/></g><g><path d="M0 0 C1.98 0 3.96 0 6 0 C6 1.32 6 2.64 6 4 C4.02 4 2.04 4 0 4 C0 2.68 0 1.36 0 0 Z " fill="#FEFEFE" transform="translate(507,757)"/></g><g><path d="M0 0 C0 3 0 3 -2 5.188 C-2.66 5.786 -3.32 6.384 -4 7 C-4.99 6.67 -5.98 6.34 -7 6 C-6.67 4.68 -6.34 3.36 -6 2 C-4.793 1.783 -4.793 1.783 -3.562 1.562 C-1.079 1.259 -1.079 1.259 0 0 Z " fill="#484848" transform="translate(652,701)"/></g><g><path d="M0 0 C0.99 0.33 1.98 0.66 3 1 C2.67 2.65 2.34 4.3 2 6 C1.34 6 0.68 6 0 6 C0 5.34 0 4.68 0 4 C-0.99 4 -1.98 4 -3 4 C-2 2 -2 2 0 0 Z " fill="#2E2E2F" transform="translate(286,767)"/></g><g><path d="M0 0 C1.98 0 3.96 0 6 0 C5.34 0.66 4.68 1.32 4 2 C3.357 4.069 3.357 4.069 3 6 C2.01 6 1.02 6 0 6 C0 4.02 0 2.04 0 0 Z " fill="#595A59" transform="translate(431,758)"/></g><g><path d="M0 0 C2.341 2.128 3.707 4.116 5 7 C3.35 7 1.7 7 0 7 C0 4.69 0 2.38 0 0 Z " fill="#BCBFC0" transform="translate(515,433)"/></g><g><path d="M0 0 C0.826 2.892 1 4.887 1 8 C-0.32 8 -1.64 8 -3 8 C-3 7.34 -3 6.68 -3 6 C-2.34 6 -1.68 6 -1 6 C-0.67 4.02 -0.34 2.04 0 0 Z " fill="#A5A8AA" transform="translate(295,777)"/></g><g><path d="M0 0 C3.3 0 6.6 0 10 0 C7.082 1.945 5.375 2.453 2 3 C1.34 2.01 0.68 1.02 0 0 Z " fill="#484848" transform="translate(724,703)"/></g></svg>