<?xml version="1.0" encoding="UTF-8"?>
<svg version="1.1" xmlns="http://www.w3.org/2000/svg" width="1040" height="1040">
<path d="M0 0 C343.2 0 686.4 0 1040 0 C1040 343.2 1040 686.4 1040 1040 C696.8 1040 353.6 1040 0 1040 C0 696.8 0 353.6 0 0 Z " fill="#FEFEFE" transform="translate(0,0)"/>
<path d="M0 0 C8.96554639 7.31671027 16.31345509 17.79563357 17.6640625 29.4765625 C17.7465625 30.7759375 17.8290625 32.0753125 17.9140625 33.4140625 C18.6978125 33.09308594 19.4815625 32.77210938 20.2890625 32.44140625 C32.74293915 28.91191319 47.52338469 30.41025742 58.9140625 36.4140625 C64.15960877 39.77580675 68.69049814 43.83853444 72.9140625 48.4140625 C73.7390625 49.3009375 74.5640625 50.1878125 75.4140625 51.1015625 C83.66931188 61.27784475 86.48814143 73.9582304 86.3515625 86.7890625 C86.34020264 88.29786987 86.34020264 88.29786987 86.32861328 89.8371582 C86.15485406 97.69754335 85.10623027 104.16371299 81.9140625 111.4140625 C81.53636719 112.3421875 81.15867187 113.2703125 80.76953125 114.2265625 C77.35829766 121.81166197 72.53034845 128.24273113 67.6105957 134.89208984 C61.72765158 142.89343944 56.6778875 150.4797377 56.8515625 160.7265625 C56.8825 162.551875 56.8825 162.551875 56.9140625 164.4140625 C61.5340625 164.0840625 66.1540625 163.7540625 70.9140625 163.4140625 C69.9140625 166.4140625 69.9140625 166.4140625 68.3828125 167.4765625 C67.733125 167.7859375 67.0834375 168.0953125 66.4140625 168.4140625 C65.785 168.7234375 65.1559375 169.0328125 64.5078125 169.3515625 C63.651875 169.7021875 62.7959375 170.0528125 61.9140625 170.4140625 C61.29136475 170.6706665 60.66866699 170.92727051 60.02709961 171.19165039 C53.80071874 173.53447702 48.08860457 173.89957073 41.4765625 173.8515625 C40.50396484 173.87154297 39.53136719 173.89152344 38.52929688 173.91210938 C28.19773161 173.90520786 19.49292555 170.48766801 11.9140625 163.4140625 C4.06725024 154.83772801 2.51222397 147.51358117 2.7421875 136.00390625 C2.93009604 132.07918016 3.28127882 128.28986251 3.9140625 124.4140625 C3.2540625 124.0840625 2.5940625 123.7540625 1.9140625 123.4140625 C1.759375 124.5896875 1.759375 124.5896875 1.6015625 125.7890625 C0.9140625 128.4140625 0.9140625 128.4140625 -2.0859375 130.4140625 C-5.84292307 130.78976106 -6.83960226 130.578286 -10.0859375 128.4140625 C-10.50245781 124.66537974 -10.5838539 122.29673249 -8.7109375 118.9765625 C-7.0859375 117.4140625 -7.0859375 117.4140625 -5.0859375 117.4140625 C-5.0859375 116.7540625 -5.0859375 116.0940625 -5.0859375 115.4140625 C-8.0559375 115.4140625 -11.0259375 115.4140625 -14.0859375 115.4140625 C-14.4159375 114.0940625 -14.7459375 112.7740625 -15.0859375 111.4140625 C-13.56321759 109.89134259 -12.20658591 110.20824268 -10.0859375 110.1640625 C-4.53465241 110.22613757 1.45521785 111.16831772 5.671875 115.01953125 C6.08179688 115.47972656 6.49171875 115.93992187 6.9140625 116.4140625 C8.65243952 112.44168607 10.30068141 108.43879424 11.9140625 104.4140625 C12.39101563 103.23457031 12.86796875 102.05507813 13.359375 100.83984375 C17.02643956 90.98067876 19.12048462 80.97290576 16.09765625 70.6171875 C12.26533413 62.65877642 5.30551908 59.12430621 -2.73095703 56.27246094 C-19.01307684 50.7554122 -36.48752366 50.37331828 -52.3359375 57.6015625 C-62.06215389 62.92107891 -70.9637843 71.74529075 -74.78515625 82.35546875 C-75.21039847 85.26589277 -75.28529961 88.16320993 -75.3984375 91.1015625 C-75.79368029 97.11803604 -76.65475167 102.35010548 -80.0859375 107.4140625 C-83.85469625 109.92656833 -85.61743884 109.94422336 -90.0859375 109.4140625 C-95.71035075 105.99530151 -98.36416917 101.73001267 -100.0859375 95.4140625 C-100.65433881 91.77343872 -101.03928195 88.11627818 -101.31542969 84.44238281 C-101.6887128 80.02553556 -102.37155079 76.96104164 -105.0859375 73.4140625 C-107.95201879 71.98102186 -109.89894533 72.10762095 -113.0859375 72.4140625 C-118.38589945 75.17004271 -121.66720986 78.74901609 -123.8359375 84.3515625 C-124.65047453 91.07149301 -124.00469308 95.8624921 -120.0859375 101.4140625 C-116.34813006 104.50181647 -112.72829224 106.08767543 -108.0859375 107.4140625 C-108.0859375 108.0740625 -108.0859375 108.7340625 -108.0859375 109.4140625 C-109.4059375 109.4140625 -110.7259375 109.4140625 -112.0859375 109.4140625 C-112.12332031 110.00574219 -112.16070312 110.59742188 -112.19921875 111.20703125 C-112.59202138 115.92836481 -112.91245249 119.67388374 -116.0859375 123.4140625 C-117.73341986 124.12682059 -119.39935935 124.7995087 -121.0859375 125.4140625 C-120.90925537 126.175979 -120.73257324 126.93789551 -120.55053711 127.72290039 C-118.30829698 137.74544363 -116.66743689 147.82164125 -115.0954895 157.96716309 C-114.34023521 162.84009737 -113.57239901 167.71104646 -112.8046875 172.58203125 C-112.5814254 174.00069992 -112.5814254 174.00069992 -112.35365295 175.44802856 C-110.7203358 185.79174688 -108.94598445 196.10870922 -107.0859375 206.4140625 C-105.92191406 206.54361328 -105.92191406 206.54361328 -104.734375 206.67578125 C-93.91535983 208.08302785 -81.87647916 210.19071297 -74.0859375 218.4140625 C-71.38634167 222.46345624 -71.44173987 225.66205923 -72.0859375 230.4140625 C-74.04380286 234.32979321 -76.22482274 235.66938321 -80.2109375 237.1015625 C-84.39052117 238.34021395 -88.6152376 239.13281299 -92.921875 239.7890625 C-95.52143217 240.53983713 -96.51800385 241.21114014 -98.0859375 243.4140625 C-98.66165246 245.91609898 -98.66165246 245.91609898 -98.7734375 248.6015625 C-98.83917969 249.50261719 -98.90492188 250.40367187 -98.97265625 251.33203125 C-99.01003906 252.01910156 -99.04742187 252.70617187 -99.0859375 253.4140625 C-96.1159375 254.0740625 -93.1459375 254.7340625 -90.0859375 255.4140625 C-90.4159375 256.0740625 -90.7459375 256.7340625 -91.0859375 257.4140625 C-92.18550781 257.43984375 -93.28507812 257.465625 -94.41796875 257.4921875 C-103.07426768 257.78915971 -111.28379169 258.17724152 -119.0859375 262.4140625 C-119.4159375 263.0740625 -119.7459375 263.7340625 -120.0859375 264.4140625 C-119.53655518 264.48923096 -118.98717285 264.56439941 -118.42114258 264.6418457 C-115.91180529 264.99185659 -113.40526739 265.35904039 -110.8984375 265.7265625 C-110.03412109 265.84451172 -109.16980469 265.96246094 -108.27929688 266.08398438 C-103.62160042 266.77996201 -99.88620872 267.4254997 -96.0859375 270.4140625 C-94.0859375 273.4140625 -94.0859375 273.4140625 -94.0234375 275.7265625 C-96.88459308 282.96360309 -105.70624614 286.77422287 -112.09765625 290.58203125 C-117.28994316 293.49392761 -117.28994316 293.49392761 -120.0859375 298.4140625 C-109.63497116 297.22084193 -99.938411 293.61104844 -92.0859375 286.4140625 C-90.67577628 284.10559754 -90.67577628 284.10559754 -89.7734375 281.6640625 C-89.44730469 280.86484375 -89.12117188 280.065625 -88.78515625 279.2421875 C-88.55441406 278.63890625 -88.32367188 278.035625 -88.0859375 277.4140625 C-87.0959375 277.7440625 -86.1059375 278.0740625 -85.0859375 278.4140625 C-84.5932713 282.35539207 -84.2838034 285.01746656 -86.29296875 288.515625 C-91.58460055 294.93498161 -98.43694433 299.01009443 -106.0859375 302.1015625 C-109.33374759 303.20082672 -109.33374759 303.20082672 -111.0859375 306.4140625 C-100.86190661 305.4576209 -89.9147916 303.36656242 -82.8984375 295.1640625 C-81.12633663 292.59386957 -81.12633663 292.59386957 -80.0859375 290.4140625 C-79.0959375 290.4140625 -78.1059375 290.4140625 -77.0859375 290.4140625 C-76.5617032 293.40968707 -76.65364695 295.59016758 -78.08203125 298.3125 C-81.90310372 303.33448096 -86.62302987 306.10220474 -92.1484375 308.9140625 C-92.83292969 309.26452637 -93.51742187 309.61499023 -94.22265625 309.97607422 C-98.33887862 311.94776857 -101.42481866 312.82127413 -106.0859375 312.4140625 C-105.7559375 313.0740625 -105.4259375 313.7340625 -105.0859375 314.4140625 C-96.25796611 315.31080903 -87.05915187 313.30337117 -79.953125 307.74609375 C-78.0859375 306.4140625 -78.0859375 306.4140625 -74.0859375 306.4140625 C-74.45359891 309.03294298 -74.83806643 310.18313023 -76.80078125 312.01171875 C-86.01701298 318.08568518 -95.91701244 321.33608619 -107.0859375 319.4140625 C-109.46875 317.51171875 -109.46875 317.51171875 -111.0859375 315.4140625 C-111.0859375 314.7540625 -111.0859375 314.0940625 -111.0859375 313.4140625 C-112.0346875 313.1459375 -112.9834375 312.8778125 -113.9609375 312.6015625 C-117.0859375 311.4140625 -117.0859375 311.4140625 -119.0859375 308.4140625 C-119.2109375 305.7265625 -119.2109375 305.7265625 -119.0859375 303.4140625 C-119.8490625 303.3315625 -120.6121875 303.2490625 -121.3984375 303.1640625 C-124.0859375 302.4140625 -124.0859375 302.4140625 -125.8984375 300.7890625 C-127.65682912 297.27227926 -127.73645443 295.3171641 -127.0859375 291.4140625 C-123.00702513 284.77275646 -116.5184579 280.55572553 -110.0859375 276.4140625 C-110.65944803 274.39679765 -110.65944803 274.39679765 -112.0859375 272.4140625 C-114.87946181 271.34782948 -114.87946181 271.34782948 -118.0859375 270.7890625 C-123.89862632 269.60137368 -123.89862632 269.60137368 -126.0859375 267.4140625 C-126.6484375 264.6640625 -126.6484375 264.6640625 -126.0859375 261.4140625 C-122.37146336 256.75448547 -117.93212429 254.4397093 -112.0859375 253.4140625 C-109.41607159 253.33638689 -106.75777889 253.38643229 -104.0859375 253.4140625 C-104.76866001 250.74609619 -105.45640016 248.07961944 -106.1484375 245.4140625 C-106.36886719 244.56175049 -106.58929688 243.70943848 -106.81640625 242.83129883 C-108.04675951 238.14099952 -109.34950109 233.49030389 -110.80078125 228.86328125 C-115.77702386 212.90616645 -118.66086727 196.93719799 -121.0859375 180.4140625 C-121.32642822 178.77824219 -121.32642822 178.77824219 -121.57177734 177.109375 C-122.19396119 172.86095422 -122.81426551 168.61226583 -123.4309082 164.36303711 C-124.96443101 153.93913541 -126.69333218 143.55051278 -128.4609375 133.1640625 C-128.60973358 132.28847687 -128.75852966 131.41289124 -128.91183472 130.51077271 C-130.46349665 121.41374136 -132.06651549 112.33183432 -133.87109375 103.28125 C-134.01192383 102.57230591 -134.15275391 101.86336182 -134.29785156 101.13293457 C-134.95115794 97.85780652 -135.61876557 94.58715879 -136.30810547 91.31933594 C-137.58470953 85.05460084 -138.31242962 79.23426251 -138.14477539 72.83886719 C-138.06647155 69.61183902 -138.30946383 66.44056896 -138.5859375 63.2265625 C-138.72515625 61.56560547 -138.72515625 61.56560547 -138.8671875 59.87109375 C-138.939375 59.06027344 -139.0115625 58.24945313 -139.0859375 57.4140625 C-135.22174697 58.87978994 -133.88433695 60.739523 -132.0859375 64.4140625 C-131.45073138 66.497434 -130.88819387 68.60428488 -130.3984375 70.7265625 C-130.14707031 71.79519531 -129.89570313 72.86382812 -129.63671875 73.96484375 C-129.45496094 74.77308594 -129.27320313 75.58132813 -129.0859375 76.4140625 C-128.3228125 75.6509375 -127.5596875 74.8878125 -126.7734375 74.1015625 C-125.8865625 73.2146875 -124.9996875 72.3278125 -124.0859375 71.4140625 C-123.5290625 70.8159375 -122.9721875 70.2178125 -122.3984375 69.6015625 C-121.0859375 68.4140625 -121.0859375 68.4140625 -119.0859375 68.4140625 C-117.81435422 64.55465218 -118.01189455 60.72695149 -118.09375 56.71875 C-118.1112833 55.18229846 -118.12818992 53.64583967 -118.14453125 52.109375 C-118.17530815 49.70682284 -118.2106347 47.30464213 -118.25732422 44.90234375 C-118.54101348 29.47474804 -116.42738503 16.99377899 -105.734375 4.97265625 C-77.30143767 -21.91061862 -30.82838602 -23.43881035 0 0 Z " fill="#252122" transform="translate(545.0859375,237.5859375)"/>
<path d="M0 0 C9.68887103 7.8017944 10.51919839 29.50402055 11.8125 41.015625 C14.59728583 67.25636788 15.2016793 93.20761097 15.1875 119.5625 C15.18755616 121.29867554 15.18761724 123.03485107 15.18768311 124.77102661 C15.1761668 165.67535967 13.76224962 206.4736274 11.56155396 247.31806946 C7.81114868 297.07507054 7.81114868 297.07507054 15.36865234 345.86914062 C21.5675613 366.79105764 25.60991004 386.15618481 25 408 C26.01320313 408.35384766 26.01320313 408.35384766 27.046875 408.71484375 C30.6963864 410.30305704 33.9217089 412.40512281 37.25 414.5625 C51.27907118 423.42577772 64.62751128 430.59489065 81 434 C82.32475342 434.27710815 82.32475342 434.27710815 83.67626953 434.55981445 C91.87977749 436.10716626 99.91642663 436.34571167 108.25 436.3125 C108.92987976 436.31200653 109.60975952 436.31151306 110.3102417 436.31100464 C120.5307518 436.2882964 130.09221093 435.57709338 140 433 C143.34972988 432.23434746 146.37704286 431.88622452 149.8125 431.9375 C150.60269531 431.94652344 151.39289063 431.95554687 152.20703125 431.96484375 C153.09455078 431.98224609 153.09455078 431.98224609 154 432 C153 435 153 435 151.390625 436.0625 C144.77276973 438.96083077 138.06522459 440.56647617 131 442 C129.91428711 442.25595947 129.91428711 442.25595947 128.80664062 442.51708984 C100.62752056 448.847757 66.3374957 443.0363165 41.67773438 428.10888672 C37.34083368 425.24244275 33.69834842 421.62259082 30 418 C28.02851899 416.29429208 26.02015887 414.64802434 24 413 C23.86464844 413.61746094 23.72929688 414.23492188 23.58984375 414.87109375 C21.55364578 422.88176482 17.82643031 429.86385907 10.6875 434.4375 C6.34127222 436.56210689 1.76950199 437.39837589 -3 438 C-3.72445312 438.09667969 -4.44890625 438.19335938 -5.1953125 438.29296875 C-18.28227313 439.13655332 -32.34570538 433.26201256 -44.125 428.14819336 C-48.17731158 426.44399821 -50.77063917 425.57497212 -55 427 C-56.66666667 427.33333333 -58.33333333 427.66666667 -60 428 C-59.67 428.66 -59.34 429.32 -59 430 C-57.02 430 -55.04 430 -53 430 C-56.2870757 433.81300782 -59.39727838 435.22972246 -64 437 C-60.71023192 438.09658936 -59.28696233 437.79953138 -56 437 C-56.1875 438.875 -56.1875 438.875 -57 441 C-60.37823976 442.87679987 -63.17632299 443.21849583 -67 443 C-66.34 444.65 -65.68 446.3 -65 448 C-58.4 448.33 -51.8 448.66 -45 449 C-44.67 449.66 -44.34 450.32 -44 451 C-60.80472212 456.27206968 -77.96136674 451.59674539 -93.24658203 443.94824219 C-99.69001507 440.46365657 -105.67650387 435.64699226 -109 429 C-109.48047337 424.75581855 -109.58094387 422.75698746 -106.9375 419.3125 C-96.34895275 410.97683514 -86.00019816 411.17775215 -73 412 C-59.12886753 413.92039108 -45.69539974 420.68503704 -32.78637695 425.94018555 C-22.90368703 429.69912333 -9.94676951 429.69593776 -0.125 425.875 C6.74818507 422.45278651 9.78526001 418.30094707 12.36938477 411.16186523 C13.36085901 407.76290881 13.48658151 404.44623885 13.4375 400.9375 C13.42722778 399.74350586 13.42722778 399.74350586 13.41674805 398.52539062 C13.2205855 390.63186843 12.30169117 382.82804372 11.3125 375 C11.16417725 373.82300537 11.01585449 372.64601074 10.86303711 371.43334961 C10.01701329 365.19790198 9.0280603 359.03975882 7.75952148 352.87426758 C4.58347875 337.28224693 3.24006365 322.58028985 3.4375 306.6875 C3.45001563 304.15771556 3.4623784 301.62793036 3.47460938 299.09814453 C3.64488556 276.0091495 4.72822166 252.94994349 5.72024536 229.88510132 C5.81352499 227.71506875 5.90677643 225.54503497 6 223.375 C6.04631939 222.29729465 6.09263878 221.21958931 6.14036179 220.10922623 C7.56128654 186.89607221 8.44853151 153.72407938 8.49353027 120.47907257 C8.49985708 117.44357189 8.51395639 114.4082035 8.53027344 111.3727417 C8.69385189 77.18643375 7.57613176 42.57502784 0.734375 8.97265625 C0.12463285 5.93307761 -0.17616336 3.11431654 0 0 Z " fill="#2C2829" transform="translate(734,522)"/>
<path d="M0 0 C4.95159982 3.30106655 5.86120888 8.92503449 6.9921875 14.5234375 C8.12468438 20.35936736 8.86880156 26.22305771 9.5625 32.125 C9.68818359 33.13820313 9.81386719 34.15140625 9.94335938 35.1953125 C11.67206386 49.67660663 12.16564235 64.0584603 12.13037109 78.62548828 C12.12503385 81.23345832 12.13034231 83.84125403 12.13671875 86.44921875 C12.13974762 94.61298151 11.99916947 102.72999145 11.50390625 110.87890625 C10.64174755 125.7190179 10.81280468 140.60116893 10.81469727 155.46069336 C10.81477844 158.93633232 10.80783533 162.41183924 10.79418945 165.88745117 C10.54380269 203.68512305 10.54380269 203.68512305 16 241 C16.16870605 241.77166504 16.33741211 242.54333008 16.51123047 243.33837891 C18.91621961 254.29491729 21.84710492 265.00015007 25.19775391 275.70263672 C28.95356142 287.84284507 32.00794942 300.16653782 35.10839844 312.48632812 C35.87881862 315.52244182 36.66997834 318.55147122 37.4765625 321.578125 C41.79220545 337.90411727 45.30833608 354.49271323 45.4375 371.4375 C45.4475708 372.27079834 45.4576416 373.10409668 45.46801758 373.96264648 C45.3850414 379.76803627 44.09568417 384.60778759 42 390 C41.443125 391.5159375 41.443125 391.5159375 40.875 393.0625 C35.19481616 401.96145468 25.98328509 407.23866583 16 410 C9.18280185 411.28644097 2.35747798 411.22031645 -4.5625 411.25 C-6.37137695 411.2809375 -6.37137695 411.2809375 -8.21679688 411.3125 C-9.38404297 411.31765625 -10.55128906 411.3228125 -11.75390625 411.328125 C-12.80908447 411.3374707 -13.8642627 411.34681641 -14.95141602 411.35644531 C-18.53063775 410.93795699 -20.9304203 409.86205605 -24 408 C-24.875 405.8125 -24.875 405.8125 -25 404 C-24.09636719 404.01160156 -23.19273437 404.02320313 -22.26171875 404.03515625 C-21.08222656 404.04417969 -19.90273438 404.05320312 -18.6875 404.0625 C-16.92986328 404.07990234 -16.92986328 404.07990234 -15.13671875 404.09765625 C-11.96940805 404.14899898 -11.96940805 404.14899898 -9 403 C-9.5775 402.66226562 -10.155 402.32453125 -10.75 401.9765625 C-11.4925 401.53054688 -12.235 401.08453125 -13 400.625 C-14.11375 399.96371094 -14.11375 399.96371094 -15.25 399.2890625 C-15.8275 398.86367188 -16.405 398.43828125 -17 398 C-17 397.34 -17 396.68 -17 396 C-15.68 396.33 -14.36 396.66 -13 397 C-13.50660156 395.78763672 -13.50660156 395.78763672 -14.0234375 394.55078125 C-14.46945312 393.48214844 -14.91546875 392.41351562 -15.375 391.3125 C-15.81585938 390.25675781 -16.25671875 389.20101563 -16.7109375 388.11328125 C-17.13632812 387.08589844 -17.56171875 386.05851562 -18 385 C-18.57621094 383.66001953 -18.57621094 383.66001953 -19.1640625 382.29296875 C-20 380 -20 380 -20 377 C-25.94 377 -31.88 377 -38 377 C-31.10050421 370.10050421 -20.82613769 370.66839864 -11.56787109 370.6105957 C5.65767771 370.90687098 22.22806438 376.42683982 37 385 C37.90876487 361.31269423 33.39604095 339.70048672 27 317 C26.71721191 315.99227539 26.43442383 314.98455078 26.14306641 313.94628906 C23.31567142 303.92950346 20.38913939 293.9669973 17 284.125 C14.45914548 276.72781408 12.34357777 269.23963115 10.3125 261.6875 C10.02697266 260.62611816 9.74144531 259.56473633 9.44726562 258.47119141 C6.45409957 247.17672112 3.76168188 235.98846072 2.375 224.375 C2.25382812 223.44816406 2.13265625 222.52132812 2.0078125 221.56640625 C-0.24470795 203.27691958 -0.16161397 184.89065368 -0.13037109 166.4934082 C-0.1246684 163.1129356 -0.12806037 159.73254169 -0.13381958 156.35207176 C-0.15103886 144.38907569 -0.1631597 132.45936443 0.63027954 120.51963806 C1.28123102 110.35911196 1.23994503 100.1776598 1.25 90 C1.25350464 88.3664003 1.25350464 88.3664003 1.25708008 86.69979858 C1.27048132 70.0440398 0.4830703 53.69439493 -1.34375 37.14453125 C-2.13174372 29.73759547 -2.14212722 22.43996498 -2 15 C-1.34 15.66 -0.68 16.32 0 17 C0 11.39 0 5.78 0 0 Z " fill="#292526" transform="translate(447,561)"/>
<path d="M0 0 C0.66 0 1.32 0 2 0 C2.48173829 2.66622447 2.96044625 5.33293671 3.4375 8 C3.57220703 8.74378906 3.70691406 9.48757813 3.84570312 10.25390625 C3.97783203 10.99511719 4.10996094 11.73632812 4.24609375 12.5 C4.42676392 13.50546875 4.42676392 13.50546875 4.61108398 14.53125 C5.77096296 21.89389669 6.18432917 29.00758215 6.23828125 36.45703125 C6.25270012 38.13027718 6.25270012 38.13027718 6.26741028 39.83732605 C6.29228508 43.49574864 6.30472632 47.15400225 6.3125 50.8125 C6.31578308 52.0708667 6.31906616 53.3292334 6.32244873 54.62573242 C6.33768545 72.82814792 5.6722757 90.86416506 4.125 109 C4.03397003 110.06834076 3.94294006 111.13668152 3.84915161 112.23739624 C3.40779443 117.35962265 2.95242337 122.48046595 2.48730469 127.60058594 C-4.57212467 205.41776887 4.61021197 279.87281018 16.95927906 356.58821201 C20.24380874 376.99591382 23.30524819 397.42838183 26.22460938 417.89135742 C27.67629232 428.04380501 29.15940561 438.18536265 30.828125 448.3046875 C30.97163391 449.18082199 31.11514282 450.05695648 31.26300049 450.9596405 C31.91627562 454.93796745 32.58203747 458.91330305 33.27441406 462.88500977 C34.8759047 472.35499312 35.28870935 481.41565153 35 491 C34.34 491.33 33.68 491.66 33 492 C30.95213159 481.59000223 29.20005568 471.15046561 27.54736328 460.67114258 C26.32202973 452.93198188 25.00623526 445.21327904 23.63647461 437.49853516 C22.57228484 431.44662257 21.57747483 425.38668281 20.625 419.31640625 C18.22241826 404.04544728 15.70655122 388.87970028 12.32958984 373.78686523 C9.18574754 359.6190403 6.69215405 345.32841934 4.10757446 331.05050659 C2.97729053 324.82765339 1.76529583 318.62668647 0.45947266 312.43847656 C-11.25519596 256.41180058 -13.36569126 198.30295206 -9.17114258 141.34796143 C-8.77958467 135.97604945 -8.40942249 130.60259755 -8.03511047 125.22946167 C-7.71293583 120.60864952 -7.38796113 115.98810214 -7.0534668 111.36816406 C-5.49971864 89.7868762 -4.77174296 68.27703493 -4.52319336 46.64086914 C-4.48359892 43.33461499 -4.43214708 40.02871488 -4.37890625 36.72265625 C-4.3704921 35.7175148 -4.36207794 34.71237335 -4.35340881 33.67677307 C-4.26931119 28.94631369 -4.03569209 25.34358413 -2 21 C-1.76072 18.83421872 -1.76072 18.83421872 -1.875 16.6796875 C-1.89046875 15.89722656 -1.9059375 15.11476563 -1.921875 14.30859375 C-1.94765625 13.50550781 -1.9734375 12.70242188 -2 11.875 C-2.05108105 10.2685009 -2.09312572 8.66168241 -2.125 7.0546875 C-2.14820313 6.34812012 -2.17140625 5.64155273 -2.1953125 4.91357422 C-2 3 -2 3 0 0 Z " fill="#2A2627" transform="translate(845,328)"/>
<path d="M0 0 C2.5812545 2.5812545 3.27001643 5.34405487 4.3125 8.75 C4.52616211 9.43723145 4.73982422 10.12446289 4.95996094 10.83251953 C7.13907889 18.07132669 8.78377719 25.42734292 10.38793945 32.81152344 C10.58476318 33.71676758 10.78158691 34.62201172 10.984375 35.5546875 C11.24299316 36.76874268 11.24299316 36.76874268 11.50683594 38.00732422 C11.93652596 40.05575092 11.93652596 40.05575092 13 42 C13.35597362 44.61427475 13.66460471 47.2166447 13.9375 49.83984375 C14.02249756 50.63540176 14.10749512 51.43095978 14.19506836 52.25062561 C14.37517328 53.9477196 14.55325341 55.64502947 14.72949219 57.3425293 C14.99286615 59.86906525 15.26544985 62.39447712 15.5390625 64.91992188 C15.71411381 66.58066896 15.88860753 68.24147493 16.0625 69.90234375 C16.18129517 70.99264137 16.18129517 70.99264137 16.30249023 72.10496521 C17.90989538 87.86708643 18.15292791 103.67439175 18.1328125 119.50390625 C18.13349028 121.43879712 18.13446417 123.3736879 18.13571167 125.30857849 C18.13717455 129.35001441 18.13508543 133.39142804 18.13037109 137.43286133 C18.12476192 142.47320445 18.12800889 147.51349377 18.13380241 152.55383492 C18.16970525 189.23265823 17.61868305 225.87027617 15.625 262.5 C15.55930817 263.73016846 15.49361633 264.96033691 15.42593384 266.2277832 C13.9121784 294.40605195 11.38023378 322.29948447 8 350.3125 C7.80254684 351.95375854 7.80254684 351.95375854 7.60110474 353.62817383 C5.18921262 373.66422976 5.18921262 373.66422976 3.9453125 382.88671875 C1.92934746 398.61147244 1.71786919 414.22738172 1.6875 430.0625 C1.68185028 431.70919678 1.68185028 431.70919678 1.67608643 433.38916016 C1.51605175 448.60225588 1.51605175 448.60225588 3.57348633 463.63061523 C4.08127646 466.45151006 4.06503012 469.1399701 4 472 C3.34 472 2.68 472 2 472 C-4.63600522 458.39872213 -5.46423631 444.43279799 -5.5 429.5 C-5.50334351 428.73654266 -5.50668701 427.97308533 -5.51013184 427.18649292 C-5.51758339 397.41344199 -1.90307728 367.59136515 0.81906891 337.97084808 C1.62514881 329.19037248 2.41930291 320.40887455 3.1875 311.625 C3.26670685 310.7207428 3.3459137 309.8164856 3.42752075 308.88482666 C4.85239677 292.42134747 5.82252632 275.93901728 6.6875 259.4375 C6.74843842 258.27913635 6.80937683 257.12077271 6.87216187 255.92730713 C7.28591284 247.95308096 7.65382954 239.97742174 8 232 C8.04912537 230.91989655 8.09825073 229.83979309 8.14886475 228.72695923 C9.21281096 204.76497221 9.22098614 180.79202212 9.24023438 156.81079102 C9.24460363 152.16845782 9.25846762 147.52631206 9.28125 142.8840332 C9.46840004 103.86513192 8.1221745 65.31489339 2.8125 26.625 C2.4012202 23.54197872 1.99369682 20.45849998 1.58903503 17.37460327 C1.34322113 15.50975599 1.09316521 13.64546039 0.83784485 11.78189087 C0.30613858 7.82530581 -0.15832796 4.00380165 0 0 Z " fill="#2B2728" transform="translate(622,457)"/>
<path d="M0 0 C0.33 0 0.66 0 1 0 C1.02743793 1.9999203 1.04659055 3.99995477 1.0625 6 C1.07410156 7.11375 1.08570313 8.2275 1.09765625 9.375 C1 13 1 13 0.51586914 16.39160156 C-0.25223496 22.35872939 -0.25436617 28.35095551 -0.3515625 34.359375 C-0.37471527 35.65780334 -0.39786804 36.95623169 -0.42172241 38.29400635 C-0.47002799 41.04752561 -0.51491142 43.80107595 -0.55761719 46.5546875 C-0.60080337 49.31587902 -0.64921663 52.07688779 -0.703125 54.83789062 C-1.20668431 80.69765767 -1.02728621 106.4239544 2.1875 132.125 C2.29537842 133.01356689 2.40325684 133.90213379 2.5144043 134.81762695 C4.35076219 149.82279753 6.99451726 164.40651139 11 179 C11.36049322 180.34379339 11.7208338 181.68762773 12.08105469 183.03149414 C14.89838465 193.45053285 18.0093871 203.75434399 21.43701172 213.98901367 C21.98205134 215.63051589 22.51678846 217.27547252 23.04150391 218.92358398 C26.13586838 228.63384879 29.06984684 236.3429083 36.17089844 243.85571289 C37.99791691 245.99755795 38.61299351 247.25139213 39 250 C37.35 249.67 35.7 249.34 34 249 C34 249.66 34 250.32 34 251 C34.61875 251.185625 35.2375 251.37125 35.875 251.5625 C38.57168236 253.3867263 38.42520021 254.75090571 39.09765625 257.79296875 C40.81406275 261.99110587 44.12390514 265.18409477 47.1015625 268.546875 C49 271 49 271 49 274 C48.01 274 47.02 274 46 274 C47.00193437 277.79303725 47.81024227 280.71536341 50 284 C50.33 281.03 50.66 278.06 51 275 C52.32 275.33 53.64 275.66 55 276 C55.00386719 277.59328125 55.00386719 277.59328125 55.0078125 279.21875 C55.13253314 289.80535184 55.13253314 289.80535184 60.72265625 298.51953125 C62 300 62 300 62 303 C59.13275314 302.42655063 58.1385485 302.1385485 56 300 C56 300.99 56 301.98 56 303 C52.74456771 302.65120368 51.98126893 301.97866739 49.75 299.4375 C49.1725 298.633125 48.595 297.82875 48 297 C48.31182069 298.41681634 48.62448737 299.83344651 48.9375 301.25 C49.11152344 302.03890625 49.28554687 302.8278125 49.46484375 303.640625 C49.947556 305.76878703 50.46163178 307.88532842 51 310 C46.75177626 309.52797514 44.80010291 307.03344482 42 304 C40.35920758 305.64079242 40.39887658 307.77768765 40 310 C36.23042678 308.11521339 35.49740558 303.27702481 34.21484375 299.453125 C32.7494798 294.55896469 32.19696929 289.62581994 31.625 284.5625 C29.8129789 268.92061381 24.64182247 254.35730097 19.27246094 239.62939453 C15.97722327 230.4092759 13.51338172 220.92602481 10.95629883 211.48071289 C10.25837826 208.9404388 9.54510545 206.40773089 8.81518555 203.87670898 C5.69199376 192.98403416 3.13660432 182.05225177 0.9375 170.9375 C0.76635681 170.07793701 0.59521362 169.21837402 0.41888428 168.33276367 C-9.37062325 118.81031019 -13.27309285 65.96081539 -5.5625 15.875 C-5.39754028 14.79436279 -5.39754028 14.79436279 -5.22924805 13.69189453 C-4.46062541 9.2772689 -3.30037622 3.30037622 0 0 Z " fill="#2D292A" transform="translate(159,651)"/>
<path d="M0 0 C0.99 0.33 1.98 0.66 3 1 C4.98439781 9.01142931 5.34773917 16.77266463 5.5 25 C5.56864164 27.75801601 5.64670284 30.51572557 5.7265625 33.2734375 C5.74679474 33.98366058 5.76702698 34.69388367 5.78787231 35.42562866 C6.30625462 52.86054548 7.01560522 70.4501914 9.3125 87.75 C9.45244385 88.88042725 9.45244385 88.88042725 9.59521484 90.03369141 C11.19071979 100.6554651 15.55927051 110.50347529 20.50366211 119.94995117 C29.64641481 137.5016684 34.90203209 155.95189526 40 175 C40.33676758 176.2473291 40.67353516 177.4946582 41.02050781 178.77978516 C42.81520005 185.4914035 44.48719026 192.21934457 46 199 C46.39638672 200.7325 46.39638672 200.7325 46.80078125 202.5 C48.16819381 209.64403297 48.25718693 216.8712381 48.375 224.125 C48.40126465 225.12724609 48.4275293 226.12949219 48.45458984 227.16210938 C48.46965949 234.21470165 47.46109972 240.74660503 44 247 C43.01 247.33 42.02 247.66 41 248 C39.66550139 241.74085488 38.60227939 235.48309674 37.70727539 229.14697266 C35.81088098 215.83677461 33.05926093 202.9003232 29.73046875 189.88085938 C29.0484094 187.19091941 28.39322074 184.49632721 27.75 181.796875 C24.9412944 170.08740671 21.55145534 158.59870946 17.96777344 147.10498047 C15.55017769 139.34842579 13.16147841 131.58297937 10.7890625 123.8125 C9.79843972 120.57008775 8.79206767 117.33830998 7.7109375 114.125 C-3.38042116 79.58092113 -2.5318296 35.89345122 0 0 Z " fill="#2A2728" transform="translate(355,687)"/>
<path d="M0 0 C2.87496365 0.31080688 4.56589612 0.61240725 6.75 2.5625 C8.24505685 5.47786085 8.40467955 7.89671645 8.68359375 11.125 C8.87527708 13.16736235 8.87527708 13.16736235 10.5625 15 C12.85007238 18.1827094 12.19234032 21.1531936 12 25 C12.598125 25.103125 13.19625 25.20625 13.8125 25.3125 C16.40959812 26.12873084 17.32986472 26.8607256 19 29 C20.06314144 34.92868965 19.4983944 40.7428501 16.453125 45.96484375 C10.57569506 54.19640558 3.06132843 63.07431273 -7.3125 65.1875 C-11 65 -11 65 -13.5 63.0625 C-15.4720698 59.03619082 -15.30137292 56.44525054 -15 52 C-16.1446875 51.814375 -16.1446875 51.814375 -17.3125 51.625 C-20 51 -20 51 -23 49 C-23.39259107 44.76001646 -23.32490278 41.63266059 -21 38 C-21.66 37.34 -22.32 36.68 -23 36 C-24.20618483 30.61855997 -23.04204269 26.43723526 -20.3125 21.75 C-17.84436176 18.03041139 -15.54687343 14.72836418 -12 12 C-9.1875 11.6875 -9.1875 11.6875 -7 12 C-6.2890625 13.75390625 -6.2890625 13.75390625 -6 16 C-7.3984375 17.96484375 -7.3984375 17.96484375 -9.375 19.9375 C-12.3350258 22.90342227 -13.48971197 24.80834835 -14 29 C-10.66564695 27.58143752 -8.80434174 25.90068437 -6.5 23.125 C-4.10238958 20.28491212 -1.62864418 17.62864418 1 15 C2.52150158 11.95699684 2.23899393 9.345915 2 6 C1.01 5.34 0.02 4.68 -1 4 C-0.67 2.68 -0.34 1.36 0 0 Z " fill="#2A2627" transform="translate(401,229)"/>
<path d="M0 0 C3 1 3 1 4 3 C4.55118328 10.08847333 3.93209021 17.17646878 3.284729 24.23487854 C1.97519911 38.69570606 1.68351078 53.05012905 1.75 67.5625 C1.7536557 69.31876205 1.7536557 69.31876205 1.75738525 71.11050415 C1.80287762 89.81184312 2.31575308 108.36838272 4 127 C4.08540039 127.9787207 4.17080078 128.95744141 4.25878906 129.96582031 C5.00501377 138.33231619 6.00306221 146.57815128 7.6171875 154.828125 C8.10734747 157.60903257 8.28835157 160.18857223 8 163 C7.01 163.99 7.01 163.99 6 165 C3.875 164.625 3.875 164.625 2 164 C1.53492228 161.95985909 1.07844725 159.9177574 0.625 157.875 C0.36976563 156.73804688 0.11453125 155.60109375 -0.1484375 154.4296875 C-2.38692722 143.42344721 -3.44587717 132.23622607 -4.4375 121.0625 C-4.69106205 118.21469402 -4.94624323 115.36703972 -5.203125 112.51953125 C-5.26759323 111.80235931 -5.33206146 111.08518738 -5.39848328 110.34628296 C-5.81916717 105.74665383 -6.31516342 101.16123283 -6.859375 96.57421875 C-8.6723888 80.86003191 -9.29386169 65.37362381 -9.3125 49.5625 C-9.31599457 48.59630737 -9.31948914 47.63011475 -9.3230896 46.63464355 C-9.32867764 43.86167669 -9.31811798 41.08931589 -9.30078125 38.31640625 C-9.3015567 37.49368729 -9.30233215 36.67096832 -9.3031311 35.82331848 C-9.24007608 30.57924259 -8.44818647 26.04433003 -7 21 C-6.34 21 -5.68 21 -5 21 C-5 21.66 -5 22.32 -5 23 C-4.34 23 -3.68 23 -3 23 C-3.02320313 22.32195312 -3.04640625 21.64390625 -3.0703125 20.9453125 C-3.2059151 13.95209255 -3.19822195 6.3964439 0 0 Z " fill="#292526" transform="translate(390,54)"/>
<path d="M0 0 C0.66 0.33 1.32 0.66 2 1 C3.39316619 5.55798882 4.10198188 10.32128046 5 15 C5.28496338 16.44632812 5.28496338 16.44632812 5.57568359 17.921875 C6.22750777 21.23765404 6.86533261 24.55589645 7.5 27.875 C7.70149658 28.90544434 7.90299316 29.93588867 8.1105957 30.99755859 C12.11100912 52.34059125 13.5717712 73.36036334 13.5 95.0625 C13.49956696 96.38105988 13.49913391 97.69961975 13.49868774 99.05813599 C13.47297786 122.56639811 11.6457046 145.64294086 8.6328125 168.94921875 C7.73969759 175.93613568 7.05162063 182.94220194 6.37832642 189.95315552 C6.08538671 192.99934435 5.78210351 196.04450555 5.48046875 199.08984375 C5.32006252 200.72653802 5.15979496 202.36324594 5 204 C0.93942462 199.93942462 1.70641858 194.52761178 1.67211914 189.15185547 C1.80525035 177.61451645 3.39128781 166.15613439 4.76045227 154.71430969 C7.38289036 132.72652097 6.98327234 111.72290946 5.25 89.6875 C5.16107483 88.5364679 5.07214966 87.38543579 4.98052979 86.19952393 C3.52597432 67.5218351 1.73120934 49.03265264 -2.109375 30.671875 C-2.81774873 27.18783277 -3.22699431 23.94480094 -3.125 20.375 C-3.10695313 19.53710938 -3.08890625 18.69921875 -3.0703125 17.8359375 C-3.04710937 17.23007812 -3.02390625 16.62421875 -3 16 C-2.34 16 -1.68 16 -1 16 C-1.165 15.360625 -1.33 14.72125 -1.5 14.0625 C-2.15190296 10.06959439 -2.46732207 6.03164292 -2 2 C-1.34 1.34 -0.68 0.68 0 0 Z " fill="#2D292A" transform="translate(267,467)"/>
<path d="M0 0 C0.99 0 1.98 0 3 0 C4.42258812 3.82320557 5.24042276 6.91281305 5 11 C5.99 11.33 6.98 11.66 8 12 C10.97748344 20.7041766 10.30309415 30.09641218 10.25 39.1875 C10.24822754 40.06680176 10.24645508 40.94610352 10.24462891 41.85205078 C10.2134292 55.19352394 9.69298459 68.45665338 8.85760498 81.76919556 C7.51649239 103.49203331 7.81846299 125.24627985 8 147 C5 147 5 147 3.38609314 145.45388794 C1.59828082 142.28881125 1.18247827 139.2933477 0.82250977 135.73779297 C0.74258821 134.99836393 0.66266665 134.2589349 0.58032322 133.49709892 C-0.4225851 123.08859207 -0.2264276 112.6393923 -0.16015625 102.1953125 C-0.15386758 99.93667867 -0.14863361 97.67804168 -0.14439392 95.41940308 C-0.13120628 89.52187867 -0.10682614 83.62446149 -0.07904053 77.72698975 C-0.03561433 68.2701731 -0.00606858 58.81332744 0.0170002 49.3564415 C0.02713421 46.07565012 0.04418504 42.79494813 0.06199646 39.51419067 C0.06882964 37.48748858 0.07543825 35.4607857 0.08178711 33.43408203 C0.08852448 32.53721176 0.09526184 31.64034149 0.10220337 30.71629333 C0.11191197 25.22538542 -0.21345472 19.8387946 -0.77115536 14.3758831 C-1.04462988 11.53664908 -1.13331421 8.72677342 -1.125 5.875 C-1.12757813 4.96492188 -1.13015625 4.05484375 -1.1328125 3.1171875 C-1 1 -1 1 0 0 Z " fill="#292526" transform="translate(626,96)"/>
<path d="M0 0 C0.66 0 1.32 0 2 0 C3.06514808 3.19544424 3.12264908 5.96208015 3.18847656 9.30517578 C3.56230398 25.67941022 6.11519328 41.75027134 8.66864014 57.8973999 C8.98164596 59.88353687 9.28814544 61.87069606 9.59423828 63.85791016 C11.84725142 78.31101862 14.88772418 92.26104198 19.23364258 106.23999023 C23.88314471 121.40923292 27.65624938 139.22241117 20.38671875 154.0234375 C19 156 19 156 16 157 C15.98582031 155.80632812 15.97164063 154.61265625 15.95703125 153.3828125 C15.41578145 129.87445196 11.05217046 106.76404272 6.93969727 83.67114258 C-3.78982066 23.41131149 -3.78982066 23.41131149 0 0 Z " fill="#2B2829" transform="translate(284,819)"/>
<path d="M0 0 C1.0223877 0.49113281 1.0223877 0.49113281 2.06542969 0.9921875 C5.15815454 2.62043956 6.86616293 3.74935239 8.50390625 6.8828125 C8.68824219 7.62273438 8.87257813 8.36265625 9.0625 9.125 C3.86469445 9.3690594 0.15356888 8.66897325 -4.6875 6.8125 C-23.31151242 0.18775665 -43.64833199 -0.89217024 -62.95922852 3.05053711 C-69.3050039 4.31938736 -75.47371539 4.42851684 -81.9375 4.125 C-82.2675 3.135 -82.5975 2.145 -82.9375 1.125 C-75.64976026 -3.18815209 -68.1904977 -4.46353961 -59.9375 -5.875 C-58.99962646 -6.04845947 -58.06175293 -6.22191895 -57.09545898 -6.40063477 C-38.4260428 -9.20501634 -17.16212191 -8.24643419 0 0 Z " fill="#2B2728" transform="translate(283.9375,972.875)"/>
<path d="M0 0 C0.66 0 1.32 0 2 0 C2.54835045 8.06191835 -2.00683819 12.48376137 -7.01171875 18.36328125 C-18.69893013 30.87140581 -35.71179865 39.04966333 -52.84106445 40.18896484 C-55.83458183 40.26732787 -58.81811309 40.27749557 -61.8125 40.25 C-62.86405273 40.24395752 -63.91560547 40.23791504 -64.99902344 40.23168945 C-85.85370689 39.96593237 -85.85370689 39.96593237 -91 35 C-91 34.01 -91 33.02 -91 32 C-82.80938252 29.89135167 -76.11387486 30.14557784 -67.84375 31.52734375 C-63.10701365 32.10980828 -58.45545043 32.22261766 -53.6875 32.25 C-52.80126953 32.270625 -51.91503906 32.29125 -51.00195312 32.3125 C-36.28969641 32.39834833 -21.45042492 25.26546165 -11 15 C-4.87595508 7.92331011 -4.87595508 7.92331011 0 0 Z " fill="#2B2728" transform="translate(391,947)"/>
<path d="M0 0 C0.99 0 1.98 0 3 0 C1.04500349 13.61166318 -12.72061762 25.84797325 -23 34 C-39.61591169 46.30517989 -58.26751306 50.28989854 -78.625 47.50390625 C-85.23387229 45.98076771 -91.09666382 43.304301 -97 40 C-97 39.01 -97 38.02 -97 37 C-92.03325153 36.69668712 -88.56379042 37.74872287 -83.9375 39.5 C-69.935784 44.23285792 -55.00972118 43.86669765 -41.515625 37.765625 C-32.12499093 33.04943989 -24.57188628 27.25964354 -17 20 C-16.37351562 19.42507813 -15.74703125 18.85015625 -15.1015625 18.2578125 C-10.66778626 14.06478429 -7.20079094 9.34297334 -3.69921875 4.35546875 C-2 2 -2 2 0 0 Z " fill="#2E2A2B" transform="translate(540,391)"/>
<path d="M0 0 C5.55241427 5.20829162 5.49450123 12.18364164 6.0625 19.375 C6.14048828 20.24382813 6.21847656 21.11265625 6.29882812 22.0078125 C6.57700421 25.33672956 6.79544253 28.66569214 7 32 C7.06775131 33.09640808 7.06775131 33.09640808 7.13687134 34.21496582 C8.34659653 54.83266422 8.11770979 75.47996972 8.06866455 96.12359619 C8.05827433 100.97171587 8.05383394 105.81984106 8.04882812 110.66796875 C8.03823256 120.11199327 8.02125769 129.55599386 8 139 C7.34 139.33 6.68 139.66 6 140 C4.24638155 130.48608845 3.67949298 121.22851369 3.62109375 111.5703125 C3.60520649 110.10228528 3.58843038 108.63426746 3.5708313 107.16625977 C3.53529156 104.07687002 3.50506742 100.98749661 3.47927856 97.89801025 C3.4386909 93.08665459 3.38395226 88.27552889 3.32592773 83.46435547 C3.31637464 82.66865709 3.30682154 81.87295872 3.29697895 81.05314827 C3.27777872 79.45465048 3.25854549 77.85615309 3.23927879 76.2576561 C3.21104587 73.88411061 3.18388106 71.51055523 3.15705872 69.13699341 C3.02956531 57.91053923 2.8804704 46.68509887 2.61624146 35.46087646 C2.58123549 33.93933956 2.54924315 32.41772939 2.52072144 30.89605713 C2.32372809 20.49712422 1.36535577 10.30201224 0 0 Z " fill="#322E2F" transform="translate(662,531)"/>
<path d="M0 0 C4.67394807 3.260894 8.19592213 7.31548247 9.6875 12.875 C10.14218011 17.96741723 9.80811408 20.81255069 6.6875 24.875 C3.61455283 26.70817193 0.54568841 28.23564722 -2.6875 29.74804688 C-6.19494449 31.47731483 -8.64918531 32.9998641 -11.08203125 36.10546875 C-13.3125 38.875 -13.3125 38.875 -16.625 39.25 C-17.9553125 39.064375 -17.9553125 39.064375 -19.3125 38.875 C-19.63190838 35.44135987 -19.66431061 33.45137058 -17.84375 30.46875 C-14.49324741 27.03551895 -10.82439436 25.18637936 -6.5625 23.0625 C-5.76972656 22.65580078 -4.97695313 22.24910156 -4.16015625 21.83007812 C-2.21597179 20.83456199 -0.2670175 19.85002756 1.6875 18.875 C1.84891187 12.37616961 1.84891187 12.37616961 -1.3125 6.875 C-4.51778701 4.55393009 -7.43409743 4.32094249 -11.3125 4.875 C-14.41817268 7.29052319 -16.0265129 8.88504466 -17.125 12.6875 C-17.186875 13.409375 -17.24875 14.13125 -17.3125 14.875 C-21.1875 14 -21.1875 14 -22.3125 12.875 C-22.00844367 7.60469032 -21.06340501 4.62590501 -17.3125 0.875 C-11.96931309 -2.38331867 -5.77055413 -1.95981084 0 0 Z " fill="#2C2829" transform="translate(828.3125,203.125)"/>
<path d="M0 0 C13.21358257 0.07476085 23.7045104 4.41407944 33.37109375 13.40625 C43.75742829 24.24416431 47.54388858 36.622199 47.49267578 51.28442383 C47.08005712 68.04656553 39.19558955 83.03259657 28.1875 95.375 C28.1875 91.36715302 29.75416906 89.65522747 31.9375 86.3125 C41.74087929 70.89273587 44.83918475 53.85605683 41.53515625 35.8125 C37.69434225 24.20763711 28.02001855 14.27737374 17.375 8.5625 C9.05951997 4.72756589 0.25720262 3.13080855 -8.8125 2.375 C-5.96427323 -0.47322677 -3.98109233 0.04099992 0 0 Z " fill="#E9E9E9" transform="translate(577.8125,274.625)"/>
<path d="M0 0 C1.87304688 0.59277344 1.87304688 0.59277344 4 2 C5.14257812 4.85253906 5.14257812 4.85253906 6.03125 8.515625 C6.19459839 9.18007629 6.35794678 9.84452759 6.52624512 10.52911377 C8.45276857 18.54698121 10.0175744 26.64016801 11.5 34.75 C11.64929962 35.5591687 11.79859924 36.3683374 11.9524231 37.20202637 C14.20606254 49.50476228 16.02832648 61.82261663 17.4375 74.25 C17.52112793 74.97844116 17.60475586 75.70688232 17.69091797 76.45739746 C18.57873172 84.3124055 19.26607386 92.08637206 19 100 C17.515 100.495 17.515 100.495 16 101 C14.12155385 90.72881357 12.87248515 80.3875548 11.57046509 70.03140259 C9.74490616 55.58098861 7.8846489 41.15175525 5.3125 26.8125 C5.12260498 25.74837891 4.93270996 24.68425781 4.73706055 23.58789062 C3.6469986 17.75020351 2.26467805 12.07550097 0.57495117 6.3815918 C0 4 0 4 0 0 Z " fill="#322E2F" transform="translate(381,373)"/>
<path d="M0 0 C4.27395702 1.76533007 5.96030849 3.91490356 8 8 C8.43359375 11.15625 8.43359375 11.15625 8.4375 14.5 C8.46650391 16.15515625 8.46650391 16.15515625 8.49609375 17.84375 C7.89556721 21.66442278 6.69403287 23.27204945 4 26 C0.09447993 28.06762827 -3.36516889 29.11284472 -7.6875 29.9375 C-11.65013799 30.71659493 -13.23388209 32.02898447 -16 35 C-18.25 34.75 -18.25 34.75 -20 34 C-20.33 32.68 -20.66 31.36 -21 30 C-15.71979138 24.47420028 -11.3913967 23.0203899 -3.890625 21.73828125 C-0.88725773 20.97120501 0.30189839 20.56484097 2 18 C2.39903439 15.82066669 2.39903439 15.82066669 2.25 13.5 C2.23453125 12.7265625 2.2190625 11.953125 2.203125 11.15625 C2.06471705 8.8177193 2.06471705 8.8177193 1 6 C-0.58323688 5.972807 -2.16661062 5.95351694 -3.75 5.9375 C-4.63171875 5.92589844 -5.5134375 5.91429687 -6.421875 5.90234375 C-8.7818838 5.99173802 -10.74498524 6.33087179 -13 7 C-12.6875 4.625 -12.6875 4.625 -12 2 C-7.95101194 -0.69932537 -4.75067841 -0.53528771 0 0 Z " fill="#2D292A" transform="translate(587,124)"/>
<path d="M0 0 C8.65419304 -0.54371893 17.75811728 -0.28466936 24.796875 5.46875 C26.49999061 7.63635169 26.2167858 9.32630852 26 12 C25.4225 12.04125 24.845 12.0825 24.25 12.125 C20.88592187 13.43325261 19.88896309 16.01421964 18 19 C14.53001271 21.31332486 13.07490752 21.33957563 9 21 C8.01 20.34 7.02 19.68 6 19 C5.5 16.1875 5.5 16.1875 6 13 C8.375 10.125 8.375 10.125 11 8 C11.66 8 12.32 8 13 8 C13 7.34 13 6.68 13 6 C9.04 5.67 5.08 5.34 1 5 C0.67 3.35 0.34 1.7 0 0 Z " fill="#282425" transform="translate(494,336)"/>
<path d="M0 0 C0.556875 0.226875 1.11375 0.45375 1.6875 0.6875 C2.28587017 8.41191494 -3.52046736 13.63112792 -8.2734375 19.19140625 C-9.3238041 20.38143198 -10.37848617 21.56766294 -11.4375 22.75 C-11.93991211 23.32234375 -12.44232422 23.8946875 -12.95996094 24.484375 C-15.19031943 26.90682879 -16.93468897 28.55026095 -20.0546875 29.68359375 C-21.17230469 29.68552734 -21.17230469 29.68552734 -22.3125 29.6875 C-22.9725 29.0275 -23.6325 28.3675 -24.3125 27.6875 C-24.00385312 23.79083315 -22.76055753 21.54323671 -20.3125 18.5625 C-19.68601562 17.79421875 -19.05953125 17.0259375 -18.4140625 16.234375 C-17.37378906 14.97367187 -17.37378906 14.97367187 -16.3125 13.6875 C-15.55710937 12.72328125 -14.80171875 11.7590625 -14.0234375 10.765625 C-12.86714844 9.30382812 -12.86714844 9.30382812 -11.6875 7.8125 C-10.97335937 6.90757812 -10.25921875 6.00265625 -9.5234375 5.0703125 C-6.78201758 2.11577866 -4.20745811 -0.56857542 0 0 Z " fill="#2A2627" transform="translate(695.3125,262.3125)"/>
<path d="M0 0 C0.99 0 1.98 0 3 0 C4.18739 2.37477999 4.12915064 3.83215925 4.1328125 6.48046875 C4.13410156 7.39892578 4.13539063 8.31738281 4.13671875 9.26367188 C4.13285156 10.22853516 4.12898438 11.19339844 4.125 12.1875 C4.12886719 13.10208984 4.13273437 14.01667969 4.13671875 14.95898438 C4.12930737 20.33593918 3.91376342 25.66019278 3.52734375 31.0234375 C2.87540019 40.15472198 2.65662065 49.28720045 2.4375 58.4375 C2.39416212 60.15169986 2.35054388 61.86589265 2.30664062 63.58007812 C2.20120729 67.71997808 2.09952495 71.85995397 2 76 C1.01 76 0.02 76 -1 76 C-2.35918777 71.22081108 -2.19060073 66.56369067 -2.1875 61.625 C-2.18814453 60.54041504 -2.18878906 59.45583008 -2.18945312 58.33837891 C-2.0744632 38.88156059 -0.93630384 19.43079476 0 0 Z " fill="#403C3D" transform="translate(427,651)"/>
<path d="M0 0 C0.99 0.33 1.98 0.66 3 1 C5.0652687 5.54497258 5.35268123 9.95367335 5.3125 14.875 C5.30758545 15.58100342 5.3026709 16.28700684 5.29760742 17.0144043 C5.17624559 22.40473653 4.66339296 26.31610204 2 31 C-0.76988394 33.46211906 -2.60953802 33.93242004 -6.25 34.5625 C-11.47641508 33.77853774 -14.85735224 31.15630306 -19 28 C-18.505 26.515 -18.505 26.515 -18 25 C-14.26512223 25.4979837 -12.18762365 25.87491756 -9 28 C-6.37468476 28.16713569 -6.37468476 28.16713569 -4 28 C-0.41719935 22.41945972 -0.67511266 17.57085866 -0.875 11.1875 C-0.91814656 9.2852445 -0.95742776 7.38289598 -0.9921875 5.48046875 C-1.01651855 4.64410889 -1.04084961 3.80774902 -1.06591797 2.94604492 C-1 1 -1 1 0 0 Z " fill="#312D2E" transform="translate(520,364)"/>
<path d="M0 0 C10.95857267 -0.47722816 21.35612418 0.37440577 31 6 C31 7.32 31 8.64 31 10 C26.30679799 12.34660101 19.43958338 11.57622061 14.453125 10.3984375 C12.27615217 9.65526402 10.14221765 8.83718851 8 8 C6.69213436 7.6091436 5.37979707 7.23278439 4.0625 6.875 C1 6 1 6 -1 5 C-0.67 3.35 -0.34 1.7 0 0 Z " fill="#2B2728" transform="translate(691,313)"/>
<path d="M0 0 C0.99 0.33 1.98 0.66 3 1 C3.73605153 16.08905642 1.63858097 30.62853849 -0.51269531 45.54052734 C-1.16122215 50.14454801 -1.72383519 54.75559741 -2.25 59.375 C-2.39953125 60.68210937 -2.5490625 61.98921875 -2.703125 63.3359375 C-2.80109375 64.21507812 -2.8990625 65.09421875 -3 66 C-4.485 66.495 -4.485 66.495 -6 67 C-6.332091 55.74391278 -5.41092203 45.1568329 -3.5625 34.0625 C-1.69281738 22.69737983 -0.4749573 11.51343368 0 0 Z " fill="#343131" transform="translate(824,408)"/>
<path d="M0 0 C3.75080196 2.65934458 5.42995863 5.04449176 6.44140625 9.51171875 C6.52390625 10.39859375 6.60640625 11.28546875 6.69140625 12.19921875 C5.04140625 12.52921875 3.39140625 12.85921875 1.69140625 13.19921875 C1.376875 12.71710938 1.06234375 12.235 0.73828125 11.73828125 C0.3103125 11.10664063 -0.11765625 10.475 -0.55859375 9.82421875 C-0.97625 9.19773437 -1.39390625 8.57125 -1.82421875 7.92578125 C-4.05147645 5.33512888 -6.11230702 4.344742 -9.4921875 3.93359375 C-13.99401804 3.96480228 -17.1219563 4.45478648 -21.30859375 6.19921875 C-24.12109375 5.82421875 -24.12109375 5.82421875 -26.30859375 5.19921875 C-25.97859375 3.54921875 -25.64859375 1.89921875 -25.30859375 0.19921875 C-16.66298953 -3.30914238 -8.42398161 -4.85017123 0 0 Z " fill="#2B2728" transform="translate(524.30859375,302.80078125)"/>
<path d="M0 0 C2.66735273 2.48952921 4.55746343 4.63408134 6 8 C5.01 8.66 4.02 9.32 3 10 C4.65 10 6.3 10 8 10 C8.33 11.32 8.66 12.64 9 14 C9.99 14 10.98 14 12 14 C12.33 14.99 12.66 15.98 13 17 C10.69 17.33 8.38 17.66 6 18 C6 18.66 6 19.32 6 20 C1.61537866 19.49890042 -0.8000997 18.01704885 -4 15 C-4 14.34 -4 13.68 -4 13 C-4.99 12.67 -5.98 12.34 -7 12 C-8.60769874 9.66883683 -9.09530596 8.57183574 -8.625 5.75 C-8.41875 5.1725 -8.2125 4.595 -8 4 C-6.68 4.66 -5.36 5.32 -4 6 C-4 6.99 -4 7.98 -4 9 C-3.22757731 7.16299211 -3.22757731 7.16299211 -3 5 C-4.35444301 3.22809091 -4.35444301 3.22809091 -6 2 C-4.02 1.34 -2.04 0.68 0 0 Z " fill="#918F8F" transform="translate(655,945)"/>
<path d="M0 0 C2.31 0.33 4.62 0.66 7 1 C6.5978125 1.8353125 6.5978125 1.8353125 6.1875 2.6875 C6.125625 3.450625 6.06375 4.21375 6 5 C7.6222454 6.70993434 9.29413425 8.37347684 11 10 C12.22543595 12.509226 13 14.21643882 13 17 C13.66 17.969375 14.32 18.93875 15 19.9375 C17 23 17 23 17 26 C13.92557562 26.94471655 12.50997633 27.23755654 9.54296875 25.85546875 C8.37701172 25.02982422 8.37701172 25.02982422 7.1875 24.1875 C6.39730469 23.64480469 5.60710937 23.10210938 4.79296875 22.54296875 C4.20128906 22.03378906 3.60960937 21.52460937 3 21 C3 20.34 3 19.68 3 19 C4.32 19.33 5.64 19.66 7 20 C6.66226562 19.19175781 6.32453125 18.38351562 5.9765625 17.55078125 C5.53054688 16.48214844 5.08453125 15.41351562 4.625 14.3125 C4.18414062 13.25675781 3.74328125 12.20101562 3.2890625 11.11328125 C2.65097656 9.57220703 2.65097656 9.57220703 2 8 C1.61585938 7.10667969 1.23171875 6.21335937 0.8359375 5.29296875 C0 3 0 3 0 0 Z " fill="#383535" transform="translate(427,938)"/>
<path d="M0 0 C0.99 0.33 1.98 0.66 3 1 C3.86847563 6.50034564 1.77738447 9.90339584 -1.078125 14.390625 C-4.7326198 19.35241875 -9.02788034 25.00929345 -15 27 C-15.83239345 21.58944259 -13.94534177 18.81495788 -10.93359375 14.58984375 C-10.29550781 13.73519531 -9.65742188 12.88054687 -9 12 C-8.61473145 11.47937988 -8.22946289 10.95875977 -7.83251953 10.42236328 C-5.2469176 6.92888689 -2.63297875 3.45797876 0 0 Z " fill="#F6F6F6" transform="translate(410,260)"/>
<path d="M0 0 C0.33 0 0.66 0 1 0 C1.59387958 4.60256675 1.86930674 7.50587904 -0.5 11.578125 C-11.56400455 25.66744329 -11.56400455 25.66744329 -19 27 C-17.68448876 22.39571066 -15.90803514 18.81679612 -13 15 C-12.34 15 -11.68 15 -11 15 C-10.76410156 14.45859375 -10.52820313 13.9171875 -10.28515625 13.359375 C-8.64911286 10.35581814 -6.61164705 7.8882908 -4.4375 5.25 C-3.63183594 4.26515625 -2.82617188 3.2803125 -1.99609375 2.265625 C-1.33738281 1.51796875 -0.67867188 0.7703125 0 0 Z " fill="#F1F1F1" transform="translate(406,247)"/>
<path d="M0 0 C3.5 0.25 3.5 0.25 5.5 2.25 C5.93662786 6.1796507 6.09751439 8.38692366 3.8125 11.6875 C1.07791039 13.53519568 -0.26418539 13.7609181 -3.5 13.25 C-5.5 11.25 -5.5 11.25 -5.765625 9.15625 C-5.75789062 7.96515625 -5.75789062 7.96515625 -5.75 6.75 C-5.75515625 5.9559375 -5.7603125 5.161875 -5.765625 4.34375 C-5.27150997 0.44896095 -3.70978315 0.26498451 0 0 Z " fill="#2D292A" transform="translate(804.5,248.75)"/>
<path d="M0 0 C2 2 2 2 2.375 5.4375 C2 9 2 9 0.375 10.9375 C-2.62103352 12.27783078 -4.75109093 12.35314229 -8 12 C-10 10 -10 10 -10.4375 7.125 C-10 4 -10 4 -7.8125 1.625 C-4.80938029 -0.11013583 -3.39396755 -0.55037312 0 0 Z " fill="#292526" transform="translate(489,406)"/>
<path d="M0 0 C0.7734375 0.495 0.7734375 0.495 1.5625 1 C1.2325 2.65 0.9025 4.3 0.5625 6 C-4.3875 6.33 -9.3375 6.66 -14.4375 7 C-14.7675 5.68 -15.0975 4.36 -15.4375 3 C-11.82098847 -1.88229057 -5.34409277 -2.19244832 0 0 Z " fill="#322E2F" transform="translate(560.4375,319)"/>
<path d="M0 0 C0.25 5.625 0.25 5.625 -2 9 C-4.64 8.67 -7.28 8.34 -10 8 C-10.3125 5.1875 -10.3125 5.1875 -10 2 C-6.55956398 -1.04724333 -4.32846371 -1.36037431 0 0 Z " fill="#302D2E" transform="translate(565,165)"/>
<path d="M0 0 C7.75 1.625 7.75 1.625 10 5 C9.625 7.1875 9.625 7.1875 9 9 C7.68 9.33 6.36 9.66 5 10 C4.16121545 8.71186658 3.32913217 7.41936744 2.5 6.125 C2.0359375 5.40570312 1.571875 4.68640625 1.09375 3.9453125 C0 2 0 2 0 0 Z " fill="#E9E9E9" transform="translate(451,947)"/>
<path d="M0 0 C3.06527514 2.35790395 4.72042487 3.7104105 5.5546875 7.55859375 C5.78736655 10.0440291 5.94670013 12.50459714 6 15 C0 9 0 9 -0.09765625 6.93359375 C-0.08605469 6.10988281 -0.07445312 5.28617188 -0.0625 4.4375 C-0.05347656 3.61121094 -0.04445312 2.78492188 -0.03515625 1.93359375 C-0.02355469 1.29550781 -0.01195312 0.65742187 0 0 Z " fill="#F1F1F1" transform="translate(198,937)"/>
<path d="M0 0 C1.46067199 0.45082469 2.91848032 0.91093537 4.375 1.375 C5.18710937 1.63023437 5.99921875 1.88546875 6.8359375 2.1484375 C9 3 9 3 11 5 C11 5.99 11 6.98 11 8 C8.35261084 9.4606285 7.10551666 10 4 10 C3.67 9.01 3.34 8.02 3 7 C3.99 7 4.98 7 6 7 C6 6.34 6 5.68 6 5 C5.195625 4.731875 4.39125 4.46375 3.5625 4.1875 C2.716875 3.795625 1.87125 3.40375 1 3 C0.67 2.01 0.34 1.02 0 0 Z " fill="#E5E5E5" transform="translate(443,952)"/>
<path d="M0 0 C4.82029598 3.85623679 4.82029598 3.85623679 5.33203125 7.11328125 C5.3145776 9.07856214 5.16596091 11.04166127 5 13 C0.17970402 9.14376321 0.17970402 9.14376321 -0.33203125 5.88671875 C-0.3145776 3.92143786 -0.16596091 1.95833873 0 0 Z " fill="#D5D4D4" transform="translate(198,926)"/>
<path d="M0 0 C1.32 0.66 2.64 1.32 4 2 C4 2.99 4 3.98 4 5 C4.99 5.33 5.98 5.66 7 6 C6.01 6.99 5.02 7.98 4 9 C1 8 1 8 -0.25 6.1875 C-1.11637742 3.66056586 -0.88492145 2.47778006 0 0 Z " fill="#EBEAEA" transform="translate(647,949)"/>
<path d="M0 0 C4.02118642 2.06493357 6.01334998 3.92213943 8 8 C8 8.66 8 9.32 8 10 C6.25 9.9375 6.25 9.9375 4 9 C1.99159505 6.29950956 0 3.44873267 0 0 Z " fill="#EFEFEF" transform="translate(436,953)"/>
<path d="M0 0 C1.32 1.32 2.64 2.64 4 4 C1 6 1 6 -1 5.8125 C-3.24469451 4.90059285 -4.42203265 3.81466246 -6 2 C-4.02 1.34 -2.04 0.68 0 0 Z " fill="#E4E3E3" transform="translate(655,945)"/>
<path d="M0 0 C4.97631579 4.81578947 4.97631579 4.81578947 5.0625 9.125 C5.041875 10.07375 5.02125 11.0225 5 12 C0.02368421 7.18421053 0.02368421 7.18421053 -0.0625 2.875 C-0.041875 1.92625 -0.02125 0.9775 0 0 Z " fill="#DDDCDC" transform="translate(205,936)"/>
<path d="M0 0 C6.66287016 1.92482916 6.66287016 1.92482916 9 5 C9.33 5.99 9.66 6.98 10 8 C6.01328937 6.63312778 3.11505367 4.84804907 0 2 C0 1.34 0 0.68 0 0 Z " fill="#EBEBEB" transform="translate(439,942)"/>
<path d="M0 0 C3.91402949 1.26941497 5.79072873 2.51167694 8 6 C7.67 6.66 7.34 7.32 7 8 C1.21538462 4.55384615 1.21538462 4.55384615 0.125 1.75 C0.08375 1.1725 0.0425 0.595 0 0 Z " fill="#EAEAEA" transform="translate(432,945)"/>
<path d="M0 0 C0.33 0.66 0.66 1.32 1 2 C-1.31 2.66 -3.62 3.32 -6 4 C-6.66 3.01 -7.32 2.02 -8 1 C-3.375 -1.125 -3.375 -1.125 0 0 Z " fill="#DFDEDE" transform="translate(677,957)"/>
<path d="M0 0 C2.31 0.33 4.62 0.66 7 1 C4.94766315 3.2477975 3.99332739 4.0022242 1 5 C0.67 3.35 0.34 1.7 0 0 Z " fill="#939192" transform="translate(427,938)"/>
<path d="M0 0 C2.875 -0.125 2.875 -0.125 6 0 C6.66 0.66 7.32 1.32 8 2 C6.02 2.66 4.04 3.32 2 4 C1.34 2.68 0.68 1.36 0 0 Z " fill="#D7D7D7" transform="translate(670,944)"/>
<path d="M0 0 C2.8290723 2.8290723 3.37611108 3.38144425 4 7 C3.34 7 2.68 7 2 7 C1.67 7.66 1.34 8.32 1 9 C0.67 6.03 0.34 3.06 0 0 Z " fill="#434040" transform="translate(662,531)"/>
<path d="M0 0 C-0.33 0.66 -0.66 1.32 -1 2 C-2.98 2 -4.96 2 -7 2 C-7.33 1.01 -7.66 0.02 -8 -1 C-4.37673261 -2.2077558 -3.35853631 -1.54311128 0 0 Z " fill="#DCDBDB" transform="translate(682,951)"/>
<path d="M0 0 C2.5 1.25 2.5 1.25 5 3 C5 4.32 5 5.64 5 7 C4.01 7.33 3.02 7.66 2 8 C1.814375 6.824375 1.814375 6.824375 1.625 5.625 C1.20882007 2.85942178 1.20882007 2.85942178 -1 1 C-0.67 0.67 -0.34 0.34 0 0 Z " fill="#444041" transform="translate(648,947)"/>
<path d="M0 0 C1.32 0.66 2.64 1.32 4 2 C2.02 2.99 0.04 3.98 -2 5 C-2.33 4.34 -2.66 3.68 -3 3 C-2.01 2.01 -1.02 1.02 0 0 Z " fill="#403D3E" transform="translate(678,945)"/>
<path d="M0 0 C1.65 1.32 3.3 2.64 5 4 C4.67 5.32 4.34 6.64 4 8 C0 3.375 0 3.375 0 0 Z " fill="#CECDCE" transform="translate(198,918)"/>
</svg>
